<svg width="40" height="40" viewBox="0 0 40 40" fill="none" xmlns="http://www.w3.org/2000/svg">
<g clip-path="url(#clip0_91_4444)">
<path d="M39.9998 35.7213C39.8766 36.1336 39.7899 36.5642 39.625 36.9549C38.7992 38.9126 37.3815 39.9589 35.4177 39.9794C31.8515 40.0171 28.2842 39.9909 24.717 39.9909C18.0387 39.9909 11.3603 39.9943 4.682 39.9886C2.43327 39.9863 0.648073 38.4626 0.127128 36.1234C0.0248179 35.6653 -0.0367768 35.1982 0.021686 34.7264C0.151139 33.679 0.953958 32.9183 1.93321 32.9001C2.43223 32.8909 2.43223 32.8909 2.43223 32.329C2.43223 24.9081 2.43223 17.4883 2.43223 10.0674C2.43223 8.12107 3.43654 7.01542 5.20503 7.01542C5.51718 7.01542 5.83142 6.99258 6.14148 7.02227C6.45885 7.05311 6.55907 6.95146 6.5549 6.58595C6.53715 4.76299 6.5455 2.94003 6.54759 1.11708C6.54759 0.270702 6.79919 0 7.58217 0C15.862 0 24.1407 0 32.4205 0C33.2181 0 33.4582 0.268418 33.4582 1.15591C33.4592 2.97887 33.4666 4.80183 33.4509 6.62479C33.4478 6.9526 33.5334 7.02798 33.8215 7.02342C34.379 7.01656 34.9406 6.95831 35.4971 7.06682C36.6904 7.29869 37.5287 8.35637 37.5704 9.68018C37.5756 9.83666 37.5725 9.99315 37.5725 10.1496C37.5725 17.5705 37.5746 24.9903 37.5662 32.4112C37.5662 32.7687 37.607 32.9229 37.9922 32.9115C39.0644 32.8784 39.6751 33.5545 39.9998 34.6088C39.9998 34.98 39.9998 35.3512 39.9998 35.7213Z" fill="#141C5E"/>
<path d="M15.0823 1.72142C16.5011 1.71685 17.9188 1.71 19.3376 1.71C23.3851 1.70886 27.4326 1.71457 31.4801 1.69972C31.8204 1.69858 31.906 1.78196 31.906 2.16117C31.8956 12.2571 31.8956 22.3531 31.906 32.4479C31.906 32.8248 31.8225 32.9093 31.4822 32.9082C25.6776 32.8956 19.8731 32.899 14.0686 32.8979C13.9392 32.8979 13.8087 32.8888 13.6792 32.8842C13.5946 32.8156 13.5289 32.7323 13.4809 32.6283C13.0455 31.6814 12.6739 30.7049 12.3429 29.7089C12.3032 29.5901 12.2584 29.4656 12.3617 29.3536C12.5935 29.2257 12.844 29.2919 13.0862 29.2748C13.5237 29.2451 13.8462 28.9356 13.8431 28.5392C13.841 28.1418 13.5195 27.8414 13.0821 27.8025C12.6488 27.7648 12.2041 27.8996 11.7792 27.7066C11.562 27.3376 11.5317 26.9013 11.4284 26.4947C11.3146 26.0435 11.2102 25.5866 11.1361 25.1252C11.1079 24.9481 11.0484 24.754 11.2405 24.6283C11.7155 24.5141 12.1978 24.5963 12.677 24.5735C12.8461 24.5655 13.0152 24.5826 13.1833 24.5598C13.5508 24.5107 13.8369 24.1931 13.84 23.8402C13.8421 23.4884 13.5571 23.1355 13.1875 23.1252C12.5006 23.1058 11.8115 23.0418 11.1277 23.1743C11.063 23.1869 10.9993 23.196 10.9356 23.1743C10.6611 22.8111 10.7373 22.3565 10.6987 21.9453C10.5786 20.6592 10.4794 19.3662 10.5233 18.0721C10.5963 15.9087 10.7978 13.7614 11.229 11.6438C11.8094 8.79052 12.7386 6.08236 13.983 3.49983C14.2137 3.02125 14.4664 2.55637 14.719 2.09149C14.8078 1.93044 14.9132 1.78995 15.0823 1.72142Z" fill="#FEFEFE"/>
<path d="M19.99 34.6099C25.9125 34.6099 31.835 34.6099 37.7575 34.6099C38.388 34.6099 38.5143 34.7732 38.4089 35.454C38.1375 37.2027 36.9369 38.2809 35.2446 38.2809C26.1463 38.2832 17.0481 38.282 7.94982 38.282C6.83067 38.282 5.71049 38.2935 4.59134 38.2786C3.0379 38.2592 1.82898 37.1056 1.59095 35.4391C1.49595 34.7766 1.62227 34.6099 2.2236 34.6099C8.14608 34.6099 14.0686 34.6099 19.99 34.6099Z" fill="#3147EB"/>
<path d="M11.2613 24.683C11.1496 24.771 11.1997 24.8761 11.2247 24.9891C11.422 25.8835 11.6141 26.7801 11.8073 27.6756C11.706 27.8195 11.5525 27.7875 11.4168 27.8127C11.0243 27.8869 10.8113 28.153 10.8197 28.5597C10.828 28.948 11.0358 29.1936 11.4199 29.261C11.5995 29.293 11.7812 29.2736 11.9607 29.2838C12.0996 29.2907 12.2489 29.2667 12.3533 29.4083C12.6748 30.4546 13.0767 31.4643 13.511 32.4592C13.5716 32.5985 13.6227 32.7447 13.677 32.8875C11.9075 32.8921 10.139 32.8943 8.36944 32.9069C8.16587 32.9081 8.08026 32.8441 8.10741 32.6191C8.11576 32.5494 8.10845 32.4774 8.10845 32.4055C8.10845 22.3415 8.11054 12.2764 8.1001 2.21245C8.1001 1.80582 8.18153 1.69503 8.56362 1.6996C10.7361 1.72587 12.9087 1.71901 15.0812 1.72244C14.2303 3.09194 13.581 4.57909 12.9765 6.09137C12.4295 7.45973 11.99 8.86921 11.6423 10.313C11.2894 11.7784 11.0128 13.261 10.8604 14.7698C10.7288 16.0811 10.6161 17.3935 10.6328 18.7139C10.6516 20.2022 10.7466 21.6847 10.9418 23.1593C10.9836 23.2484 10.9366 23.3227 10.9094 23.4015C10.7215 23.9452 10.7685 24.1508 11.1621 24.5163C11.2122 24.5597 11.2665 24.6008 11.2613 24.683Z" fill="#F8F8F8"/>
<path d="M6.54979 20.8394C6.54979 24.7115 6.54562 28.5836 6.5571 32.4556C6.55814 32.8029 6.48611 32.9251 6.15413 32.9091C5.5434 32.8794 4.93058 32.8885 4.31986 32.9068C4.0693 32.9148 3.98474 32.8406 3.98892 32.5539C4.00353 31.5008 3.99518 30.4465 3.99518 29.3934C3.99518 22.9445 3.99518 16.4956 3.99518 10.0467C3.99518 9.085 4.31986 8.7252 5.18636 8.72406C5.51208 8.72406 5.8378 8.74462 6.16143 8.71835C6.4621 8.69436 6.56128 8.78916 6.55814 9.13754C6.5404 10.8177 6.54979 12.4968 6.54979 14.1769C6.54979 16.3985 6.54979 18.619 6.54979 20.8394Z" fill="#EB7431"/>
<path d="M33.4561 20.7995C33.4561 16.9274 33.4613 13.0553 33.4478 9.18327C33.4467 8.79949 33.5407 8.68527 33.8821 8.71725C34.2443 8.75038 34.6097 8.71954 34.9741 8.72639C35.637 8.73667 36.0034 9.14215 36.0097 9.87545C36.0149 10.4591 36.0107 11.0428 36.0107 11.6264C36.0107 18.5596 36.0076 25.4917 36.0191 32.4248C36.0201 32.8201 35.9241 32.9308 35.5702 32.9114C34.9991 32.8783 34.4249 32.8817 33.8539 32.9103C33.525 32.9274 33.4478 32.8098 33.4488 32.4591C33.4603 28.5722 33.4561 24.6853 33.4561 20.7995Z" fill="#EB7431"/>
<path d="M19.962 16.993C19.4313 16.993 18.9006 16.9768 18.372 16.999C18.0327 17.0131 17.9365 16.878 17.9416 16.5565C17.9568 15.5887 17.9477 14.621 17.9467 13.6543C17.9467 13.0878 17.9284 13.0696 17.3421 13.0696C16.3699 13.0696 15.3976 13.0615 14.4264 13.0746C14.1226 13.0787 13.996 12.9869 14.0001 12.6674C14.0143 11.5616 14.0143 10.4557 14.0001 9.34989C13.996 9.03336 14.1226 8.9255 14.4234 8.92751C15.4463 8.93457 16.4691 8.91743 17.4909 8.93658C17.8464 8.94364 17.9558 8.80755 17.9517 8.47389C17.9406 7.46886 17.9598 6.46282 17.9406 5.45779C17.9335 5.10195 18.0743 4.99812 18.4074 5.00114C19.4678 5.01223 20.5281 5.01425 21.5884 5.00013C21.955 4.99509 22.0664 5.1332 22.0583 5.49307C22.037 6.485 22.0583 7.47793 22.0472 8.47086C22.0431 8.80251 22.1484 8.94263 22.5059 8.93558C23.5156 8.91642 24.5253 8.93659 25.535 8.92449C25.8692 8.92046 26.0059 9.03033 25.9998 9.38416C25.9816 10.4648 25.9816 11.5454 25.9998 12.6261C26.0059 12.9809 25.8773 13.0807 25.536 13.0746C24.5516 13.0565 23.5672 13.0676 22.5819 13.0686C22.0887 13.0686 22.0512 13.1069 22.0512 13.6129C22.0502 14.5676 22.0512 15.5232 22.0512 16.4778C22.0512 16.9899 22.0502 16.9909 21.5529 16.9909C21.0223 16.994 20.4926 16.993 19.962 16.993Z" fill="#6F7EF1"/>
<path d="M22.8919 27.6882C24.7512 27.6882 26.6116 27.686 28.4709 27.6894C29.0483 27.6905 29.3782 28.0972 29.3051 28.6957C29.2518 29.1263 28.9428 29.3924 28.4605 29.3958C27.4458 29.4016 26.4321 29.3981 25.4173 29.3981C22.751 29.3981 20.0847 29.3981 17.4184 29.397C17.2513 29.397 17.0822 29.4153 16.9193 29.3342C16.5811 29.1674 16.3618 28.7688 16.4214 28.4101C16.4892 28.0046 16.8473 27.6917 17.2722 27.6905C19.1461 27.686 21.019 27.6882 22.8919 27.6882Z" fill="#EB7431"/>
<path d="M22.8881 22.9868C24.7474 22.9868 26.6078 22.9845 28.4671 22.988C29.035 22.9891 29.3545 23.3603 29.3085 23.9463C29.2731 24.3895 28.9713 24.6841 28.5047 24.6933C27.8418 24.7058 27.1788 24.6967 26.5149 24.6967C23.4852 24.6967 20.4546 24.6967 17.425 24.6956C17.2704 24.6956 17.1138 24.7127 16.9625 24.6499C16.6169 24.5082 16.3674 24.0788 16.4227 23.7098C16.4833 23.3089 16.8476 22.9891 17.2704 22.9891C19.1433 22.9845 21.0162 22.9868 22.8881 22.9868Z" fill="#EB7431"/>
<path d="M11.2609 24.683C10.6262 24.3495 10.5176 23.8321 10.9415 23.157C11.1607 23.0154 11.3966 22.9766 11.6493 22.9834C12.1546 22.996 12.6609 22.98 13.1662 22.9903C13.6109 22.9994 13.9773 23.3935 13.9784 23.8401C13.9784 24.2855 13.6119 24.6864 13.1672 24.6922C12.5314 24.7013 11.8967 24.6876 11.2609 24.683Z" fill="#EB7431"/>
<path d="M12.3543 29.4072C12.0954 29.4038 11.8354 29.4015 11.5765 29.3969C11.0138 29.3866 10.709 29.0954 10.7027 28.562C10.6965 27.9966 10.993 27.6985 11.5755 27.6882C11.6528 27.687 11.7311 27.6802 11.8083 27.6768C12.2489 27.6813 12.6884 27.6813 13.1289 27.6905C13.6008 27.6996 13.9777 28.0822 13.9787 28.5425C13.9798 29.0017 13.6019 29.3855 13.131 29.3981C12.8721 29.4026 12.6132 29.4038 12.3543 29.4072Z" fill="#EB7431"/>
</g>
<defs>
<clipPath id="clip0_91_4444">
<rect width="40" height="40" fill="white"/>
</clipPath>
</defs>
</svg>
