<svg width="23" height="20" viewBox="0 0 23 20" fill="none" xmlns="http://www.w3.org/2000/svg">
<path d="M1.86486 6.91324C1.86486 3.35421 4.2343 0.0539551 7.47885 0.0539551C9.73043 0.0539551 11.4012 1.53466 12.4324 3.63518C13.4636 1.53478 15.1344 0.0539551 17.386 0.0539551C20.6309 0.0539551 23 3.35477 23 6.91324C23 14.5308 12.4324 19.9458 12.4324 19.9458C12.4324 19.9458 5.31406 16.519 2.76193 10.8978H9.06623L10.0683 9.11645L11.2387 13.2132L13.9797 9.68909L17.4054 9.68909V8.44585L13.3716 8.44585L11.7613 10.5163L10.4452 5.91038L8.33918 9.65453H2.28747C2.41924 10.08 2.57886 10.4945 2.76193 10.8978L0 10.8977L0 9.65446L2.28747 9.65453C2.01805 8.78482 1.86486 7.86967 1.86486 6.91324Z" fill="#3147EB"/>
</svg>
