<svg width="20" height="20" viewBox="0 0 20 20" fill="none" xmlns="http://www.w3.org/2000/svg">
<path d="M16.2191 4.64666C15.6458 4.02166 14.6116 3.98333 13.9225 4.6725L7.17245 11.4225C6.99745 11.5975 6.99745 11.8192 7.17245 11.9942C7.34745 12.1692 7.56912 12.1692 7.74412 11.9942L13.3275 6.41083C13.4846 6.25903 13.6951 6.17504 13.9136 6.17693C14.1321 6.17883 14.3411 6.26647 14.4956 6.42098C14.6501 6.57549 14.7378 6.7845 14.7397 7.003C14.7416 7.22149 14.6576 7.43199 14.5058 7.58916L8.92245 13.1725C8.73217 13.3683 8.50455 13.5239 8.25306 13.6302C8.00157 13.7365 7.73131 13.7913 7.45828 13.7913C7.18526 13.7913 6.915 13.7365 6.66351 13.6302C6.41202 13.5239 6.1844 13.3683 5.99412 13.1725C5.79832 12.9822 5.64267 12.7546 5.53639 12.5031C5.4301 12.2516 5.37534 11.9814 5.37534 11.7083C5.37534 11.4353 5.4301 11.165 5.53639 10.9136C5.64267 10.6621 5.79832 10.4344 5.99412 10.2442L12.7441 3.49416C14.05 2.1875 16.1733 2.145 17.4358 3.50666C18.7291 4.81416 18.7666 6.92666 17.4108 8.18416L9.50578 16.0892C7.68078 17.9142 4.81912 17.9142 2.99412 16.0892C1.16912 14.2642 1.16912 11.4025 2.99412 9.5775L9.74412 2.8275C9.90129 2.6757 10.1118 2.5917 10.3303 2.5936C10.5488 2.5955 10.7578 2.68314 10.9123 2.83765C11.0668 2.99215 11.1544 3.20116 11.1563 3.41966C11.1582 3.63816 11.0742 3.84866 10.9225 4.00583L4.17245 10.7558C2.99745 11.9308 2.99745 13.7358 4.17245 14.9108C5.34745 16.0858 7.15245 16.0858 8.32745 14.9108L16.2441 6.99416L16.2699 6.96916C16.8949 6.39666 16.9333 5.36166 16.2441 4.6725C16.2356 4.66406 16.2273 4.65544 16.2191 4.64666Z" fill="#1B1C22"/>
</svg>
