<svg width="79" height="25" viewBox="0 0 79 25" fill="none" xmlns="http://www.w3.org/2000/svg">
<path fill-rule="evenodd" clip-rule="evenodd" d="M0.098882 17.1807C0.098882 15.9396 0.0780678 14.898 0.015625 13.9693H2.18197L2.28355 15.5649H2.34432C2.83533 14.7217 3.73326 13.7246 5.40818 13.7246C6.71552 13.7246 7.73667 14.524 8.16482 15.7197H8.20687C8.55467 15.1217 8.9618 14.6791 9.43116 14.3678C9.98315 13.9474 10.6165 13.7246 11.4335 13.7246C13.0874 13.7246 14.7611 14.9427 14.7611 18.3989V24.7556H12.3106V18.7982C12.3106 17.0042 11.7397 15.9396 10.5354 15.9396C9.67614 15.9396 9.04235 16.6053 8.77863 17.381C8.71661 17.646 8.65541 17.9785 8.65541 18.2864V24.7556H6.20412V18.5093C6.20412 17.0042 5.65358 15.9396 4.48923 15.9396C3.54968 15.9396 2.91734 16.7383 2.69213 17.4898C2.58931 17.7573 2.5481 18.0666 2.5481 18.3761V24.7556H0.098882V17.1807Z" fill="#113950"/>
<path fill-rule="evenodd" clip-rule="evenodd" d="M24.3091 22.1652C24.3091 23.1393 24.3499 24.0902 24.4521 24.7566H22.1844L22.0216 23.5608H21.9596C21.3472 24.4033 20.3057 25.0004 19.0192 25.0004C17.0173 25.0004 15.8945 23.429 15.8945 21.7889C15.8945 19.0635 18.1198 17.6915 21.7962 17.7134V17.5355C21.7962 16.8264 21.5304 15.6532 19.7743 15.6532C18.7935 15.6532 17.772 15.9857 17.0984 16.4501L16.6076 14.6796C17.3442 14.1913 18.632 13.7256 20.2033 13.7256C23.3906 13.7256 24.3091 15.9198 24.3091 18.2666V22.1652ZM21.8574 19.4859C20.0809 19.4412 18.3862 19.862 18.3862 21.5013C18.3862 22.5634 19.0191 23.0517 19.8159 23.0517C20.8154 23.0517 21.5518 22.3427 21.7758 21.5677C21.8366 21.3683 21.8574 21.146 21.8574 20.9695V19.4859Z" fill="#113950"/>
<path fill-rule="evenodd" clip-rule="evenodd" d="M26.0469 17.1807C26.0469 15.9396 26.0244 14.898 25.9648 13.9693H28.1687L28.2919 15.5861H28.3522C28.7816 14.7454 29.864 13.7246 31.5179 13.7246C33.2544 13.7246 35.0515 14.9427 35.0515 18.3546V24.7556H32.5399V18.6655C32.5399 17.1139 32.0089 15.9396 30.6403 15.9396C29.6396 15.9396 28.9454 16.715 28.6792 17.5349C28.5989 17.7792 28.5777 18.1122 28.5777 18.4201V24.7556H26.0469V17.1807Z" fill="#113950"/>
<path fill-rule="evenodd" clip-rule="evenodd" d="M45.9419 9.63574V21.7209C45.9419 22.8282 45.9821 24.0265 46.0231 24.7565H43.7764L43.6759 23.0512H43.6342C43.0417 24.2479 41.8349 25.0003 40.3864 25.0003C38.0184 25.0003 36.1388 22.8079 36.1388 19.4854C36.118 15.8746 38.2011 13.7255 40.5904 13.7255C41.9583 13.7255 42.9395 14.3466 43.388 15.1446H43.4294V9.63574H45.9419ZM43.4316 18.4646C43.4316 18.2454 43.4105 17.9783 43.3712 17.7576C43.1462 16.6943 42.3492 15.8299 41.2055 15.8299C39.5922 15.8299 38.6934 17.3813 38.6934 19.3969C38.6934 21.3677 39.5922 22.8077 41.1851 22.8077C42.2058 22.8077 43.105 22.0548 43.3498 20.8812C43.4105 20.6365 43.4316 20.371 43.4316 20.082V18.4646Z" fill="#113950"/>
<path fill-rule="evenodd" clip-rule="evenodd" d="M47.7168 24.7558H50.2518V13.9702H47.7168V24.7558Z" fill="#113950"/>
<path fill-rule="evenodd" clip-rule="evenodd" d="M52.0256 17.4463C52.0256 15.985 52.0043 14.9425 51.9434 13.9689H54.1291L54.209 16.0281H54.2937C54.783 14.4998 55.9474 13.9689 57.0089 13.9689C57.2535 13.9689 57.3963 13.9235 57.6011 13.9689V16.3618C57.3963 16.3175 57.1721 16.2733 56.8657 16.2733C55.661 16.2733 54.8434 17.1142 54.619 18.3316C54.5793 18.5754 54.5381 18.8646 54.5381 19.1761V24.7558H52.0256V17.4463Z" fill="#113950"/>
<path fill-rule="evenodd" clip-rule="evenodd" d="M58.7656 24.7558H61.2968V13.9702H58.7656V24.7558Z" fill="#113950"/>
<path fill-rule="evenodd" clip-rule="evenodd" d="M58.1665 0.929162C56.646 1.88406 53.0597 4.11486 51.721 4.9456C50.905 5.39641 49.0153 5.59326 47.9465 4.0302C47.9274 4.00199 46.5249 2.10145 46.4677 2.02989C46.4275 1.97932 45.5208 0.520791 43.5006 0.475191C43.2021 0.467515 41.7181 0.458937 40.27 1.35153C38.3453 2.54413 33.869 5.31965 33.869 5.31965C33.8678 5.31965 33.8678 5.32214 33.8655 5.32214C32.0255 6.46395 30.5918 7.35293 30.5918 7.35293L32.2857 9.60924C33.0781 10.6763 34.865 11.5019 36.4146 10.537C36.4146 10.537 42.1404 6.94095 42.1614 6.93056C44.6377 5.45758 46.5484 5.45758 47.8166 6.00569C48.955 6.52738 49.9453 7.82722 49.9453 7.82722C49.9453 7.82722 51.2395 9.5668 51.4679 9.8711C52.2043 10.8542 53.4232 10.468 53.4232 10.468C53.4232 10.468 53.8748 10.4124 54.5557 9.97404C54.5557 9.97404 60.1018 6.4863 60.1054 6.48517C61.8665 5.36458 63.4816 5.15531 64.3071 5.23771C66.8927 5.49257 67.6959 7.45158 68.817 8.81823C69.4772 9.62211 70.0729 10.0786 70.9839 10.0555C71.5826 10.0418 72.2588 9.64807 72.3585 9.57696L78.9999 5.42011C78.9999 5.42011 78.3185 4.30697 76.9229 2.57506C75.6738 1.02984 74.3471 1.72897 73.2893 2.29717C72.8449 2.53555 71.2347 3.69723 69.6395 4.50765C68.5029 5.08488 66.8702 4.91128 65.9754 3.71213C65.9219 3.63922 64.4743 1.73845 64.3221 1.50458C63.7379 0.710867 62.5979 0 61.1369 0C60.2486 0 59.2405 0.262766 58.1665 0.929162Z" fill="url(#paint0_linear_103_14538)"/>
<defs>
<linearGradient id="paint0_linear_103_14538" x1="30.5918" y1="10.9643" x2="78.9999" y2="10.9643" gradientUnits="userSpaceOnUse">
<stop stop-color="#FFCA06"/>
<stop offset="0.330844" stop-color="#FBAA18"/>
<stop offset="0.694742" stop-color="#FFC907"/>
<stop offset="1" stop-color="#FAA619"/>
</linearGradient>
</defs>
</svg>
