<svg width="20" height="21" viewBox="0 0 20 21" fill="none" xmlns="http://www.w3.org/2000/svg">
<path d="M11.4587 8C11.4587 7.83424 11.3928 7.67527 11.2756 7.55806C11.1584 7.44085 10.9994 7.375 10.8337 7.375C10.6679 7.375 10.5089 7.44085 10.3917 7.55806C10.2745 7.67527 10.2087 7.83424 10.2087 8V9.04167H9.16699C9.00123 9.04167 8.84226 9.10751 8.72505 9.22473C8.60784 9.34194 8.54199 9.50091 8.54199 9.66667C8.54199 9.83243 8.60784 9.9914 8.72505 10.1086C8.84226 10.2258 9.00123 10.2917 9.16699 10.2917H10.2087V11.3333C10.2087 11.4991 10.2745 11.6581 10.3917 11.7753C10.5089 11.8925 10.6679 11.9583 10.8337 11.9583C10.9994 11.9583 11.1584 11.8925 11.2756 11.7753C11.3928 11.6581 11.4587 11.4991 11.4587 11.3333V10.2917H12.5003C12.6661 10.2917 12.8251 10.2258 12.9423 10.1086C13.0595 9.9914 13.1253 9.83243 13.1253 9.66667C13.1253 9.50091 13.0595 9.34194 12.9423 9.22473C12.8251 9.10751 12.6661 9.04167 12.5003 9.04167H11.4587V8Z" fill="white"/>
<path fill-rule="evenodd" clip-rule="evenodd" d="M1.0773 2.79229C1.13225 2.63594 1.24704 2.50782 1.39643 2.43609C1.54583 2.36436 1.7176 2.3549 1.87397 2.40979L2.1248 2.49813C2.63897 2.67896 3.0748 2.83229 3.41897 3.00063C3.78563 3.18146 4.10063 3.40313 4.3373 3.74979C4.5723 4.09313 4.6698 4.47063 4.71397 4.88479L4.72313 4.97479H14.2665C14.949 4.97479 15.644 4.97479 16.2165 5.03896C16.5081 5.07146 16.7973 5.12313 17.0523 5.21313C17.3023 5.30063 17.5781 5.44479 17.774 5.69979C18.0923 6.11313 18.1481 6.59479 18.1181 7.08313C18.089 7.54813 17.974 8.12646 17.8365 8.81396L17.8281 8.85813L17.8265 8.86146L17.4031 10.9198C17.2781 11.5248 17.1731 12.034 17.0373 12.4365C16.894 12.8615 16.6956 13.2365 16.3398 13.5265C15.984 13.8156 15.5765 13.9348 15.1306 13.9898C14.7098 14.0415 14.189 14.0415 13.5723 14.0415H9.06647C7.94563 14.0415 7.0373 14.0415 6.3223 13.9398C5.5748 13.834 4.9473 13.6065 4.45313 13.0848C3.9973 12.6048 3.75397 12.0948 3.6323 11.3831C3.51813 10.7165 3.5073 9.84313 3.5073 8.63313V6.36479C3.5073 5.74813 3.50563 5.33563 3.47147 5.01896C3.43813 4.71646 3.38063 4.56479 3.3048 4.45479C3.2323 4.34729 3.12147 4.24646 2.86813 4.12313C2.59897 3.99146 2.23313 3.86146 1.67647 3.66563L1.4598 3.58979C1.38221 3.56267 1.31073 3.52052 1.24946 3.46574C1.18819 3.41096 1.13832 3.34463 1.10271 3.27056C1.0671 3.19648 1.04646 3.11611 1.04195 3.03404C1.03745 2.95197 1.05001 2.86982 1.0773 2.79229ZM4.75647 6.22479V8.63313C4.75647 9.87396 4.77147 10.6315 4.8648 11.1723C4.94897 11.6681 5.09313 11.9431 5.3598 12.2248C5.5873 12.4648 5.90147 12.6181 6.4973 12.7023C7.11397 12.7898 7.93397 12.7915 9.11397 12.7915H13.534C14.1998 12.7915 14.6423 12.7906 14.979 12.7498C15.2973 12.7106 15.4456 12.6423 15.5498 12.5573C15.654 12.4723 15.7498 12.3406 15.8531 12.0365C15.9615 11.7156 16.0515 11.2823 16.1865 10.6298L16.6015 8.61313V8.61146C16.7498 7.86979 16.8473 7.37646 16.8698 7.00646C16.8915 6.65563 16.8365 6.53229 16.7856 6.46479C16.7411 6.43211 16.6912 6.40756 16.6381 6.39229C16.456 6.33495 16.2683 6.2975 16.0781 6.28063C15.5823 6.22563 14.954 6.22479 14.2406 6.22479H4.75647ZM4.3748 16.7498C4.3748 17.2471 4.57234 17.724 4.92397 18.0756C5.27561 18.4272 5.75252 18.6248 6.2498 18.6248C6.74708 18.6248 7.22399 18.4272 7.57562 18.0756C7.92726 17.724 8.1248 17.2471 8.1248 16.7498C8.1248 16.2525 7.92726 15.7756 7.57562 15.424C7.22399 15.0723 6.74708 14.8748 6.2498 14.8748C5.75252 14.8748 5.27561 15.0723 4.92397 15.424C4.57234 15.7756 4.3748 16.2525 4.3748 16.7498ZM6.2498 17.3748C6.08404 17.3748 5.92507 17.3089 5.80786 17.1917C5.69065 17.0745 5.6248 16.9156 5.6248 16.7498C5.6248 16.584 5.69065 16.4251 5.80786 16.3079C5.92507 16.1906 6.08404 16.1248 6.2498 16.1248C6.41556 16.1248 6.57453 16.1906 6.69174 16.3079C6.80895 16.4251 6.8748 16.584 6.8748 16.7498C6.8748 16.9156 6.80895 17.0745 6.69174 17.1917C6.57453 17.3089 6.41556 17.3748 6.2498 17.3748ZM11.8748 16.7498C11.8748 16.996 11.9233 17.2398 12.0175 17.4673C12.1118 17.6948 12.2499 17.9015 12.424 18.0756C12.5981 18.2497 12.8048 18.3878 13.0323 18.4821C13.2598 18.5763 13.5036 18.6248 13.7498 18.6248C13.996 18.6248 14.2398 18.5763 14.4673 18.4821C14.6948 18.3878 14.9015 18.2497 15.0756 18.0756C15.2497 17.9015 15.3878 17.6948 15.4821 17.4673C15.5763 17.2398 15.6248 16.996 15.6248 16.7498C15.6248 16.2525 15.4273 15.7756 15.0756 15.424C14.724 15.0723 14.2471 14.8748 13.7498 14.8748C13.2525 14.8748 12.7756 15.0723 12.424 15.424C12.0723 15.7756 11.8748 16.2525 11.8748 16.7498ZM13.7498 17.3748C13.584 17.3748 13.4251 17.3089 13.3079 17.1917C13.1906 17.0745 13.1248 16.9156 13.1248 16.7498C13.1248 16.584 13.1906 16.4251 13.3079 16.3079C13.4251 16.1906 13.584 16.1248 13.7498 16.1248C13.9156 16.1248 14.0745 16.1906 14.1917 16.3079C14.309 16.4251 14.3748 16.584 14.3748 16.7498C14.3748 16.9156 14.309 17.0745 14.1917 17.1917C14.0745 17.3089 13.9156 17.3748 13.7498 17.3748Z" fill="white"/>
</svg>
