<svg width="20" height="20" viewBox="0 0 20 20" fill="none" xmlns="http://www.w3.org/2000/svg">
<path d="M14.5582 2.99619C14.0213 2.97399 13.4324 2.974 12.8086 2.974L12.7792 2.974H10.2208L10.1913 2.974C9.15084 2.97399 8.20676 2.97399 7.44022 3.07677L7.43949 3.07687C6.59774 3.19101 5.72008 3.45637 4.99989 4.17951C4.28006 4.90228 4.01593 5.78205 3.90276 6.62678L3.90273 6.62702C3.79998 7.39674 3.79999 8.34486 3.8 9.38879L3.8 9.41817V13.5932V13.6069C3.8 14.1565 3.8 14.7849 3.81412 15.3688C3.31383 14.9094 3 14.2486 3 13.514V8.649C3 7.15993 3.00103 6.02966 3.11808 5.15535L3.11809 5.15523C3.23658 4.26858 3.47652 3.62929 3.96738 3.13707L3.96762 3.13682C4.45751 2.64488 5.09326 2.40451 5.97606 2.28534L5.97626 2.28532C6.84594 2.16755 7.97159 2.1665 9.455 2.1665H12.6998C13.2022 2.16692 13.6929 2.31864 14.1078 2.60191C14.2741 2.71544 14.4251 2.84799 14.5582 2.99619Z" fill="#898B8D" stroke="#898B8D"/>
<path d="M5.5 9.49739C5.5 7.22572 5.5 6.08989 6.20333 5.38406C6.90583 4.67822 8.03667 4.67822 10.3 4.67822H12.7C14.9625 4.67822 16.0942 4.67822 16.7975 5.38406C17.5 6.08989 17.5 7.22572 17.5 9.49739V13.5141C17.5 15.7857 17.5 16.9216 16.7975 17.6274C16.0942 18.3332 14.9625 18.3332 12.7 18.3332H10.3C8.0375 18.3332 6.90583 18.3332 6.20333 17.6274C5.5 16.9216 5.5 15.7857 5.5 13.5141V9.49739Z" fill="#898B8D"/>
</svg>
