<svg width="20" height="20" viewBox="0 0 20 20" fill="none" xmlns="http://www.w3.org/2000/svg">
<path d="M15.8337 3.3335C16.4713 3.33346 17.0849 3.5771 17.5489 4.01457C18.0128 4.45203 18.2921 5.05025 18.3295 5.68683L18.3337 5.8335V7.34766C18.3318 7.57273 18.2711 7.7934 18.1577 7.98781C18.0443 8.18222 17.882 8.34361 17.687 8.456L17.5978 8.50433C17.3282 8.63666 17.0994 8.83939 16.9355 9.09108C16.7716 9.34276 16.6788 9.63406 16.6668 9.93416C16.6549 10.2343 16.7243 10.532 16.8676 10.7959C17.0109 11.0599 17.2229 11.2801 17.4812 11.4335L17.5978 11.496C17.9587 11.6743 18.2812 12.0427 18.3278 12.5293L18.3337 12.6527V14.1668C18.3337 14.8045 18.0901 15.4181 17.6526 15.882C17.2151 16.346 16.6169 16.6253 15.9803 16.6627L15.8337 16.6668H4.16699C3.52932 16.6669 2.91573 16.4232 2.45177 15.9858C1.98782 15.5483 1.70857 14.9501 1.67116 14.3135L1.66699 14.1668V12.6527C1.66699 12.1477 1.96033 11.7543 2.31366 11.5443L2.40283 11.496C2.67244 11.3637 2.90128 11.1609 3.06515 10.9092C3.22903 10.6576 3.32185 10.3663 3.3338 10.0662C3.34576 9.76607 3.2764 9.46832 3.13306 9.2044C2.98972 8.94047 2.77772 8.72019 2.51949 8.56683L2.40283 8.50433C2.04199 8.326 1.71949 7.95766 1.67283 7.471L1.66699 7.3485V5.8335C1.66696 5.19582 1.9106 4.58223 2.34806 4.11828C2.78553 3.65432 3.38375 3.37507 4.02033 3.33766L4.16699 3.3335H15.8337ZM15.8337 5.00016H4.16699C3.96288 5.00019 3.76588 5.07513 3.61335 5.21076C3.46082 5.34639 3.36337 5.53329 3.33949 5.736L3.33366 5.8335V7.11266C3.82737 7.39749 4.2398 7.80416 4.53154 8.29381C4.82328 8.78347 4.98459 9.33976 5.00005 9.90953C5.01552 10.4793 4.88462 11.0435 4.61987 11.5483C4.35512 12.053 3.96536 12.4815 3.48783 12.7927L3.33366 12.8877V14.1668C3.33369 14.3709 3.40862 14.5679 3.54425 14.7205C3.67989 14.873 3.86678 14.9704 4.06949 14.9943L4.16699 15.0002H15.8337C16.0378 15.0001 16.2348 14.9252 16.3873 14.7896C16.5398 14.6539 16.6373 14.467 16.6612 14.2643L16.667 14.1668V12.8877C16.1733 12.6028 15.7609 12.1962 15.4691 11.7065C15.1774 11.2169 15.0161 10.6606 15.0006 10.0908C14.9851 9.52103 15.116 8.95681 15.3808 8.45205C15.6455 7.94729 16.0353 7.51885 16.5128 7.20766L16.667 7.11266V5.8335C16.667 5.62938 16.592 5.43238 16.4564 5.27985C16.3208 5.12732 16.1339 5.02988 15.9312 5.006L15.8337 5.00016ZM8.33366 7.50016C8.53777 7.50019 8.73477 7.57513 8.8873 7.71076C9.03983 7.84639 9.13728 8.03329 9.16116 8.236L9.16699 8.3335V11.6668C9.16676 11.8792 9.08543 12.0835 8.93962 12.238C8.79381 12.3924 8.59453 12.4854 8.3825 12.4978C8.17046 12.5103 7.96168 12.4413 7.7988 12.3049C7.63592 12.1686 7.53125 11.9752 7.50616 11.7643L7.50033 11.6668V8.3335C7.50033 8.11248 7.58812 7.90052 7.7444 7.74424C7.90068 7.58796 8.11265 7.50016 8.33366 7.50016Z" fill="#1B1C22"/>
</svg>
