<svg width="20" height="20" viewBox="0 0 20 20" fill="none" xmlns="http://www.w3.org/2000/svg">
<path fill-rule="evenodd" clip-rule="evenodd" d="M5.83366 3.33317C4.45295 3.33317 3.33366 4.45246 3.33366 5.83317V14.1665C3.33366 15.5472 4.45295 16.6665 5.83366 16.6665H14.167C15.5477 16.6665 16.667 15.5472 16.667 14.1665V5.83317C16.667 4.45246 15.5477 3.33317 14.167 3.33317H5.83366ZM1.66699 5.83317C1.66699 3.53198 3.53247 1.6665 5.83366 1.6665H14.167C16.4682 1.6665 18.3337 3.53198 18.3337 5.83317V14.1665C18.3337 16.4677 16.4682 18.3332 14.167 18.3332H5.83366C3.53247 18.3332 1.66699 16.4677 1.66699 14.1665V5.83317Z" fill="#3147EB"/>
<path fill-rule="evenodd" clip-rule="evenodd" d="M13.0703 7.72539C13.406 8.04016 13.4231 8.56753 13.1083 8.90329L9.98328 12.2366C9.67439 12.5661 9.15925 12.5896 8.8217 12.2895L6.9467 10.6228C6.60271 10.3171 6.57173 9.79035 6.87749 9.44637C7.18326 9.10238 7.70999 9.0714 8.05397 9.37716L9.32243 10.5047L11.8924 7.76339C12.2072 7.42762 12.7345 7.41061 13.0703 7.72539Z" fill="#3147EB"/>
</svg>
