<svg width="24" height="24" viewBox="0 0 24 24" fill="none" xmlns="http://www.w3.org/2000/svg">
<path d="M17.9461 6.06317L17.9464 6.06353C18.1312 6.24827 18.1312 6.57169 17.9464 6.75643L13.0564 11.6464L12.7029 12L13.0564 12.3535L17.9464 17.2435C17.9926 17.2897 18.0292 17.3445 18.0542 17.4048C18.0791 17.4651 18.092 17.5297 18.092 17.595C18.092 17.6602 18.0791 17.7249 18.0542 17.7852C18.0292 17.8455 17.9926 17.9003 17.9464 17.9464C17.9003 17.9926 17.8455 18.0292 17.7852 18.0542C17.7249 18.0791 17.6602 18.092 17.595 18.092C17.5297 18.092 17.4651 18.0791 17.4048 18.0542C17.3445 18.0292 17.2897 17.9926 17.2435 17.9464L12.3535 13.0564L12 12.7029L11.6464 13.0564L6.75643 17.9464C6.71027 17.9926 6.65548 18.0292 6.59518 18.0542C6.53488 18.0791 6.47025 18.092 6.40498 18.092C6.33971 18.092 6.27508 18.0791 6.21478 18.0542C6.15448 18.0292 6.09969 17.9926 6.05353 17.9464C6.00738 17.9003 5.97077 17.8455 5.94579 17.7852C5.92081 17.7249 5.90796 17.6602 5.90796 17.595C5.90796 17.5297 5.92081 17.4651 5.94579 17.4048C5.97077 17.3445 6.00738 17.2897 6.05353 17.2435L10.9435 12.3535L11.2971 12L10.9435 11.6464L6.05353 6.75643C6.00738 6.71027 5.97077 6.65548 5.94579 6.59518C5.92081 6.53488 5.90796 6.47025 5.90796 6.40498C5.90796 6.33971 5.92081 6.27508 5.94579 6.21478C5.97077 6.15448 6.00738 6.09969 6.05353 6.05353C6.09969 6.00738 6.15448 5.97077 6.21478 5.94579C6.27508 5.92081 6.33971 5.90796 6.40498 5.90796C6.47025 5.90796 6.53488 5.92081 6.59518 5.94579C6.65548 5.97077 6.71027 6.00738 6.75643 6.05353L11.6464 10.9435L11.9996 11.2967L12.3532 10.9439L17.2432 6.0639L17.2439 6.06317C17.29 6.017 17.3447 5.98038 17.4049 5.95539C17.4652 5.9304 17.5298 5.91754 17.595 5.91754C17.6602 5.91754 17.7248 5.9304 17.785 5.95539C17.8453 5.98038 17.9 6.017 17.9461 6.06317Z" fill="#1B1C22" stroke="#1B1C22"/>
</svg>
