<svg width="294" height="270" viewBox="0 0 294 270" fill="none" xmlns="http://www.w3.org/2000/svg">
<g clip-path="url(#clip0_103_12892)">
<path d="M273.317 137.737C283.305 127.061 292.683 112.671 287.579 99.1678C282.462 85.6309 265.679 80.4497 250.958 77.8556C236.236 75.2684 219.535 72.4081 211.384 60.3321C203.156 48.14 207.082 31.0398 198.998 18.7658C190.408 5.72045 172.118 3.14005 156.136 1.8362C131.763 -0.150303 106.67 -2.06854 83.3178 4.93541C59.9652 11.9394 38.4964 30.125 35.8385 53.5261C33.1395 77.3163 49.8131 101.434 42.4764 124.303C34.8658 148.038 3.882 161.132 0.799378 185.789C-0.817286 198.698 5.93023 211.06 12.4654 222.44C20.8227 237.001 29.1801 252.483 37.5374 267.044H245.032C242.052 262.996 245.005 257.166 249.163 254.231C253.328 251.302 258.541 249.937 262.541 246.804C273.139 238.509 270.748 222.222 264.775 210.398C258.801 198.575 250.012 187.017 250.738 173.89C251.533 159.541 263.329 148.407 273.317 137.737Z" fill="#EAEDFD"/>
<path d="M17.8101 147.731C40.1968 126.248 38.4842 114.821 33.8946 86.1973C31.6545 72.2304 13.8301 85.9174 7.47306 107.086C0.800893 129.306 5.8975 159.165 17.8101 147.731Z" fill="#EAEDFD"/>
<path d="M90.7584 256.272C87.799 261.521 46.9646 272.744 46.6632 257.282C46.4097 244.264 76.0988 248.141 86.9907 252.708C83.7437 249.541 80.6337 246.278 77.6469 243.028C74.7904 239.916 72.0434 236.714 69.4061 233.43C63.001 237.499 23.6599 238.482 26.8111 223.894C29.332 212.221 53.0956 220.133 64.3848 226.87C60.4185 221.484 56.7194 215.907 53.2942 210.166C48.5675 214.228 6.65756 212.821 10.9458 198.035C14.5354 185.686 41.1007 197.701 50.4719 205.305C46.9646 199.08 43.7518 192.683 40.8336 186.15C34.8601 189.291 -5.48797 182.437 0.62932 168.504C5.69167 156.981 29.5101 171.439 38.3058 180.273C36.7782 176.587 35.3465 172.853 33.9901 169.098C27.6947 166.538 6.83567 131.546 21.4336 127.163C35.23 123.019 38.9977 159.343 36.1 167.596C37.6139 171.849 39.2512 176.047 41.0048 180.205C41.5186 168.6 51.1775 139.266 62.8435 145.745C75.9823 153.042 49.7321 183.208 42.9503 184.724C45.8206 191.161 48.9922 197.455 52.4448 203.592C51.7529 191.482 57.5003 162.592 69.639 167.391C83.4354 172.846 62.1311 205.353 55.2945 208.507C59.4595 215.477 64.0149 222.215 68.9676 228.672C66.6111 218.487 69.9541 185.038 83.2094 189.236C97.821 193.864 77.0784 229.929 71.1597 231.505C73.8656 234.905 76.6742 238.229 79.6061 241.465C82.2366 244.36 84.9836 247.268 87.847 250.094C83.6204 238.584 80.6405 209.674 93.5738 210.664C108.364 211.791 97.7182 249.097 92.1216 254.162C97.4579 259.043 103.164 263.535 109.254 267.112C110.658 267.938 109.144 269.959 107.754 269.14C101.705 265.569 96.0536 261.112 90.7584 256.272Z" fill="#2739BC"/>
<path d="M153.135 268.757C154.574 259.364 156.553 250.053 159.054 240.878C161.547 231.724 164.575 222.72 168.082 213.9C171.603 205.067 175.611 196.424 180.091 188.035C184.557 179.658 189.496 171.535 194.881 163.712C200.251 155.909 206.06 148.414 212.28 141.266C213.068 140.359 213.863 139.464 214.664 138.563C215.712 137.396 213.828 135.846 212.787 137.007C206.382 144.168 200.381 151.69 194.839 159.527C189.311 167.35 184.215 175.481 179.591 183.864C174.974 192.233 170.822 200.855 167.171 209.681C163.493 218.569 160.321 227.662 157.656 236.898C155.012 246.073 152.882 255.398 151.299 264.818C151.1 265.999 150.909 267.187 150.731 268.368C150.484 269.925 152.895 270.307 153.135 268.757Z" fill="#2739BC"/>
<path d="M191.908 168.415C190.121 149.847 195.053 122.337 195.491 104.049C195.977 83.8696 198.807 62.1819 215.925 50.4882C220.392 47.4368 226.084 45.1636 232.4 46.0032C241.271 47.1842 249.019 54.4134 252.026 61.8611C255.034 69.3087 254.239 76.8861 252.807 83.9925C245.806 118.691 223.975 148.953 191.908 168.415Z" fill="#3147EB"/>
<path d="M165.001 218.747C152.712 205.913 140.361 182.505 129.962 168.593C118.488 153.24 107.931 135.396 114.261 116.759C115.912 111.899 118.967 106.902 124.331 103.878C131.866 99.625 142.087 100.547 148.78 104.369C155.472 108.192 159.315 114.316 162.377 120.453C177.359 150.421 178.297 185.659 165.001 218.747Z" fill="#3147EB"/>
<path d="M155.621 245.759C165.294 228.071 186.166 204.616 197.593 188C210.204 169.664 225.74 150.782 247.579 146.25C253.272 145.069 259.56 145.041 264.506 148.1C271.446 152.4 273.768 161.841 271.863 169.76C269.959 177.679 264.698 184.348 259.17 190.348C232.173 219.654 195.051 239.519 155.621 245.759Z" fill="#2739BC"/>
<path d="M148.417 269.693C160.083 266.498 171.393 260.47 181.785 253.883C182.237 254.19 182.901 254.613 183.744 255.077C185.463 256.053 187.936 257.268 190.909 258.381C193.882 259.487 197.369 260.504 201.103 261.221C204.85 261.951 208.85 262.375 212.851 262.532C216.865 262.648 220.879 262.484 224.661 261.999C226.558 261.76 228.38 261.446 230.12 261.084C231.854 260.723 233.491 260.265 235.018 259.822C236.539 259.364 237.923 258.873 239.176 258.388C240.41 257.896 241.492 257.419 242.376 256.982C244.163 256.115 245.191 255.439 245.191 255.439C245.191 255.439 244.211 254.688 242.485 253.719C241.622 253.22 240.567 252.674 239.361 252.108C238.163 251.541 236.793 250.974 235.313 250.408C233.826 249.869 232.217 249.302 230.504 248.838C228.791 248.36 226.99 247.923 225.113 247.568C221.373 246.831 217.372 246.414 213.365 246.278C209.357 246.175 205.329 246.332 201.555 246.831C197.773 247.302 194.239 248.094 191.19 249.008C189.697 249.459 188.327 249.944 187.101 250.422C187.875 249.896 188.656 249.377 189.423 248.851C196.862 243.793 203.959 238.305 210.762 232.488C211.118 232.7 211.529 232.939 212.001 233.212C213.728 234.195 216.201 235.41 219.174 236.509C222.147 237.615 225.627 238.632 229.367 239.356C233.1 240.086 237.108 240.516 241.115 240.667C245.129 240.789 249.144 240.632 252.918 240.134C254.809 239.895 256.638 239.588 258.385 239.212C260.118 238.851 261.762 238.393 263.283 237.95C264.81 237.492 266.194 237.001 267.441 236.523C268.674 236.025 269.756 235.547 270.653 235.11C272.441 234.243 273.469 233.567 273.469 233.567C273.469 233.567 272.482 232.816 270.77 231.847C269.893 231.348 268.845 230.802 267.646 230.236C266.441 229.669 265.077 229.096 263.584 228.536C262.097 227.997 260.495 227.437 258.782 226.966C257.069 226.488 255.261 226.065 253.391 225.703C249.651 224.972 245.65 224.549 241.643 224.42C237.628 224.31 233.607 224.467 229.833 224.959C226.051 225.444 222.51 226.229 219.468 227.143C217.872 227.621 216.427 228.14 215.132 228.638C221.647 222.808 227.86 216.672 233.785 210.241C234.21 210.343 234.696 210.466 235.258 210.589C237.21 210.992 239.937 211.408 243.102 211.565C246.273 211.729 249.897 211.647 253.685 211.204C257.467 210.773 261.412 209.975 265.283 208.903C269.146 207.811 272.928 206.445 276.38 204.834C278.113 204.043 279.757 203.196 281.299 202.315C282.847 201.449 284.272 200.52 285.587 199.64C286.889 198.732 288.081 197.858 289.115 197.018C290.142 196.172 291.04 195.393 291.745 194.711C293.184 193.352 293.958 192.39 293.958 192.39C293.958 192.39 292.8 191.973 290.855 191.557C289.882 191.352 288.718 191.147 287.389 190.97C286.073 190.792 284.601 190.656 283.011 190.56C281.429 190.506 279.716 190.451 277.949 190.519C276.175 190.581 274.325 190.717 272.428 190.929C268.646 191.366 264.701 192.171 260.844 193.25C256.98 194.349 253.213 195.721 249.753 197.332C246.362 198.895 243.293 200.677 240.711 202.425C245.486 196.847 250.062 191.1 254.446 185.195C256.014 184.219 257.905 182.901 259.926 181.229C262.365 179.194 264.968 176.682 267.448 173.801C269.948 170.927 272.298 167.678 274.407 164.272C276.504 160.865 278.353 157.302 279.799 153.779C280.525 152.025 281.155 150.291 281.696 148.605C282.237 146.926 282.655 145.274 283.025 143.731C283.374 142.188 283.642 140.734 283.827 139.423C284.011 138.106 284.135 136.939 284.19 135.949C284.333 133.976 284.231 132.747 284.231 132.747C284.231 132.747 283.1 133.225 281.395 134.235C280.532 134.74 279.538 135.375 278.449 136.14C277.36 136.898 276.175 137.792 274.955 138.809C273.743 139.833 272.462 140.946 271.201 142.195C269.941 143.437 268.674 144.789 267.434 146.222C264.94 149.096 262.598 152.359 260.488 155.759C258.419 159.172 256.569 162.743 255.124 166.258C253.665 169.774 252.603 173.221 251.897 176.307C251.192 179.392 250.842 182.116 250.712 184.089C250.664 184.758 250.651 185.331 250.644 185.816C243.547 195.236 235.916 204.275 227.757 212.78C228.435 211.053 229.182 208.821 229.819 206.241C230.573 203.162 231.169 199.599 231.456 195.817C231.744 192.028 231.696 188.021 231.374 184.041C231.025 180.054 230.394 176.102 229.449 172.422C228.983 170.572 228.463 168.798 227.894 167.125C227.325 165.453 226.688 163.876 226.065 162.422C225.414 160.974 224.77 159.65 224.14 158.483C223.503 157.315 222.9 156.298 222.359 155.466C221.297 153.807 220.496 152.871 220.496 152.871C220.496 152.871 219.859 153.923 219.091 155.745C218.694 156.66 218.276 157.766 217.845 159.022C217.427 160.285 217.016 161.698 216.625 163.227C216.269 164.77 215.892 166.429 215.625 168.176C215.351 169.917 215.132 171.76 214.995 173.651C214.707 177.447 214.755 181.454 215.098 185.434C215.461 189.42 216.105 193.373 217.036 197.059C217.954 200.739 219.16 204.152 220.434 207.06C221.701 209.961 223.051 212.357 224.12 214.016C224.496 214.603 224.839 215.108 225.133 215.497C216.838 223.908 208.021 231.778 198.637 238.926C198.787 238.584 198.959 238.209 199.143 237.779C199.911 235.956 200.822 233.369 201.575 230.29C202.336 227.212 202.932 223.655 203.219 219.866C203.507 216.078 203.466 212.07 203.137 208.077C202.788 204.09 202.151 200.138 201.212 196.445C200.753 194.615 200.233 192.834 199.657 191.161C199.096 189.489 198.445 187.912 197.828 186.458C197.184 185.004 196.54 183.679 195.903 182.519C195.273 181.351 194.67 180.334 194.122 179.495C193.054 177.843 192.252 176.901 192.252 176.901C192.252 176.901 191.622 177.952 190.855 179.781C190.464 180.689 190.046 181.795 189.615 183.058C189.197 184.321 188.779 185.734 188.402 187.27C188.032 188.806 187.662 190.465 187.402 192.212C187.121 193.96 186.902 195.803 186.765 197.694C186.484 201.476 186.532 205.483 186.868 209.47C187.224 213.456 187.868 217.416 188.8 221.102C189.724 224.781 190.923 228.195 192.197 231.089C193.471 233.99 194.814 236.379 195.883 238.045C196.41 238.871 196.876 239.52 197.205 239.963C193.595 242.68 189.909 245.295 186.128 247.78C181.497 250.831 176.661 253.889 171.667 256.709C171.873 256.285 172.112 255.767 172.366 255.152C173.147 253.323 174.058 250.742 174.798 247.67C175.565 244.599 176.168 241.028 176.442 237.253C176.736 233.458 176.695 229.451 176.359 225.464C176.017 221.477 175.387 217.532 174.455 213.845C173.996 211.995 173.462 210.221 172.886 208.548C172.325 206.876 171.674 205.299 171.057 203.845C170.42 202.404 169.769 201.073 169.132 199.906C168.495 198.738 167.893 197.721 167.358 196.895C166.29 195.23 165.488 194.294 165.488 194.294C165.488 194.294 164.858 195.352 164.077 197.168C163.693 198.083 163.269 199.189 162.844 200.445C162.419 201.708 162.015 203.121 161.618 204.657C161.261 206.193 160.885 207.865 160.631 209.599C160.35 211.347 160.131 213.183 159.994 215.074C159.706 218.87 159.761 222.87 160.097 226.857C160.467 230.836 161.09 234.796 162.036 238.489C162.953 242.168 164.166 245.575 165.426 248.476C166.701 251.384 168.05 253.766 169.126 255.439C169.66 256.285 170.133 256.941 170.468 257.391C163.138 261.453 155.473 264.962 147.581 267.119C145.944 267.563 146.732 270.157 148.417 269.693Z" fill="#3147EB"/>
<path d="M97.4025 30.1796C100.65 30.1796 103.287 32.801 103.287 36.0436C103.287 37.1221 104.164 37.9959 105.246 37.9959C106.328 37.9959 107.205 37.1221 107.205 36.0436C107.205 30.6507 102.814 26.2749 97.4025 26.2749C96.3202 26.2749 95.4434 27.1487 95.4434 28.2273C95.4434 29.3058 96.3202 30.1796 97.4025 30.1796Z" fill="#6F7EF1"/>
<path d="M97.4035 22.3632C104.987 22.3632 111.125 28.4866 111.125 36.0366C111.125 37.1152 112.001 37.989 113.084 37.989C114.166 37.989 115.043 37.1152 115.043 36.0366C115.043 26.3226 107.145 18.4517 97.3967 18.4517C96.3143 18.4517 95.4375 19.3254 95.4375 20.404C95.4375 21.4826 96.3212 22.3632 97.4035 22.3632Z" fill="#6F7EF1"/>
<path d="M114.556 45.6346C114.336 44.9997 113.802 44.5151 113.144 44.3649L101.383 41.6889C100.732 41.5456 100.054 41.7367 99.5809 42.1941C99.3069 42.4467 99.2864 42.4671 98.0122 44.8905C93.7856 42.9518 90.3947 39.5591 88.4629 35.3335C90.9496 34.0842 90.9701 34.0842 91.2304 33.7907C91.6963 33.3197 91.8881 32.637 91.7374 31.9953L89.0521 20.4109C88.9014 19.7555 88.415 19.223 87.7779 19.0046C87.3189 18.8408 86.8463 18.7247 86.3668 18.6496C85.8735 18.5336 85.3666 18.4721 84.8597 18.4517C79.8795 18.4517 75.8379 22.4724 75.8379 27.4421C75.8584 44.0509 89.3672 57.5126 106.034 57.5331C111.014 57.5331 115.056 53.5123 115.056 48.5427C115.056 48.0443 115.015 47.546 114.939 47.0545C114.85 46.5767 114.727 46.0988 114.556 45.6346Z" fill="#3147EB"/>
<path d="M210.632 35.6614H186.54C181.546 35.6614 177.463 31.5928 177.463 26.6163C177.463 21.6399 181.546 17.5713 186.54 17.5713H210.632C215.626 17.5713 219.709 21.6399 219.709 26.6163C219.709 31.5928 215.626 35.6614 210.632 35.6614Z" fill="#3147EB"/>
<path d="M212.891 38.4396C212.891 39.5455 211.994 40.4398 210.884 40.4398C209.774 40.4398 208.877 39.5455 208.877 38.4396C208.877 37.3337 209.774 36.4395 210.884 36.4395C211.994 36.4395 212.891 37.3405 212.891 38.4396Z" fill="#3147EB"/>
<path d="M193.322 26.3704C193.322 27.8176 192.143 28.9917 190.691 28.9917C189.239 28.9917 188.061 27.8176 188.061 26.3704C188.061 24.9232 189.239 23.749 190.691 23.749C192.143 23.749 193.322 24.9232 193.322 26.3704Z" fill="white"/>
<path d="M201.22 26.3704C201.22 27.8176 200.042 28.9917 198.589 28.9917C197.137 28.9917 195.959 27.8176 195.959 26.3704C195.959 24.9232 197.137 23.749 198.589 23.749C200.042 23.749 201.22 24.9232 201.22 26.3704Z" fill="white"/>
<path d="M209.118 26.3704C209.118 27.8176 207.94 28.9917 206.488 28.9917C205.036 28.9917 203.857 27.8176 203.857 26.3704C203.857 24.9232 205.036 23.749 206.488 23.749C207.94 23.749 209.118 24.9232 209.118 26.3704Z" fill="white"/>
<path d="M175.518 56.68H199.61C204.604 56.68 208.687 52.6114 208.687 47.6349C208.687 42.6584 204.604 38.5898 199.61 38.5898H175.518C170.524 38.5898 166.441 42.6584 166.441 47.6349C166.441 52.6114 170.524 56.68 175.518 56.68Z" fill="#ADB5F7"/>
<path d="M173.25 59.4582C173.25 60.564 174.147 61.4583 175.257 61.4583C176.367 61.4583 177.264 60.564 177.264 59.4582C177.264 58.3523 176.367 57.458 175.257 57.458C174.147 57.458 173.25 58.3523 173.25 59.4582Z" fill="#ADB5F7"/>
<path d="M182.292 47.471C182.292 48.9182 181.114 50.0923 179.662 50.0923C178.209 50.0923 177.031 48.9182 177.031 47.471C177.031 46.0238 178.209 44.8496 179.662 44.8496C181.114 44.8496 182.292 46.0238 182.292 47.471Z" fill="white"/>
<path d="M190.191 47.471C190.191 48.9182 189.012 50.0923 187.56 50.0923C186.108 50.0923 184.93 48.9182 184.93 47.471C184.93 46.0238 186.108 44.8496 187.56 44.8496C189.012 44.8496 190.191 46.0238 190.191 47.471Z" fill="white"/>
<path d="M198.089 47.471C198.089 48.9182 196.911 50.0923 195.459 50.0923C194.006 50.0923 192.828 48.9182 192.828 47.471C192.828 46.0238 194.006 44.8496 195.459 44.8496C196.911 44.8496 198.089 46.0238 198.089 47.471Z" fill="white"/>
<path d="M140.047 110.663C139.211 112.807 137.814 114.527 136.17 115.64C134.067 117.08 131.559 117.538 129.292 116.664C125.25 115.107 123.51 109.878 125.415 105.004C127.305 100.13 132.121 97.4406 136.17 99.0038C136.19 99.0107 136.218 99.0175 136.238 99.0311C140.225 100.629 141.931 105.817 140.047 110.663Z" fill="#A6AFE2"/>
<path d="M40.9089 103.387C45.1424 109.817 57.466 128.494 64.3779 138.618C59.1375 148.393 48.1633 153.8 48.1633 153.8C48.1633 153.8 42.4913 138.672 39.5046 130.481C36.5179 122.289 34.2025 115.913 34.2915 111.728C34.3052 111.148 34.7779 110.957 35.0999 110.889L34.6478 110.076C34.0997 109.087 34.4902 107.837 35.5109 107.332C36.1617 107.011 36.8946 107.1 37.4632 107.469L36.6275 106.117C35.9356 105.004 36.2096 103.544 37.2646 102.758C38.4428 101.885 40.1074 102.165 40.9089 103.387Z" fill="#FFB8B8"/>
<path d="M44.8398 129.361C44.97 124.276 49.5391 120.262 51.286 119.142L51.8956 120.084C49.6556 121.518 46.066 125.306 45.9633 129.389L44.8398 129.361Z" fill="#F18B8B"/>
<path d="M37.5282 107.458L37.043 107.74L43.6403 119.016L44.1256 118.734L37.5282 107.458Z" fill="#F18B8B"/>
<path d="M35.149 110.953L34.6426 111.195L39.8861 122.082L40.3925 121.84L35.149 110.953Z" fill="#F18B8B"/>
<path d="M156.362 120.029L156.39 120.459L156.643 133.58L157.287 166.9L117.254 156.176L136.537 143.533L136.346 138.515L135.695 121.088C135.462 115.428 139.86 110.636 145.539 110.349C151.218 110.083 156.026 114.432 156.362 120.029Z" fill="#FFB8B8"/>
<path d="M156.364 120.029L156.391 120.459L156.644 133.58C154.576 134.686 152.425 135.642 150.267 136.502C146.794 137.887 143.711 138.864 139.957 138.87C138.752 138.87 137.498 138.857 136.347 138.515L135.696 121.088C135.463 115.428 139.861 110.636 145.54 110.349C151.219 110.083 156.028 114.432 156.364 120.029Z" fill="#F18B8B"/>
<path d="M164.892 113.203C161.926 120.357 159.693 123.142 157.254 122.378C150.232 134.358 140.574 138.87 131.956 136.543C124.962 134.672 125.325 124.521 127.284 115.326C127.75 113.203 128.291 111.114 128.839 109.203C129.75 106.09 131.25 101.81 133.347 97.0106C127.811 79.9103 144.43 76.1626 155.398 88.6209C155.98 88.1908 156.61 87.87 157.261 87.7061C160.158 86.887 163.412 89.0373 165.851 96.9969C170.872 102.485 167.872 106.042 164.892 113.203Z" fill="#1B1C22"/>
<path d="M160.978 96.5395C160.067 94.8602 158.382 92.7781 155.402 88.6208C155.985 88.1907 156.615 87.8699 157.266 87.7061C158.704 90.3957 160.752 94.5871 160.978 96.5395Z" fill="#3B3E63"/>
<path d="M162.595 115.667C159.232 122.419 154.019 119.381 153.553 116.671C150.827 120.63 149.059 121.647 147.847 121.77C146.634 121.9 143.257 119.77 141.805 119.306C140.339 118.821 133.03 120.937 127.31 115.34L127.289 115.326C127.755 113.203 128.296 111.114 128.844 109.203C129.755 106.09 131.255 101.81 133.352 97.0105C136.455 93.0853 145.929 85.5216 157.019 104.991C156.129 108.745 155.498 111.633 154.697 113.558C160.102 107.045 165.959 108.93 162.595 115.667Z" fill="#FFB8B8"/>
<path d="M155.525 114.746C155.772 114.097 156.142 113.497 156.621 112.985C157.08 112.459 157.649 112.015 158.286 111.688C158.923 111.36 159.649 111.135 160.416 111.176C160.793 111.183 161.191 111.285 161.526 111.503C161.862 111.715 162.109 112.104 162.054 112.466C161.848 112.166 161.574 112.043 161.3 112.009C161.026 111.961 160.745 111.995 160.458 112.049C159.889 112.179 159.334 112.404 158.793 112.684C158.252 112.957 157.717 113.292 157.183 113.64C156.649 113.988 156.135 114.391 155.525 114.746Z" fill="#F18B8B"/>
<path d="M156.211 113.995C156.464 113.688 156.848 113.476 157.245 113.374C157.643 113.271 158.074 113.265 158.492 113.367C158.903 113.476 159.307 113.701 159.561 114.07C159.821 114.432 159.876 114.889 159.773 115.272C159.54 114.493 159.02 114.07 158.348 113.913C158.019 113.824 157.67 113.797 157.307 113.811C156.951 113.824 156.588 113.865 156.211 113.995Z" fill="#F18B8B"/>
<path d="M136.625 107.093C133.268 111.476 129.281 113.326 128.774 114.493C128.268 115.66 130.014 117.954 134.351 118.739C136.919 117.121 134.837 114.466 136.625 107.093Z" fill="#F18B8B"/>
<path d="M143.377 110.828C144.215 110.778 144.845 109.905 144.783 108.877C144.721 107.85 143.991 107.058 143.153 107.108C142.314 107.158 141.685 108.032 141.747 109.059C141.809 110.086 142.538 110.879 143.377 110.828Z" fill="#454975"/>
<path d="M133.921 107.865C133.73 108.875 132.901 109.564 132.079 109.407C131.257 109.25 130.743 108.301 130.935 107.291C131.127 106.281 131.955 105.591 132.777 105.748C133.599 105.912 134.113 106.854 133.921 107.865Z" fill="#454975"/>
<path d="M145.141 99.6182C148.169 99.707 149.6 103.27 150.059 105.209C150.286 106.165 149.648 106.424 149.142 105.53C148.511 104.431 146.806 102.444 144.881 101.687C143.511 101.141 143.97 99.5841 145.141 99.6182Z" fill="#454975"/>
<path d="M136.491 98.1369C133.936 97.0925 131.798 98.9015 130.716 100.41C130.147 101.209 130.572 102.001 131.435 101.441C132.497 100.751 133.716 99.8982 135.785 100.096C137.244 100.239 137.58 98.5875 136.491 98.1369Z" fill="#454975"/>
<path d="M108.937 248.223C118.116 251.439 127.583 253.377 143.304 251.903C152.491 222.338 153.963 151.322 154.265 147.363C147.065 150.12 138.174 151.725 134.413 142.994C116.403 163.234 108.834 194.158 108.937 248.223Z" fill="white"/>
<path d="M156.761 139.792C147.027 145.39 140.896 162.394 139.279 188.369C137.663 214.344 135.662 238.079 136.32 245.827C136.984 253.575 139.3 266.088 153.233 267.201C167.167 268.314 187.718 269.03 187.718 269.03C187.718 269.03 171.332 168.798 170.777 162.797C170.222 156.797 168.215 147.383 156.761 139.792Z" fill="#EB7431"/>
<path d="M272.631 251.63C266.219 247.356 247.58 234.912 237.482 227.935C227.632 233.069 222.104 243.957 222.104 243.957C222.104 243.957 237.236 249.746 245.429 252.797C253.622 255.848 259.999 258.21 264.198 258.156C264.781 258.149 264.979 257.678 265.048 257.357L265.863 257.814C266.856 258.374 268.11 257.992 268.624 256.975C268.946 256.333 268.87 255.596 268.507 255.022L269.857 255.869C270.973 256.565 272.432 256.306 273.234 255.261C274.118 254.101 273.844 252.442 272.631 251.63Z" fill="#FFB8B8"/>
<path d="M242.71 232.085L265.645 237.977C266.974 238.318 267.782 239.649 267.481 240.973C267.166 242.366 265.755 243.219 264.371 242.858L250.663 239.301C250.677 239.301 239.819 237.444 242.71 232.085Z" fill="#FFB8B8"/>
<path d="M249.348 247.015C248.478 247.295 247.56 247.465 246.601 247.479L246.58 246.36C250.677 246.291 254.513 242.748 255.965 240.537L256.903 241.151C255.992 242.557 253.129 245.8 249.348 247.015Z" fill="#F18B8B"/>
<path d="M257.258 248.279L256.971 248.76L268.227 255.434L268.514 254.953L257.258 248.279Z" fill="#F18B8B"/>
<path d="M254.101 251.982L253.854 252.484L264.732 257.805L264.979 257.303L254.101 251.982Z" fill="#F18B8B"/>
<path d="M156.76 139.792C169.344 148.673 173.248 155.056 177.03 162.811C180.818 170.566 195.046 195.994 199.273 201.38C203.506 206.773 237.483 227.928 237.483 227.928L219.337 247.889C219.337 247.889 184.551 232.618 177.872 225.43C171.186 218.248 156.417 191.496 156.76 139.792Z" fill="#EB7431"/>
<path d="M136.44 141.41L136.57 144.734C128.973 153.063 123.082 167.733 119.835 186.56C116.142 207.879 114.724 230.55 114.581 249.316C114.498 262.224 102.524 262.061 96.6055 257.658C97.8659 240.666 102.798 199.66 105.47 187.133C108.025 175.126 113.217 140.256 136.44 141.41Z" fill="#EB7431"/>
<path d="M136.455 141.621L136.496 142.57C124.474 147.26 118.062 169.924 118.062 169.924C118.062 169.924 110.575 193.345 103.704 198.752C90.3736 209.258 80.4338 206.473 72.9259 198.527C68.9596 194.329 43.9355 154.53 43.9355 154.53L64.4042 138.352L87.5855 169.378C87.5855 169.378 107.253 155.39 114.665 149.95C121.357 145.028 127.057 141.54 136.455 141.621Z" fill="#EB7431"/>
<path d="M160.387 185.89L159.34 186.296L171.948 218.536L172.995 218.13L160.387 185.89Z" fill="#BB4344"/>
<path d="M109.742 172.613L104.264 189.895L105.335 190.232L110.813 172.95L109.742 172.613Z" fill="#BB4344"/>
<path d="M42.8467 116.296L21.8301 95.3521V113.292C21.8301 116.76 24.6524 119.572 28.1323 119.572H57.5542C61.0342 119.572 63.8565 116.76 63.8565 113.292V95.3521L42.8467 116.296Z" fill="#3147EB"/>
<path d="M63.8643 95.3518V92.3482C63.8643 88.8804 61.042 86.0679 57.5621 86.0679H28.1401C24.6602 86.0679 21.8379 88.8804 21.8379 92.3482V95.3518L42.8545 116.295L63.8643 95.3518Z" fill="#2739BC"/>
<path d="M59.8346 97.8433C64.1097 97.8433 67.5754 94.3897 67.5754 90.1294C67.5754 85.8692 64.1097 82.4155 59.8346 82.4155C55.5594 82.4155 52.0938 85.8692 52.0938 90.1294C52.0938 94.3897 55.5594 97.8433 59.8346 97.8433Z" fill="#EB7431"/>
<path d="M40.4351 105.653H26.6387V108.725H40.4351V105.653Z" fill="#D6DAFB"/>
<path d="M60.2518 133.375L54.5455 110.465C54.2167 109.141 52.8878 108.315 51.552 108.609C50.1545 108.909 49.2845 110.308 49.6339 111.687L53.0864 125.374C53.0796 125.374 54.8469 136.208 60.2518 133.375Z" fill="#FFB8B8"/>
<path d="M137.026 121.19C137.019 121.224 137.019 121.265 137.012 121.299C136.176 127.921 128.257 128.597 127.675 120.507C127.634 120.091 127.62 119.64 127.634 119.176C129.819 119.265 135.08 120.596 137.026 121.19Z" fill="#F18B8B"/>
<path d="M137.026 121.191C137.019 121.225 137.019 121.266 137.012 121.3C136.115 121.525 135.142 121.668 134.108 121.723C131.511 121.853 129.162 121.368 127.675 120.515C127.634 120.098 127.62 119.648 127.634 119.184C129.819 119.266 135.08 120.597 137.026 121.191Z" fill="#F3EDFF"/>
<path d="M166.209 116.76C165.373 118.903 163.976 120.623 162.332 121.736C160.229 123.176 157.722 123.634 155.454 122.76C151.412 121.204 149.673 115.975 151.577 111.1C153.468 106.226 158.283 103.537 162.332 105.1C162.352 105.107 162.38 105.114 162.4 105.127C166.387 106.725 168.093 111.913 166.209 116.76Z" fill="#A6AFE2"/>
<path d="M159.823 105.216C162.906 100.895 159.412 92.5392 155.398 88.6208C155.398 88.6208 153.945 87.0439 153.459 86.6616C154.363 86.6753 154.692 86.8323 155.61 87.5354C156.528 88.2317 168.721 95.5838 164.056 106.854C164.056 106.847 160.069 106.199 159.823 105.216Z" fill="#A6AFE2"/>
<path d="M166.206 116.76C165.371 118.903 163.973 120.623 162.329 121.736C156.678 123.006 152.239 117.36 156.109 110.698C157.808 107.783 160.062 105.994 162.384 105.127C166.384 106.725 168.09 111.913 166.206 116.76Z" fill="#BBC3ED"/>
<path d="M154.739 118.719C151.321 122.125 144.607 122.494 139.298 122.576C138.785 122.583 138.367 122.978 138.333 123.49C138.291 124.078 138.778 124.562 139.367 124.535C147.437 124.091 152.451 123.579 155.876 119.92L154.739 118.719Z" fill="#A6AFE2"/>
<path d="M139.326 125.586C140.472 125.586 141.401 124.66 141.401 123.518C141.401 122.375 140.472 121.449 139.326 121.449C138.179 121.449 137.25 122.375 137.25 123.518C137.25 124.66 138.179 125.586 139.326 125.586Z" fill="#EB7431"/>
<path d="M197.088 191.141V238.537C197.088 243.22 193.279 247.022 188.573 247.022H104.171C99.4718 247.022 95.6699 243.22 95.6699 238.537V191.141C95.6699 186.458 99.4787 182.655 104.171 182.655H188.573C193.279 182.662 197.088 186.458 197.088 191.141Z" fill="#ADB5F7"/>
<path d="M168.618 247.022H138.045L136.963 211.381H155.787L168.618 247.022Z" fill="#2739BC"/>
<path d="M178.347 262.047H162.386L155.789 211.381H136.964L130.368 262.047H114.406C113.084 262.047 112.016 263.112 112.016 264.429V266.771H180.724V264.429C180.731 263.112 179.662 262.047 178.347 262.047ZM153.275 236.775C153.275 240.571 150.185 243.65 146.377 243.65C142.568 243.65 139.478 240.571 139.478 236.775V233.908C139.478 230.113 142.568 227.034 146.377 227.034C150.185 227.034 153.275 230.113 153.275 233.908V236.775Z" fill="#3147EB"/>
<path d="M146.294 235.745C130.395 235.745 135.943 255.33 135.943 266.307" stroke="#F3EDFF" stroke-width="2.1742" stroke-miterlimit="10"/>
<path d="M262.467 270H20.8101C19.899 270 19.1523 269.256 19.1523 268.355C19.1523 267.447 19.899 266.703 20.8101 266.703H262.467C263.378 266.703 264.125 267.447 264.125 268.355C264.118 269.256 263.378 270 262.467 270Z" fill="#3147EB"/>
</g>
<defs>
<clipPath id="clip0_103_12892">
<rect width="294" height="270" fill="white"/>
</clipPath>
</defs>
</svg>
