<svg width="20" height="20" viewBox="0 0 20 20" fill="none" xmlns="http://www.w3.org/2000/svg">
<path fill-rule="evenodd" clip-rule="evenodd" d="M9.99967 0.833502C11.2037 0.832084 12.3961 1.06855 13.5084 1.52931C14.6208 1.99007 15.6311 2.66603 16.4814 3.51838C17.3338 4.36873 18.0097 5.37909 18.4705 6.49144C18.9313 7.60377 19.1677 8.79618 19.1663 10.0002C19.1678 11.2042 18.9313 12.3966 18.4705 13.5089C18.0098 14.6213 17.3338 15.6316 16.4814 16.4819C15.6311 17.3343 14.6208 18.0103 13.5084 18.471C12.3961 18.9318 11.2037 19.1683 9.99966 19.1668C8.79568 19.1682 7.60328 18.9318 6.49095 18.471C5.37861 18.0102 4.36827 17.3343 3.51793 16.4819C2.66556 15.6316 1.98958 14.6213 1.52882 13.5089C1.06806 12.3966 0.831594 11.2041 0.833014 10.0002C0.831622 8.79617 1.06809 7.60377 1.52885 6.49144C1.98961 5.3791 2.66558 4.36875 3.51793 3.51841C4.36826 2.66607 5.37861 1.9901 6.49095 1.52934C7.60329 1.06858 8.79569 0.832109 9.99967 0.833502ZM12.8706 3.0691C11.9608 2.69224 10.9855 2.49889 10.0008 2.50017H9.99862C9.01386 2.49891 8.03856 2.69227 7.12877 3.06913C6.21898 3.44599 5.39263 3.99893 4.6972 4.69616L4.69567 4.69769C3.99844 5.39311 3.44551 6.21947 3.06864 7.12926C2.69178 8.03905 2.49843 9.01435 2.49968 9.99911V10.0012C2.4984 10.986 2.69175 11.9613 3.06861 12.8711C3.44547 13.7809 3.99841 14.6072 4.69566 15.3026L4.6972 15.3042C5.39263 16.0014 6.21898 16.5543 7.12877 16.9312C8.03856 17.3081 9.01386 17.5014 9.99862 17.5002H10.0008C10.9855 17.5014 11.9608 17.3081 12.8706 16.9312C13.7804 16.5544 14.6067 16.0014 15.3021 15.3042L15.3037 15.3026C16.0009 14.6072 16.5539 13.7809 16.9307 12.8711C17.3076 11.9613 17.501 10.986 17.4997 10.0012V9.99911C17.5009 9.01435 17.3076 8.03905 16.9307 7.12926C16.5539 6.21947 16.0009 5.39311 15.3037 4.69769L15.3021 4.69615C14.6067 3.9989 13.7804 3.44596 12.8706 3.0691Z" fill="#00C48C"/>
<path fill-rule="evenodd" clip-rule="evenodd" d="M14.7556 6.91107C15.081 7.23651 15.081 7.76414 14.7556 8.08958L9.7556 13.0896C9.43016 13.415 8.90252 13.415 8.57709 13.0896L6.07709 10.5896C5.75165 10.2641 5.75165 9.73651 6.07709 9.41107C6.40252 9.08563 6.93016 9.08563 7.2556 9.41107L9.16634 11.3218L13.5771 6.91107C13.9025 6.58563 14.4302 6.58563 14.7556 6.91107Z" fill="#00C48C"/>
</svg>
