<svg width="20" height="21" viewBox="0 0 20 21" fill="none" xmlns="http://www.w3.org/2000/svg">
<path d="M10.0628 13.3959C9.66005 13.4098 9.27477 13.344 8.90699 13.1984C8.53921 13.0529 8.21616 12.8409 7.93783 12.5626C7.65949 12.2842 7.44755 11.9717 7.30199 11.6251C7.15644 11.2784 7.08366 10.9104 7.08366 10.5209C7.08366 10.382 7.0906 10.2467 7.10449 10.1151C7.11838 9.98342 7.14616 9.8548 7.18783 9.72925C7.24338 9.56258 7.24005 9.39592 7.17783 9.22925C7.1156 9.06258 7.00783 8.94453 6.85449 8.87508C6.68783 8.80564 6.52477 8.80564 6.36533 8.87508C6.20588 8.94453 6.0981 9.06258 6.04199 9.22925C5.97255 9.43758 5.9206 9.64592 5.88616 9.85425C5.85172 10.0626 5.83422 10.2779 5.83366 10.5001C5.83366 11.0556 5.94144 11.587 6.15699 12.0942C6.37255 12.6015 6.67449 13.0492 7.06283 13.4376C7.43783 13.8265 7.87894 14.1251 8.38616 14.3334C8.89338 14.5417 9.41755 14.6529 9.95866 14.6667L9.60449 15.0209C9.47949 15.1459 9.41699 15.2917 9.41699 15.4584C9.41699 15.6251 9.47949 15.7709 9.60449 15.8959C9.72949 16.0209 9.87533 16.0834 10.042 16.0834C10.2087 16.0834 10.3545 16.0209 10.4795 15.8959L11.8128 14.5626C11.9795 14.3959 12.0628 14.2015 12.0628 13.9792C12.0628 13.757 11.9795 13.5626 11.8128 13.3959L10.4795 12.0626C10.3545 11.9376 10.2087 11.8751 10.042 11.8751C9.87533 11.8751 9.72949 11.9376 9.60449 12.0626C9.47949 12.1876 9.41699 12.3334 9.41699 12.5001C9.41699 12.6667 9.47949 12.8126 9.60449 12.9376L10.0628 13.3959ZM9.91699 7.58342C10.3198 7.58342 10.7087 7.65647 11.0837 7.80258C11.4587 7.94869 11.785 8.16036 12.0628 8.43758C12.3406 8.7148 12.5525 9.0273 12.6987 9.37508C12.8448 9.72286 12.9175 10.0909 12.917 10.4792C12.917 10.6181 12.91 10.7534 12.8962 10.8851C12.8823 11.0167 12.8545 11.1454 12.8128 11.2709C12.7573 11.4376 12.7609 11.6076 12.8237 11.7809C12.8864 11.9542 12.9939 12.0759 13.1462 12.1459C13.3128 12.2154 13.4762 12.2154 13.6362 12.1459C13.7962 12.0765 13.9037 11.9584 13.9587 11.7917C14.0281 11.5834 14.0803 11.3715 14.1153 11.1559C14.1503 10.9404 14.1675 10.7217 14.167 10.5001C14.167 9.94453 14.0662 9.41342 13.8645 8.90675C13.6628 8.40008 13.3609 7.94508 12.9587 7.54175C12.5698 7.15286 12.122 6.85786 11.6153 6.65675C11.1087 6.45564 10.5842 6.3548 10.042 6.35425L10.417 5.97925C10.5281 5.85425 10.5837 5.70842 10.5837 5.54175C10.5837 5.37508 10.5212 5.22925 10.3962 5.10425C10.2712 4.97925 10.1253 4.91675 9.95866 4.91675C9.79199 4.91675 9.64616 4.97925 9.52116 5.10425L8.18783 6.43758C8.02116 6.60425 7.93783 6.79869 7.93783 7.02091C7.93783 7.24314 8.02116 7.43758 8.18783 7.60425L9.52116 8.93758C9.64616 9.06258 9.79199 9.12508 9.95866 9.12508C10.1253 9.12508 10.2712 9.06258 10.3962 8.93758C10.5212 8.81258 10.5837 8.66675 10.5837 8.50008C10.5837 8.33342 10.5212 8.18758 10.3962 8.06258L9.91699 7.58342ZM10.0003 18.8334C8.84755 18.8334 7.76422 18.6145 6.75033 18.1767C5.73644 17.739 4.85449 17.1454 4.10449 16.3959C3.35449 15.6465 2.76088 14.7645 2.32366 13.7501C1.88644 12.7356 1.66755 11.6523 1.66699 10.5001C1.66644 9.34786 1.88533 8.26453 2.32366 7.25008C2.76199 6.23564 3.3556 5.35369 4.10449 4.60425C4.85338 3.8548 5.73533 3.26119 6.75033 2.82341C7.76533 2.38564 8.84866 2.16675 10.0003 2.16675C11.152 2.16675 12.2353 2.38564 13.2503 2.82341C14.2653 3.26119 15.1473 3.8548 15.8962 4.60425C16.6451 5.35369 17.2389 6.23564 17.6778 7.25008C18.1167 8.26453 18.3353 9.34786 18.3337 10.5001C18.332 11.6523 18.1131 12.7356 17.677 13.7501C17.2409 14.7645 16.6473 15.6465 15.8962 16.3959C15.1451 17.1454 14.2631 17.7392 13.2503 18.1776C12.2375 18.6159 11.1542 18.8345 10.0003 18.8334ZM10.0003 17.1667C11.8614 17.1667 13.4378 16.5209 14.7295 15.2292C16.0212 13.9376 16.667 12.3612 16.667 10.5001C16.667 8.63897 16.0212 7.06258 14.7295 5.77091C13.4378 4.47925 11.8614 3.83341 10.0003 3.83341C8.13921 3.83341 6.56283 4.47925 5.27116 5.77091C3.97949 7.06258 3.33366 8.63897 3.33366 10.5001C3.33366 12.3612 3.97949 13.9376 5.27116 15.2292C6.56283 16.5209 8.13921 17.1667 10.0003 17.1667Z" fill="#3147EB"/>
</svg>
