<svg width="40" height="40" viewBox="0 0 40 40" fill="none" xmlns="http://www.w3.org/2000/svg">
<g clip-path="url(#clip0_36_1849)">
<path d="M0.00732422 18.4022C0.183366 17.9803 0.154199 17.5241 0.220866 17.0855C1.42816 9.15532 7.10732 2.75636 14.9229 0.735529C26.2052 -2.18322 36.9136 4.91678 39.3698 15.4126C41.7323 25.5095 36.1927 35.5366 26.4177 38.9282C24.8792 39.4616 23.2969 39.7897 21.6729 39.9147C21.6104 39.9199 21.5407 39.9064 21.5198 39.9928C20.4542 39.9928 19.3896 39.9928 18.324 39.9928C18.2896 39.8918 18.2 39.9199 18.1282 39.9126C17.3271 39.8324 16.5344 39.7105 15.7459 39.5449C7.71253 37.8595 1.37607 31.1147 0.225033 23.0314C0.160449 22.5793 0.188574 22.1095 0.00732422 21.6762C0.00732422 20.5845 0.00732422 19.4939 0.00732422 18.4022ZM4.44274 10.2012C4.40316 10.2512 4.35837 10.298 4.32503 10.3522C1.8917 14.3501 1.05628 18.6595 1.86774 23.2668C2.71462 28.0772 5.14274 31.9522 9.05837 34.8324C13.5729 38.1522 18.6334 39.1355 24.1032 37.9553C26.1448 37.5147 28.0552 36.7241 29.799 35.5574C29.9646 35.4574 30.1344 35.3637 30.2948 35.2553C31.6667 34.3241 32.899 33.2324 33.9594 31.9584C37.7229 27.4314 39.0698 22.2459 37.998 16.4782C37.2229 12.3064 35.1532 8.81886 31.9125 6.07824C27.4052 2.2647 22.1948 0.940737 16.4104 1.99699C12.7969 2.6574 9.68441 4.35428 7.06357 6.93449C6.06357 7.9199 5.1542 8.9824 4.44274 10.2012Z" fill="#141C5E"/>
<path d="M4.44271 10.2012C5.15521 8.98243 6.06354 7.91993 7.06459 6.93452C9.68542 4.35431 12.7979 2.65639 16.4115 1.99702C22.1958 0.939726 27.4063 2.26473 31.9135 6.07827C35.1542 8.81993 37.224 12.3064 37.999 16.4783C39.0708 22.246 37.724 27.4314 33.9604 31.9585C32.901 33.2335 31.6677 34.3241 30.2958 35.2554C30.1365 35.3637 29.9656 35.4574 29.8 35.5574C28.5271 35.5658 27.2615 35.497 26.0135 35.2251C26.0583 35.2012 26.1 35.1731 26.1469 35.1533C28.1438 34.3158 29.9542 33.1772 31.451 31.6137C35.9031 26.9637 37.3458 21.4856 35.5594 15.3022C33.3281 7.57723 25.6594 2.75535 17.6219 3.89598C13.5354 4.47618 10.175 6.40535 7.48646 9.5241C6.33334 10.8616 5.475 12.3772 4.775 13.9908C4.74584 13.9054 4.70209 13.8231 4.69063 13.7356C4.53854 12.5626 4.40417 11.3876 4.44271 10.2012Z" fill="#EB7431"/>
<path d="M4.44292 10.2012C4.40438 11.3876 4.53876 12.5626 4.69188 13.7355C4.70334 13.823 4.74709 13.9053 4.77626 13.9908C4.75438 14.0647 4.73563 14.1397 4.70855 14.2116C3.60022 17.1335 3.31376 20.1428 3.9523 23.1939C5.03563 28.3751 7.97001 32.2001 12.6721 34.6293C15.8158 36.2533 19.169 36.6762 22.6502 36.1491C23.8054 35.9741 24.9158 35.6168 26.0138 35.2251C27.2617 35.497 28.5273 35.5658 29.8002 35.5574C28.0565 36.7251 26.146 37.5158 24.1044 37.9553C18.6356 39.1355 13.5752 38.1522 9.05959 34.8324C5.14397 31.9533 2.71584 28.0772 1.86897 23.2668C1.05751 18.6595 1.89292 14.3491 4.32626 10.3522C4.35855 10.2991 4.40334 10.2522 4.44292 10.2012Z" fill="#3147EB"/>
<path d="M26.0124 35.2261C24.9145 35.6188 23.8041 35.9761 22.6488 36.15C19.1676 36.6771 15.8145 36.2542 12.6707 34.6302C7.96863 32.2011 5.03426 28.375 3.95092 23.1948C3.31238 20.1438 3.59988 17.1344 4.70717 14.2125C4.73426 14.1407 4.75197 14.0657 4.77488 13.9917C5.47488 12.3792 6.33426 10.8625 7.48634 9.52503C10.1738 6.40628 13.5353 4.47607 17.6218 3.8969C25.6593 2.75628 33.328 7.57815 35.5593 15.3032C37.3457 21.4865 35.903 26.9646 31.4509 31.6146C29.954 33.1782 28.1436 34.3167 26.1468 35.1542C26.0999 35.1729 26.0572 35.2011 26.0124 35.2261ZM5.53322 16.9813C5.52072 17.0125 5.50822 17.0448 5.49572 17.0761C5.48113 17.2032 5.46655 17.3313 5.45197 17.4584C5.43217 17.5042 5.40092 17.549 5.39363 17.5969C5.00092 20.1417 5.20509 22.6271 6.07488 25.0615C8.1478 30.8636 13.8676 34.8771 20.0009 34.8C20.853 34.7896 21.7093 34.7792 22.5415 34.549C22.6426 34.5386 22.7436 34.5282 22.8447 34.5177C22.9124 34.5344 22.9707 34.5198 23.0176 34.4667C23.6374 34.3865 24.2238 34.1834 24.8124 33.9875C30.1843 32.2011 34.2811 26.9386 34.6791 21.3084C34.953 17.4354 33.9926 13.9011 31.5218 10.8938C27.7353 6.28648 22.8176 4.48753 16.9676 5.60107C12.8311 6.38857 9.65613 8.73023 7.40405 12.2907C6.48947 13.7334 5.84572 15.2938 5.53322 16.9813Z" fill="#141C5E"/>
<path d="M22.8439 34.5167C22.7428 34.5271 22.6418 34.5375 22.5408 34.5479C22.4772 34.3656 22.297 34.3635 22.1574 34.3188C21.1949 34.0083 20.2585 33.6323 19.3428 33.2094C16.822 32.0448 14.5533 30.4938 12.522 28.6073C11.1053 27.2917 9.87617 25.8073 8.79284 24.2063C7.46367 22.2427 6.44492 20.1271 5.68971 17.8802C5.63867 17.7281 5.64284 17.5354 5.45117 17.4594C5.46576 17.3323 5.48034 17.2042 5.49492 17.0771C5.50742 17.0458 5.51992 17.0135 5.53242 16.9823C5.84388 15.2948 6.48867 13.7344 7.40221 12.2906C9.65534 8.73021 12.8293 6.38854 16.9658 5.60104C22.8158 4.4875 27.7335 6.28646 31.5199 10.8938C33.9918 13.901 34.9512 17.4354 34.6772 21.3083C34.2793 26.9385 30.1824 32.201 24.8105 33.9875C24.222 34.1833 23.6345 34.3865 23.0158 34.4667C22.9501 34.45 22.8897 34.4583 22.8439 34.5167ZM10.3783 20C10.3783 20.9344 10.3772 21.8698 10.3793 22.8042C10.3803 23.2844 10.4126 23.3167 10.8835 23.3177C12.6366 23.3188 14.3897 23.3177 16.1418 23.3188C16.6345 23.3188 16.6824 23.3656 16.6824 23.849C16.6835 25.6146 16.6908 27.3813 16.6762 29.1469C16.673 29.5031 16.7918 29.6302 17.146 29.6281C19.0158 29.6177 20.8855 29.6167 22.7553 29.6292C23.1262 29.6313 23.2501 29.5063 23.246 29.1281C23.2283 27.375 23.2376 25.6229 23.2387 23.8698C23.2387 23.3594 23.2793 23.3198 23.7991 23.3198C25.5522 23.3188 27.3053 23.3094 29.0574 23.3271C29.446 23.3313 29.5501 23.1865 29.548 22.826C29.5376 20.9698 29.5376 19.1125 29.548 17.2563C29.5501 16.8958 29.446 16.75 29.0574 16.7542C27.3043 16.7719 25.5522 16.7625 23.7991 16.7615C23.2793 16.7615 23.2387 16.7219 23.2387 16.2115C23.2376 14.4458 23.2314 12.6792 23.2439 10.9135C23.246 10.575 23.1303 10.451 22.7939 10.4531C20.9116 10.4615 19.0283 10.4625 17.146 10.4521C16.7928 10.45 16.672 10.575 16.6751 10.9323C16.6897 12.6979 16.6824 14.4635 16.6814 16.2302C16.6814 16.7135 16.6324 16.7604 16.1408 16.7604C14.3876 16.7615 12.6345 16.7604 10.8824 16.7615C10.4116 16.7615 10.3783 16.7948 10.3772 17.274C10.3762 18.1823 10.3783 19.0906 10.3783 20Z" fill="#FEFEFE"/>
<path d="M22.8438 34.5167C22.8896 34.4584 22.95 34.45 23.0167 34.4657C22.9698 34.5188 22.9115 34.5334 22.8438 34.5167Z" fill="#D3DBEF"/>
<path d="M5.53359 16.9814C5.52109 17.0127 5.50859 17.045 5.49609 17.0762C5.50859 17.045 5.52109 17.0137 5.53359 16.9814Z" fill="#D3DBEF"/>
<path d="M10.3783 20.0002C10.3783 19.0908 10.3773 18.1824 10.3794 17.2731C10.3804 16.7939 10.4127 16.7606 10.8846 16.7606C12.6377 16.7595 14.3908 16.7606 16.1429 16.7595C16.6346 16.7595 16.6835 16.7116 16.6835 16.2293C16.6846 14.4637 16.6919 12.697 16.6773 10.9314C16.6742 10.5741 16.794 10.4491 17.1481 10.4512C19.0304 10.4616 20.9138 10.4606 22.796 10.4522C23.1315 10.4512 23.2481 10.5752 23.246 10.9127C23.2335 12.6783 23.2398 14.4439 23.2408 16.2106C23.2408 16.721 23.2815 16.7595 23.8013 16.7606C25.5544 16.7616 27.3075 16.771 29.0596 16.7533C29.4481 16.7491 29.5523 16.8949 29.5502 17.2554C29.5398 19.1116 29.5398 20.9689 29.5502 22.8252C29.5523 23.1856 29.4471 23.3304 29.0596 23.3262C27.3065 23.3085 25.5544 23.3179 23.8013 23.3189C23.2815 23.3189 23.2419 23.3585 23.2408 23.8689C23.2398 25.622 23.2304 27.3752 23.2481 29.1272C23.2523 29.5054 23.1283 29.6304 22.7575 29.6283C20.8877 29.6168 19.0179 29.6179 17.1481 29.6272C16.794 29.6293 16.6752 29.5022 16.6783 29.146C16.6929 27.3804 16.6856 25.6147 16.6846 23.8481C16.6846 23.3658 16.6356 23.3189 16.144 23.3179C14.3908 23.3168 12.6377 23.3179 10.8856 23.3168C10.4148 23.3168 10.3825 23.2835 10.3815 22.8033C10.3763 21.8699 10.3783 20.9356 10.3783 20.0002Z" fill="#6F7EF1"/>
</g>
<defs>
<clipPath id="clip0_36_1849">
<rect width="40" height="40" fill="white"/>
</clipPath>
</defs>
</svg>
