<svg width="16" height="16" viewBox="0 0 16 16" fill="none" xmlns="http://www.w3.org/2000/svg">
<path d="M5.49967 3.8335C5.49967 3.17045 5.76307 2.53457 6.23191 2.06573C6.70075 1.59689 7.33663 1.3335 7.99967 1.3335C8.66272 1.3335 9.2986 1.59689 9.76744 2.06573C10.2363 2.53457 10.4997 3.17045 10.4997 3.8335M5.49967 3.8335H10.4997M5.49967 3.8335H2.99967M10.4997 3.8335H12.9997M2.99967 3.8335H1.33301M2.99967 3.8335V13.0002C2.99967 13.4422 3.17527 13.8661 3.48783 14.1787C3.80039 14.4912 4.22431 14.6668 4.66634 14.6668H11.333C11.775 14.6668 12.199 14.4912 12.5115 14.1787C12.8241 13.8661 12.9997 13.4422 12.9997 13.0002V3.8335M12.9997 3.8335H14.6663" stroke="#5C5C5E" stroke-width="2" stroke-linecap="round" stroke-linejoin="round"/>
</svg>
