<svg width="20" height="20" viewBox="0 0 20 20" fill="none" xmlns="http://www.w3.org/2000/svg">
<path fill-rule="evenodd" clip-rule="evenodd" d="M9.41573 7.05808C9.56539 6.89503 9.76856 6.80347 9.98031 6.80347C10.1921 6.80347 10.3951 6.89503 10.5449 7.05808L15.0627 11.9772C15.139 12.0574 15.1998 12.1534 15.2416 12.2595C15.2835 12.3656 15.3056 12.4797 15.3064 12.5951C15.3074 12.7106 15.2872 12.8251 15.247 12.9319C15.2068 13.0388 15.1476 13.1359 15.0726 13.2176C14.9976 13.2992 14.9084 13.3638 14.8102 13.4075C14.7121 13.4512 14.607 13.4732 14.501 13.4722C14.3949 13.4712 14.2901 13.4472 14.1927 13.4017C14.0952 13.3561 14.0071 13.2898 13.9335 13.2068L9.98031 8.90245L6.02727 13.2068C5.87657 13.3651 5.67484 13.4528 5.46553 13.4509C5.25613 13.4489 5.05576 13.3574 4.90769 13.1962C4.75963 13.035 4.67569 12.8169 4.67386 12.5889C4.67203 12.3609 4.75253 12.1412 4.89803 11.9772L9.41573 7.05808Z" fill="#5C5C5E"/>
</svg>
