<svg width="20" height="20" viewBox="0 0 20 20" fill="none" xmlns="http://www.w3.org/2000/svg">
<path fill-rule="evenodd" clip-rule="evenodd" d="M10.5893 13.0893C10.433 13.2455 10.2211 13.3333 10.0001 13.3333C9.77915 13.3333 9.56723 13.2455 9.41096 13.0893L4.69679 8.37512C4.6172 8.29825 4.55371 8.2063 4.51004 8.10463C4.46636 8.00296 4.44338 7.89361 4.44241 7.78296C4.44145 7.67231 4.46254 7.56258 4.50444 7.46016C4.54634 7.35775 4.60822 7.2647 4.68646 7.18646C4.7647 7.10822 4.85775 7.04634 4.96016 7.00444C5.06257 6.96254 5.17231 6.94145 5.28296 6.94241C5.39361 6.94338 5.50296 6.96636 5.60463 7.01004C5.7063 7.05371 5.79825 7.1172 5.87512 7.19679L10.0001 11.3218L14.1251 7.19679C14.2823 7.04499 14.4928 6.961 14.7113 6.96289C14.9298 6.96479 15.1388 7.05243 15.2933 7.20694C15.4478 7.36145 15.5355 7.57046 15.5374 7.78896C15.5392 8.00745 15.4553 8.21795 15.3035 8.37512L10.5893 13.0893Z" fill="#5C5C5E"/>
</svg>
