<svg width="21" height="20" viewBox="0 0 21 20" fill="none" xmlns="http://www.w3.org/2000/svg">
<path fill-rule="evenodd" clip-rule="evenodd" d="M19.7 10.2178C19.7 9.53826 19.639 8.88486 19.5258 8.25758H10.5V11.9646H15.6576C15.4354 13.1625 14.7602 14.1775 13.7453 14.857V17.2616H16.8424C18.6545 15.5932 19.7 13.1364 19.7 10.2178Z" fill="#4285F4"/>
<path fill-rule="evenodd" clip-rule="evenodd" d="M10.4999 19.5832C13.0874 19.5832 15.2567 18.7251 16.8424 17.2614L13.7452 14.8569C12.887 15.4319 11.7893 15.7717 10.4999 15.7717C8.00391 15.7717 5.89122 14.0859 5.13762 11.8207H1.93591V14.3037C3.51281 17.4357 6.75372 19.5832 10.4999 19.5832Z" fill="#34A853"/>
<path fill-rule="evenodd" clip-rule="evenodd" d="M5.13765 11.8209C4.94598 11.2459 4.83708 10.6317 4.83708 10.0001C4.83708 9.36843 4.94598 8.75423 5.13765 8.17923V5.69627H1.93594C1.28689 6.99002 0.916626 8.45366 0.916626 10.0001C0.916626 11.5465 1.28689 13.0101 1.93594 14.3039L5.13765 11.8209Z" fill="#FBBC05"/>
<path fill-rule="evenodd" clip-rule="evenodd" d="M10.4999 4.22822C11.9069 4.22822 13.1702 4.71175 14.1634 5.66137L16.912 2.91269C15.2524 1.36629 13.0831 0.416672 10.4999 0.416672C6.75372 0.416672 3.51281 2.56421 1.93591 5.69622L5.13762 8.17917C5.89122 5.91402 8.00391 4.22822 10.4999 4.22822Z" fill="#EA4335"/>
</svg>
