<svg width="20" height="20" viewBox="0 0 20 20" fill="none" xmlns="http://www.w3.org/2000/svg">
<g clip-path="url(#clip0_23_672)">
<path d="M10 5.00001C13.1584 5.00001 15.975 6.77501 17.35 9.58334C16.8584 10.6 16.1667 11.475 15.3417 12.1833L16.5167 13.3583C17.675 12.3333 18.5917 11.05 19.1667 9.58334C17.725 5.92501 14.1667 3.33334 10 3.33334C8.94171 3.33334 7.92504 3.50001 6.96671 3.80834L8.34171 5.18334C8.88337 5.075 9.43337 5.00001 10 5.00001ZM9.10837 5.95L10.8334 7.675C11.3084 7.88334 11.6917 8.26667 11.9 8.74167L13.625 10.4667C13.6917 10.1833 13.7417 9.88334 13.7417 9.57501C13.75 7.50834 12.0667 5.83334 10 5.83334C9.69171 5.83334 9.40004 5.875 9.10837 5.95ZM1.67504 3.225L3.90837 5.45834C2.55004 6.52501 1.47504 7.94167 0.833374 9.58334C2.27504 13.2417 5.83337 15.8333 10 15.8333C11.2667 15.8333 12.4834 15.5917 13.6 15.15L16.45 18L17.625 16.825L2.85004 2.04167L1.67504 3.225ZM7.92504 9.47501L10.1 11.65C10.0667 11.6583 10.0334 11.6667 10 11.6667C8.85004 11.6667 7.91671 10.7333 7.91671 9.58334C7.91671 9.54167 7.92504 9.51667 7.92504 9.47501ZM5.09171 6.64167L6.55004 8.10001C6.35837 8.55834 6.25004 9.05834 6.25004 9.58334C6.25004 11.65 7.93337 13.3333 10 13.3333C10.525 13.3333 11.025 13.225 11.475 13.0333L12.2917 13.85C11.5584 14.05 10.7917 14.1667 10 14.1667C6.84171 14.1667 4.02504 12.3917 2.65004 9.58334C3.23337 8.39167 4.08337 7.40834 5.09171 6.64167Z" fill="#898B8D"/>
</g>
<defs>
<clipPath id="clip0_23_672">
<rect width="20" height="20" fill="white"/>
</clipPath>
</defs>
</svg>
