<svg width="40" height="40" viewBox="0 0 40 40" fill="none" xmlns="http://www.w3.org/2000/svg">
<g clip-path="url(#clip0_36_1878)">
<path d="M12.5563 39.9926C12.2334 39.8062 11.8625 39.8489 11.5157 39.7843C10.4271 39.5822 9.37399 39.2739 8.3667 38.8166C7.98128 38.6416 7.6094 38.6166 7.1969 38.7166C5.85003 39.0437 4.49795 39.3541 3.14482 39.6551C1.85211 39.9426 0.846904 38.9124 1.14274 37.6166C1.4167 36.4145 1.68024 35.2093 1.9719 34.0114C2.07711 33.578 2.02086 33.2072 1.8094 32.8187C-1.07185 27.5384 -0.309346 21.1187 3.74274 16.703C5.98649 14.2582 8.78232 12.8353 12.0594 12.3687C12.3188 12.3322 12.3865 12.2489 12.4229 11.9989C13.2907 6.06865 17.5865 1.50303 23.4427 0.266569C23.8917 0.171777 24.3594 0.181152 24.7927 0.00927734C25.65 0.00927734 26.5073 0.00927734 27.3646 0.00927734C27.9417 0.113444 28.5219 0.205111 29.0959 0.324902C34.5136 1.45303 38.8396 5.94574 39.7709 11.3853C39.8396 11.7843 39.8157 12.203 39.9917 12.5832C39.9917 13.4687 39.9917 14.353 39.9917 15.2384C39.9323 15.2551 39.9198 15.3009 39.9146 15.3551C39.7104 17.2645 39.1354 19.0551 38.1948 20.728C38.025 21.0291 38.0021 21.3374 38.0792 21.6676C38.3667 22.9062 38.6511 24.1457 38.9334 25.3853C39.2261 26.6707 38.2573 27.6947 36.9761 27.4239C35.5573 27.1228 34.1459 26.7874 32.7344 26.4551C32.4146 26.3801 32.1271 26.4103 31.8292 26.5437C30.6886 27.0541 29.5063 27.4457 28.2636 27.5853C27.8011 27.6374 27.599 27.8072 27.6146 28.2582C27.6146 28.2707 27.6115 28.2843 27.6094 28.2968C26.7323 34.0874 22.1479 38.7739 16.3979 39.777C16 39.8468 15.5844 39.8239 15.2052 39.9957C14.3229 39.9926 13.4396 39.9926 12.5563 39.9926ZM15.0615 22.2509C14.7229 21.7322 14.3844 21.2145 14.0459 20.6957C13.6636 19.9437 13.2938 19.1853 13.0292 18.3822C12.5875 17.0426 12.3104 15.6728 12.3146 14.2562C12.3157 13.9884 12.2709 13.9009 11.9677 13.9603C11.2927 14.0916 10.6209 14.2207 9.97607 14.4687C9.95003 14.4707 9.92295 14.4666 9.89899 14.4749C5.22295 16.0114 1.78024 20.6645 1.64795 25.6051C1.58545 27.9312 2.08545 30.1166 3.2219 32.1489C3.58857 32.8041 3.69378 33.4832 3.52295 34.2145C3.24378 35.4145 2.98232 36.6176 2.69378 37.8155C2.6219 38.1145 2.70107 38.1582 2.96878 38.0947C4.11461 37.8228 5.26774 37.5791 6.40836 37.2864C7.31149 37.0541 8.16149 37.0145 9.05836 37.402C12.3073 38.8041 15.5969 38.8145 18.8344 37.3999C22.1282 35.9603 24.375 33.5009 25.5552 30.0843C25.7927 29.4499 25.9334 28.7926 26.0563 28.128C26.1104 27.8353 26.0667 27.7395 25.7542 27.7405C24.2084 27.7416 22.7219 27.4124 21.2719 26.8947C21.2532 26.8812 21.2334 26.878 21.2125 26.8853C21.1865 26.8801 21.1604 26.8749 21.1334 26.8697C20.1427 26.4072 19.1604 25.9291 18.249 25.3187C17.0417 24.4457 15.9875 23.4155 15.0615 22.2509ZM13.8594 13.8457C13.8563 14.4707 13.8823 15.0957 13.9792 15.7124C14.3511 18.077 15.2907 20.1874 16.8802 21.9801C19.1677 24.5593 22.0344 25.9749 25.4834 26.1718C27.5011 26.2874 29.4282 25.9155 31.2688 25.0822C31.8032 24.8405 32.3573 24.7666 32.9375 24.902C34.324 25.2239 35.7136 25.5312 37.0979 25.8603C37.3854 25.9291 37.4657 25.8968 37.3886 25.5832C37.1094 24.4374 36.8573 23.2853 36.5813 22.1384C36.3907 21.3457 36.4709 20.6082 36.8698 19.8832C38.3907 17.1187 38.8115 14.1843 38.1167 11.1062C36.6729 4.70407 30.3604 0.403027 23.6063 1.84053C17.8573 3.06344 13.9157 7.9874 13.8594 13.8457Z" fill="#141C5E"/>
<path d="M13.8596 13.8456C13.9169 7.98729 17.8575 3.06438 23.6065 1.84042C30.3607 0.402919 36.6732 4.70396 38.118 11.1081C38.8127 14.1863 38.3919 17.1206 36.8711 19.8852C36.4721 20.6102 36.3909 21.3477 36.5825 22.1404C36.8586 23.2873 37.1107 24.4394 37.3898 25.5852C37.4659 25.8988 37.3867 25.93 37.0992 25.8623C35.7148 25.5331 34.3252 25.2258 32.9388 24.904C32.3586 24.7696 31.8055 24.8425 31.27 25.0842C29.4294 25.9175 27.5023 26.2894 25.4846 26.1738C22.0357 25.9758 19.169 24.5613 16.8815 21.9821C15.2919 20.1894 14.3513 18.079 13.9805 15.7144C13.8825 15.0956 13.8565 14.4706 13.8596 13.8456ZM26.1148 21.0279C26.7773 21.0279 27.4388 21.029 28.1013 21.0279C28.5971 21.0269 28.6096 21.0154 28.6096 20.531C28.6107 19.2956 28.6242 18.0592 28.6023 16.8238C28.595 16.4342 28.7419 16.3269 29.1034 16.331C30.3367 16.3435 31.57 16.3248 32.8034 16.3425C33.169 16.3477 33.3065 16.2467 33.3002 15.8602C33.2794 14.5467 33.293 13.2331 33.2919 11.9185C33.2919 11.4467 33.2607 11.4144 32.7794 11.4144C31.5461 11.4123 30.3127 11.404 29.0794 11.4206C28.7284 11.4258 28.5982 11.3227 28.6034 10.956C28.6221 9.69458 28.6044 8.43209 28.6148 7.17063C28.6169 6.83834 28.4992 6.71334 28.1565 6.7175C26.819 6.73209 25.4815 6.73209 24.145 6.7175C23.8096 6.71334 23.6877 6.81542 23.6919 7.16229C23.7075 8.42375 23.6909 9.68625 23.7023 10.9477C23.7055 11.2998 23.5805 11.4258 23.2221 11.4217C21.9627 11.405 20.7034 11.4227 19.444 11.4102C19.1284 11.4071 19.0055 11.506 19.0086 11.8352C19.0211 13.1883 19.0232 14.5415 19.0075 15.8935C19.0034 16.2331 19.1127 16.3477 19.4555 16.3435C20.6888 16.3269 21.9221 16.3363 23.1555 16.3373C23.6471 16.3373 23.6961 16.3863 23.6971 16.8685C23.6982 18.0779 23.6971 19.2883 23.6982 20.4977C23.6982 21.029 23.6992 21.03 24.2461 21.03C24.868 21.0279 25.4909 21.0279 26.1148 21.0279Z" fill="#FEFEFE"/>
<path d="M25.556 30.0822C24.3758 33.4988 22.129 35.9582 18.8352 37.3978C15.5977 38.8124 12.3081 38.803 9.05917 37.3999C8.16229 37.0134 7.31229 37.053 6.40917 37.2843C5.26854 37.577 4.11542 37.8207 2.96958 38.0926C2.70188 38.1561 2.62271 38.1124 2.69458 37.8134C2.98313 36.6166 3.24458 35.4124 3.52375 34.2124C3.69354 33.4811 3.58938 32.802 3.22271 32.1468C2.08625 30.1155 1.58625 27.9301 1.64875 25.603C1.78104 20.6624 5.22271 16.0093 9.89979 14.4728C9.92375 14.4655 9.95083 14.4686 9.97688 14.4666C9.9675 15.0645 10.0519 15.653 10.1373 16.2436C10.3612 17.7926 10.7769 19.2822 11.4675 20.6895C10.4821 20.6926 9.49667 20.702 8.51125 20.6968C8.1425 20.6947 7.88312 20.8561 7.73625 21.177C7.49042 21.7124 7.89458 22.253 8.55188 22.2593C9.80917 22.2707 11.0675 22.2686 12.3258 22.2718C12.5831 22.8113 12.9425 23.2863 13.3081 23.752C13.7227 24.2791 14.1633 24.7874 14.5915 25.303C12.1519 25.3082 9.71229 25.3124 7.27271 25.3176C6.59771 25.3186 5.92271 25.3103 5.24875 25.3207C4.73313 25.328 4.39458 25.628 4.37167 26.0707C4.34563 26.578 4.67896 26.8801 5.28104 26.8801C9.07063 26.8791 12.8592 26.8749 16.6488 26.8749C18.1144 26.8749 19.581 26.8853 21.0467 26.8916C20.9185 26.9874 20.7706 26.9436 20.6321 26.9447C19.3988 26.9478 18.1654 26.9447 16.9331 26.9509C16.8477 26.9509 16.7279 26.8832 16.6613 27.0374C19.33 28.9301 22.2852 29.9676 25.556 30.0822ZM13.9602 29.9884C12.155 29.9884 10.3508 29.9874 8.54563 29.9895C8.00604 29.9905 7.64979 30.3009 7.65708 30.7551C7.66438 31.2041 8.03313 31.5468 8.54979 31.5478C12.1331 31.552 15.7175 31.552 19.3008 31.5478C19.8435 31.5468 20.204 31.203 20.1956 30.7322C20.1873 30.2634 19.8612 29.9895 19.2977 29.9895C17.5175 29.9874 15.7383 29.9884 13.9602 29.9884Z" fill="#3147EB"/>
<path d="M21.047 26.8937C19.5814 26.8875 18.1147 26.8781 16.6491 26.8771C12.8595 26.8771 9.07098 26.8812 5.2814 26.8823C4.67932 26.8823 4.34598 26.5802 4.37203 26.0729C4.39494 25.6302 4.73244 25.3302 5.24911 25.3229C5.92411 25.3135 6.59911 25.3218 7.27307 25.3198C9.71265 25.3156 12.1522 25.3104 14.5918 25.3052C15.8116 25.3083 17.0324 25.3114 18.2522 25.3146C19.1637 25.925 20.1449 26.4041 21.1366 26.8656C21.1054 26.876 21.0762 26.8843 21.047 26.8937Z" fill="#EAEDFD"/>
<path d="M21.047 26.8935C21.0762 26.8852 21.1054 26.8758 21.1356 26.8665C21.1616 26.8717 21.1877 26.8769 21.2147 26.8821C21.2293 26.9185 21.2491 26.9248 21.2741 26.8915C22.7241 27.4092 24.2106 27.7383 25.7564 27.7373C26.07 27.7373 26.1127 27.8331 26.0585 28.1248C25.9356 28.7894 25.795 29.4467 25.5575 30.081C22.2856 29.9665 19.3314 28.929 16.6616 27.0373C16.7293 26.8831 16.8481 26.9508 16.9335 26.9508C18.1668 26.9456 19.4002 26.9487 20.6325 26.9446C20.771 26.9456 20.9189 26.9894 21.047 26.8935Z" fill="#EB7431"/>
<path d="M11.4669 20.6916C10.7763 19.2843 10.3607 17.7947 10.1367 16.2458C10.0513 15.6562 9.96693 15.0666 9.9763 14.4687C10.6201 14.2208 11.293 14.0916 11.968 13.9604C12.2721 13.901 12.3159 13.9885 12.3148 14.2562C12.3107 15.6729 12.5878 17.0427 13.0294 18.3822C13.294 19.1854 13.6638 19.9437 14.0461 20.6958C13.1867 20.6947 12.3263 20.6927 11.4669 20.6916Z" fill="#EB7431"/>
<path d="M11.4665 20.6917C12.3259 20.6927 13.1863 20.6948 14.0457 20.6958C14.3842 21.2146 14.7228 21.7323 15.0613 22.251C14.1488 22.2594 13.2363 22.2667 12.3238 22.2739C11.0655 22.2708 9.80817 22.2729 8.54984 22.2614C7.89255 22.2552 7.48734 21.7146 7.73421 21.1792C7.88213 20.8583 8.14151 20.6969 8.50921 20.6989C9.49567 20.7042 10.4811 20.6948 11.4665 20.6917Z" fill="#EAEDFD"/>
<path d="M12.3242 22.2739C13.2367 22.2666 14.1492 22.2583 15.0617 22.251C15.9878 23.4156 17.043 24.4458 18.2513 25.3156C17.0315 25.3124 15.8107 25.3093 14.5909 25.3062C14.1617 24.7895 13.7221 24.2822 13.3076 23.7551C12.9409 23.2885 12.5815 22.8145 12.3242 22.2739Z" fill="#EB7431"/>
<path d="M21.2728 26.8917C21.2467 26.925 21.228 26.9187 21.2134 26.8823C21.2353 26.876 21.255 26.8792 21.2728 26.8917Z" fill="#EB7431"/>
<path d="M26.1147 21.0279C25.4918 21.0279 24.8679 21.0279 24.245 21.0279C23.6981 21.0279 23.6981 21.0269 23.697 20.4956C23.696 19.2863 23.6981 18.0758 23.696 16.8665C23.695 16.3842 23.646 16.3363 23.1543 16.3352C21.921 16.3342 20.6877 16.3248 19.4543 16.3415C19.1127 16.3456 19.0033 16.2311 19.0064 15.8915C19.021 14.5383 19.02 13.1852 19.0075 11.8331C19.0043 11.505 19.1272 11.405 19.4429 11.4081C20.7022 11.4206 21.9616 11.4029 23.221 11.4196C23.5793 11.4248 23.7043 11.2988 23.7012 10.9456C23.6897 9.68418 23.7064 8.42168 23.6908 7.16022C23.6866 6.81439 23.8085 6.71231 24.1439 6.71543C25.4814 6.73002 26.8189 6.73002 28.1554 6.71543C28.497 6.71127 28.6158 6.83627 28.6137 7.16856C28.6043 8.43002 28.621 9.69252 28.6022 10.954C28.597 11.3217 28.7272 11.4238 29.0783 11.4186C30.3116 11.4019 31.545 11.4113 32.7783 11.4123C33.2595 11.4133 33.2908 11.4446 33.2908 11.9165C33.2918 13.23 33.2783 14.5446 33.2991 15.8581C33.3054 16.2446 33.1679 16.3456 32.8022 16.3404C31.5689 16.3227 30.3356 16.3415 29.1022 16.329C28.7418 16.3248 28.595 16.4331 28.6012 16.8217C28.6231 18.0571 28.6095 19.2936 28.6085 20.529C28.6085 21.0144 28.596 21.0258 28.1002 21.0258C27.4387 21.029 26.7762 21.0279 26.1147 21.0279Z" fill="#6F7EF1"/>
<path d="M13.9605 29.9885C15.7397 29.9885 17.5178 29.9875 19.297 29.9896C19.8605 29.9906 20.1866 30.2635 20.1949 30.7323C20.2032 31.2042 19.8439 31.5479 19.3001 31.5479C15.7168 31.5521 12.1324 31.5521 8.54907 31.5479C8.0324 31.5469 7.66365 31.2042 7.65636 30.7552C7.64907 30.301 8.00532 29.9896 8.5449 29.9896C10.3501 29.9875 12.1553 29.9885 13.9605 29.9885Z" fill="#EAEDFD"/>
</g>
<defs>
<clipPath id="clip0_36_1878">
<rect width="40" height="40" fill="white"/>
</clipPath>
</defs>
</svg>
