<svg width="37" height="33" viewBox="0 0 37 33" fill="none" xmlns="http://www.w3.org/2000/svg">
<path d="M2.99026 11.5507C2.99026 5.84386 6.78958 0.552002 11.9921 0.552002C15.6025 0.552002 18.2814 2.92627 19.935 6.29439C21.5886 2.92646 24.2675 0.552002 27.878 0.552002C33.0811 0.552002 36.8798 5.84476 36.8798 11.5507C36.8798 23.7652 19.935 32.4481 19.935 32.4481C19.935 32.4481 8.52094 26.9532 4.42867 17.9397H14.5374L16.1442 15.0835L18.021 21.6524L22.4161 16.0017H27.9091V14.0082H21.441L18.8589 17.3281L16.7486 9.9426L13.3716 15.9462H3.66789C3.87918 16.6284 4.13513 17.2932 4.42867 17.9397L0 17.9396L0 15.9461L3.66789 15.9462C3.23589 14.5517 2.99026 13.0843 2.99026 11.5507Z" fill="white"/>
</svg>
