<svg width="40" height="40" viewBox="0 0 40 40" fill="none" xmlns="http://www.w3.org/2000/svg">
<path d="M20.9375 0.00721029C21.2542 0.160335 21.6073 0.148877 21.9417 0.220752C26.0844 1.11138 29.1948 4.51033 29.699 8.69575C29.8115 9.62909 29.7521 10.5635 29.7625 11.4978C29.7646 11.7197 29.8219 11.8749 29.9833 12.0385C31.0292 13.0978 31.3625 14.3583 30.8375 15.753C30.3167 17.1374 29.2677 17.9635 27.7698 18.0062C27.0167 18.028 26.6344 18.2072 26.3656 18.9655C25.949 20.1353 25.1021 21.0416 24.0771 21.7562C23.8875 21.8885 23.825 21.9978 23.9052 22.2228C24.1281 22.8562 24.2094 23.5353 24.5719 24.1228C24.7417 24.3978 24.9469 24.5333 25.2854 24.5687C26.85 24.7301 28.4115 24.9208 29.974 25.1093C30.4208 25.1635 30.7177 25.4708 30.6844 25.9312C30.6552 26.3301 30.826 26.5187 31.1375 26.7197C32.6021 27.6697 33.3302 29.076 33.6615 30.7551C34.1938 33.451 34.7802 36.1364 35.3438 38.826C35.4865 39.5062 35.1656 39.9135 34.4708 39.9135C24.8271 39.9145 15.1833 39.9145 5.53959 39.9135C4.85625 39.9135 4.51563 39.5135 4.64688 38.8676C5.2323 35.9708 5.80938 33.0718 6.41146 30.178C6.74375 28.5791 7.65313 27.3739 9.05417 26.5426C9.24584 26.4291 9.32188 26.3166 9.32084 26.0916C9.31563 25.4145 9.53125 25.178 10.1906 25.0916C11.724 24.8905 13.2573 24.6843 14.7938 24.502C15.0354 24.4728 15.1667 24.3687 15.2844 24.1864C15.7167 23.5166 15.8146 22.7322 16.0427 21.9916C16.0917 21.8333 15.9708 21.7916 15.8792 21.7249C14.6833 20.8437 13.8302 19.7103 13.3656 18.2968C13.3 18.0978 13.199 18.0426 13 18.0458C12.375 18.0572 11.7573 18.0322 11.1594 17.7978C8.92709 16.9208 8.20938 14.0822 9.78542 12.2812C9.95625 12.0864 10.0094 11.903 10.0104 11.6583C10.0177 10.3489 9.95105 9.0395 10.2313 7.74054C11.0604 3.89367 14.3135 0.789502 18.2115 0.145752C18.3917 0.115544 18.601 0.158252 18.7531 0.00512695C19.4792 0.00721029 20.2083 0.00721029 20.9375 0.00721029ZM25.4448 14.1239C25.45 13.5916 25.4479 13.0593 25.4635 12.528C25.4688 12.3562 25.3875 12.2687 25.2563 12.1916C24.2958 11.6291 23.5979 10.8291 23.1438 9.81971C23.0604 9.63533 22.9885 9.60721 22.8 9.67283C20.9469 10.3197 19.0865 10.3312 17.226 9.70513C17.0521 9.64679 16.9563 9.64575 16.8688 9.84367C16.4271 10.8458 15.7323 11.6312 14.7844 12.1885C14.6656 12.2583 14.5844 12.3301 14.5875 12.4885C14.599 13.0333 14.5979 13.578 14.601 14.1218C14.5292 14.6749 14.5302 14.6728 15.0635 14.8218C15.5615 14.9614 16.0604 15.101 16.5552 15.251C18.2042 15.7499 19.876 15.9343 21.5917 15.6812C22.7375 15.5124 23.8281 15.1374 24.9417 14.8468C25.4844 14.7072 25.4813 14.6958 25.4448 14.1239ZM16.3417 25.6624C16.3396 25.701 16.3313 25.7416 16.3375 25.7791C17.0646 29.8947 17.7948 34.0093 18.5156 38.127C18.5531 38.3416 18.6573 38.3614 18.8323 38.3593C19.5604 38.353 20.2906 38.3291 21.0167 38.3687C21.3781 38.3885 21.4365 38.2343 21.4865 37.9405C21.8563 35.7718 22.2448 33.6072 22.6219 31.4395C22.9594 29.502 23.2885 27.5624 23.6219 25.6239C23.6281 25.5885 23.6542 25.5374 23.6396 25.5197C22.9927 24.7541 22.6958 23.8343 22.476 22.8812C22.4177 22.6301 22.2844 22.6812 22.1031 22.7364C20.6583 23.177 19.2135 23.178 17.7792 22.6895C17.551 22.6114 17.474 22.6655 17.4167 22.8905C17.199 23.7572 16.9729 24.6249 16.3802 25.3343C16.2917 25.4416 16.3052 25.5468 16.3417 25.6624ZM11.601 11.1405C12.0094 11.0458 12.4292 11.0197 12.8365 11.0687C13.6052 11.1614 14.1604 10.803 14.6677 10.3072C15.1719 9.8145 15.4938 9.21971 15.6667 8.53533C15.851 7.80617 16.2885 7.61138 16.9823 7.92492C18.9927 8.83221 21 8.827 23.0021 7.89992C23.7583 7.54992 24.1677 7.74992 24.3688 8.56763C24.6281 9.62179 25.25 10.3978 26.1917 10.928C26.3292 11.0051 26.4677 11.0614 26.6313 11.0614C27.0729 11.0593 27.5156 11.0603 27.9573 11.0791C28.1469 11.0874 28.2042 11.027 28.2021 10.8416C28.1938 10.0895 28.2271 9.33638 28.1104 8.58846C27.4063 4.10825 23.1396 0.96346 18.6542 1.66138C14.4 2.32388 11.0792 6.08013 11.601 11.1405ZM29.1344 28.9416C29.1344 28.3187 29.1344 27.6958 29.1344 27.0718C29.1344 26.5583 29.1333 26.5687 28.6083 26.5103C27.576 26.3968 26.5427 26.2843 25.5146 26.1437C25.2125 26.102 25.1198 26.1718 25.0677 26.477C24.676 28.7874 24.2604 31.0926 23.8552 33.401C23.5823 34.9562 23.3167 36.5135 23.0417 38.0687C23.0073 38.2624 23 38.3666 23.2615 38.3624C24.2625 38.3468 25.2646 38.3478 26.2656 38.3624C26.4833 38.3655 26.5542 38.2603 26.6208 38.0926C26.9604 37.2395 27.301 36.3853 27.6542 35.5374C27.7365 35.3395 27.7333 35.1791 27.6354 34.9885C27.2094 34.1583 26.7865 33.327 26.3813 32.4864C26.0917 31.8874 26.4344 31.3426 27.0958 31.3322C27.6813 31.3228 28.2667 31.3208 28.8521 31.3343C29.076 31.3395 29.1417 31.2645 29.1385 31.0447C29.126 30.3437 29.1344 29.6426 29.1344 28.9416ZM10.874 28.9197C10.874 29.6208 10.8823 30.3218 10.8688 31.0228C10.8646 31.2572 10.9302 31.3426 11.175 31.3343C11.7073 31.3176 12.2417 31.328 12.775 31.3291C13.626 31.3322 13.9542 31.8499 13.5781 32.6072C13.1813 33.4083 12.7781 34.2072 12.3698 35.002C12.2802 35.177 12.2667 35.327 12.3448 35.5135C12.6979 36.3614 13.0427 37.2135 13.3771 38.0697C13.4583 38.2791 13.5625 38.3666 13.8021 38.3624C14.751 38.3468 15.701 38.3437 16.65 38.3624C16.9667 38.3687 16.9729 38.2478 16.926 37.9968C16.7438 37.0301 16.5781 36.0603 16.4052 35.0916C15.8885 32.1853 15.3667 29.2812 14.8625 26.3728C14.8188 26.1218 14.7281 26.0843 14.5104 26.1124C13.3906 26.2572 12.2698 26.3947 11.149 26.5301C10.95 26.5541 10.8646 26.6353 10.8698 26.8541C10.8833 27.5437 10.874 28.2312 10.874 28.9197ZM14.574 16.3114C14.5948 16.5739 14.5969 16.7687 14.6271 16.9593C15.049 19.6041 17.4365 21.577 20.124 21.5051C22.8865 21.4322 25.1542 19.3364 25.4365 16.6083C25.4604 16.378 25.3969 16.3291 25.1906 16.3885C24.7927 16.5041 24.3917 16.6083 23.9958 16.7301C21.701 17.4385 19.3823 17.5645 17.0427 16.9916C16.2281 16.7926 15.426 16.5478 14.574 16.3114ZM9.30834 28.2739C8.59271 28.8718 8.15313 29.5489 7.975 30.3687C7.66979 31.7728 7.39688 33.1843 7.11042 34.5926C6.85834 35.8343 6.60834 37.077 6.35417 38.3405C8.17917 38.3405 9.97084 38.3405 11.8063 38.3405C11.449 37.4541 11.1135 36.5864 10.7479 35.7322C10.5854 35.352 10.601 35.0155 10.7948 34.6572C11.0604 34.1676 11.2938 33.6593 11.5542 33.1666C11.675 32.9374 11.6146 32.877 11.3719 32.8895C11.0865 32.903 10.799 32.8926 10.5135 32.8926C9.53646 32.8926 9.30938 32.6697 9.30938 31.7093C9.30834 30.5926 9.30834 29.477 9.30834 28.2739ZM30.6969 28.3447C30.6969 29.5999 30.699 30.7645 30.6958 31.9291C30.6938 32.5791 30.3917 32.8833 29.7438 32.8905C29.2927 32.8958 28.8417 32.8916 28.3271 32.8916C28.6427 33.5239 28.9188 34.1062 29.2219 34.6749C29.4073 35.0239 29.4229 35.352 29.2688 35.7155C28.9698 36.4187 28.6917 37.1312 28.4094 37.8416C28.3458 38.002 28.2396 38.153 28.249 38.3385C30.0479 38.3385 31.8271 38.3385 33.6177 38.3385C33.6031 38.2187 33.5979 38.1145 33.5771 38.0145C33.0719 35.6208 32.5521 33.2301 32.0625 30.8322C31.8698 29.8885 31.4958 29.0624 30.6969 28.3447ZM13.0021 14.5958C13.0094 14.5958 13.0167 14.5958 13.024 14.5958C13.024 14.0374 13.026 13.4791 13.0219 12.9208C13.0208 12.8041 13.0802 12.6437 12.8708 12.627C12.0906 12.5655 11.3927 12.7249 10.8927 13.3853C10.4073 14.027 10.3667 14.8551 10.7771 15.5395C11.1854 16.2208 12.0021 16.5937 12.8177 16.4937C13.0125 16.4697 13.0042 16.3718 13.0031 16.2312C12.999 15.6864 13.0021 15.1405 13.0021 14.5958ZM27.0271 14.5822C27.0271 15.0499 27.0281 15.5176 27.0271 15.9843C27.026 16.502 27.025 16.502 27.5542 16.478C28.8646 16.4187 29.7198 15.3416 29.4469 14.0968C29.2417 13.1624 28.4031 12.5937 27.3021 12.6187C27.076 12.6239 27.0177 12.6905 27.0229 12.9072C27.0354 13.4655 27.0271 14.0239 27.0271 14.5822Z" fill="#141C5E"/>
<path d="M11.601 11.1407C11.0791 6.08024 14.3989 2.32399 18.6541 1.66149C23.1395 0.96357 27.4062 4.10836 28.1104 8.58857C28.2281 9.33649 28.1937 10.0896 28.202 10.8417C28.2041 11.0271 28.1468 11.0875 27.9572 11.0792C27.5156 11.0604 27.0729 11.0594 26.6312 11.0615C26.4666 11.0625 26.3281 11.0052 26.1916 10.9282C25.25 10.3979 24.6281 9.6219 24.3687 8.56774C24.1677 7.75003 23.7583 7.55003 23.002 7.90003C21 8.82607 18.9927 8.83232 16.9822 7.92503C16.2885 7.61253 15.851 7.80628 15.6666 8.53545C15.4937 9.21982 15.1708 9.81357 14.6677 10.3073C14.1614 10.8032 13.6052 11.1615 12.8364 11.0688C12.4291 11.0198 12.0093 11.0448 11.601 11.1407Z" fill="#EF905A"/>
<path d="M23.6221 25.6228C23.2888 27.5613 22.9586 29.4999 22.6221 31.4384C22.245 33.6051 21.8575 35.7707 21.4867 37.9395C21.4367 38.2332 21.3784 38.3874 21.0169 38.3676C20.2909 38.3291 19.5606 38.353 18.8325 38.3582C18.6575 38.3593 18.5534 38.3405 18.5159 38.1259C17.795 34.0093 17.0648 29.8936 16.3377 25.778C16.3315 25.7405 16.3398 25.7009 16.3419 25.6613C17.4096 26.527 18.4763 27.3926 19.545 28.2561C20.0159 28.6363 20.0148 28.6291 20.4836 28.2363C21.5273 27.3634 22.5752 26.4947 23.6221 25.6228Z" fill="#EAEDFD"/>
<path d="M29.1343 28.9416C29.1343 29.6426 29.127 30.3437 29.1385 31.0447C29.1427 31.2635 29.076 31.3385 28.852 31.3343C28.2666 31.3208 27.6812 31.3228 27.0958 31.3322C26.4343 31.3426 26.0916 31.8874 26.3812 32.4864C26.7864 33.326 27.2093 34.1583 27.6354 34.9885C27.7333 35.1791 27.7364 35.3395 27.6541 35.5374C27.2999 36.3853 26.9604 37.2395 26.6208 38.0926C26.5541 38.2603 26.4833 38.3655 26.2656 38.3624C25.2645 38.3489 24.2624 38.3468 23.2614 38.3624C22.9999 38.3666 23.0072 38.2624 23.0416 38.0687C23.3166 36.5135 23.5822 34.9562 23.8552 33.401C24.2604 31.0926 24.676 28.7874 25.0677 26.477C25.1197 26.1718 25.2114 26.103 25.5145 26.1437C26.5437 26.2843 27.576 26.3968 28.6083 26.5103C29.1333 26.5676 29.1343 26.5583 29.1343 27.0718C29.1343 27.6947 29.1343 28.3176 29.1343 28.9416Z" fill="#EB7431"/>
<path d="M10.8741 28.9196C10.8741 28.2321 10.8835 27.5436 10.8689 26.8561C10.8637 26.6363 10.9491 26.5561 11.1481 26.5321C12.2689 26.3956 13.3897 26.2592 14.5095 26.1144C14.7272 26.0863 14.8189 26.1238 14.8616 26.3748C15.3658 29.2831 15.8877 32.1873 16.4043 35.0936C16.5762 36.0623 16.7418 37.0321 16.9252 37.9988C16.972 38.2498 16.9658 38.3706 16.6491 38.3644C15.7002 38.3446 14.7502 38.3477 13.8012 38.3644C13.5616 38.3686 13.4585 38.2811 13.3762 38.0717C13.0418 37.2154 12.6981 36.3634 12.3439 35.5154C12.2658 35.329 12.2793 35.179 12.3689 35.004C12.7772 34.2092 13.1804 33.4102 13.5772 32.6092C13.9533 31.8519 13.6252 31.3342 12.7741 31.3311C12.2408 31.329 11.7074 31.3186 11.1741 31.3363C10.9293 31.3436 10.8637 31.2592 10.8679 31.0248C10.8824 30.3217 10.8741 29.6206 10.8741 28.9196Z" fill="#EB7431"/>
<path d="M14.5737 16.3113C15.4258 16.5477 16.2279 16.7925 17.0425 16.9915C19.3831 17.5654 21.7008 17.4394 23.9956 16.73C24.3914 16.6082 24.7925 16.504 25.1904 16.3884C25.3966 16.3279 25.4602 16.3779 25.4362 16.6082C25.155 19.3363 22.8862 21.4321 20.1237 21.505C17.4362 21.5759 15.0477 19.6029 14.6269 16.9592C14.5966 16.7686 14.5946 16.5738 14.5737 16.3113Z" fill="#EAEDFD"/>
<path d="M25.4447 14.1238C25.4812 14.6956 25.4833 14.7071 24.9437 14.8477C23.8301 15.1384 22.7395 15.5134 21.5937 15.6821C19.8781 15.9352 18.2062 15.7498 16.5572 15.2519C16.0624 15.1019 15.5635 14.9623 15.0656 14.8227C14.5322 14.6738 14.5312 14.6759 14.6031 14.1217C15.7614 13.4738 16.8937 12.7925 17.6416 11.6456C17.7426 11.4915 17.8374 11.4988 17.9958 11.5269C19.3468 11.7706 20.6989 11.7988 22.0447 11.4925C22.202 11.4571 22.2968 11.5102 22.3728 11.6269C23.127 12.7904 24.277 13.4686 25.4447 14.1238Z" fill="#FBE3D6"/>
<path d="M9.30824 28.2739C9.30824 29.4771 9.30824 30.5927 9.30824 31.7083C9.30824 32.6687 9.53532 32.8916 10.5124 32.8916C10.7989 32.8916 11.0853 32.9021 11.3707 32.8885C11.6124 32.8771 11.6739 32.9364 11.553 33.1656C11.2926 33.6583 11.0593 34.1656 10.7937 34.6562C10.5989 35.0146 10.5843 35.351 10.7468 35.7312C11.1124 36.5864 11.4478 37.4531 11.8051 38.3396C9.96969 38.3396 8.17803 38.3396 6.35303 38.3396C6.60824 37.076 6.85824 35.8343 7.10928 34.5916C7.39469 33.1833 7.66761 31.7718 7.97386 30.3677C8.15303 29.5489 8.59261 28.8718 9.30824 28.2739Z" fill="#3147EB"/>
<path d="M30.697 28.3447C31.497 29.0624 31.8699 29.8885 32.0636 30.8322C32.5532 33.2291 33.073 35.6197 33.5782 38.0145C33.5991 38.1145 33.6043 38.2187 33.6188 38.3385C31.8282 38.3385 30.0491 38.3385 28.2501 38.3385C28.2407 38.152 28.347 38.001 28.4105 37.8416C28.6928 37.1312 28.972 36.4197 29.2699 35.7156C29.424 35.352 29.4084 35.0239 29.223 34.6749C28.9199 34.1062 28.6438 33.5239 28.3282 32.8916C28.8428 32.8916 29.2938 32.8958 29.7449 32.8906C30.3928 32.8833 30.6959 32.5791 30.697 31.9291C30.6991 30.7645 30.697 29.5999 30.697 28.3447Z" fill="#3147EB"/>
<path d="M23.6217 25.6228C22.5759 26.4936 21.5269 27.3623 20.4842 28.2363C20.0155 28.629 20.0175 28.6363 19.5457 28.2561C18.4769 27.3926 17.4102 26.5259 16.3425 25.6613C16.3061 25.5467 16.2925 25.4405 16.3811 25.3342C16.9738 24.6248 17.1998 23.7582 17.4175 22.8905C17.4738 22.6655 17.5509 22.6113 17.78 22.6894C19.2144 23.178 20.6582 23.1759 22.104 22.7363C22.2852 22.6811 22.4186 22.6301 22.4769 22.8811C22.6967 23.8332 22.9946 24.753 23.6405 25.5196C23.654 25.5363 23.628 25.5884 23.6217 25.6228Z" fill="#F3AC83"/>
<path d="M25.4447 14.124C24.276 13.4688 23.126 12.7917 22.3718 11.6281C22.2958 11.5115 22.202 11.4573 22.0437 11.4938C20.6978 11.799 19.3458 11.7719 17.9947 11.5281C17.8364 11.5 17.7405 11.4917 17.6405 11.6469C16.8937 12.7938 15.7603 13.475 14.602 14.1229C14.5989 13.5781 14.5999 13.0333 14.5885 12.4896C14.5853 12.3323 14.6666 12.2594 14.7853 12.1896C15.7333 11.6323 16.428 10.8469 16.8697 9.84481C16.9572 9.64689 17.053 9.64793 17.227 9.70626C19.0874 10.3323 20.9478 10.3208 22.801 9.67397C22.9895 9.60835 23.0614 9.63543 23.1447 9.82085C23.5989 10.8302 24.2968 11.6302 25.2572 12.1927C25.3885 12.2698 25.4697 12.3573 25.4645 12.5292C25.4489 13.0594 25.4499 13.5917 25.4447 14.124Z" fill="#F5BA98"/>
<path d="M13.0021 14.5958C13.0021 15.1417 12.999 15.6865 13.0042 16.2323C13.0053 16.3729 13.0136 16.4708 12.8188 16.4948C12.0032 16.5948 11.1865 16.2219 10.7782 15.5406C10.3667 14.8552 10.4084 14.0271 10.8938 13.3865C11.3938 12.726 12.0917 12.5667 12.8719 12.6281C13.0813 12.6448 13.0219 12.8052 13.023 12.9219C13.0282 13.4802 13.025 14.0385 13.025 14.5969C13.0167 14.5958 13.0094 14.5958 13.0021 14.5958Z" fill="#F5BA98"/>
<path d="M27.0269 14.5822C27.0269 14.0239 27.0363 13.4655 27.0228 12.9072C27.0176 12.6905 27.0759 12.6239 27.3019 12.6186C28.403 12.5947 29.2415 13.1624 29.4467 14.0968C29.7196 15.3426 28.8644 16.4186 27.554 16.478C27.0249 16.502 27.0259 16.502 27.0269 15.9843C27.0269 15.5176 27.0269 15.0499 27.0269 14.5822Z" fill="#F5BA98"/>
</svg>
