<svg width="20" height="20" viewBox="0 0 20 20" fill="none" xmlns="http://www.w3.org/2000/svg">
<path d="M9.16699 9.14998C9.16699 8.92897 9.25479 8.717 9.41107 8.56072C9.56735 8.40444 9.77931 8.31665 10.0003 8.31665C10.2213 8.31665 10.4333 8.40444 10.5896 8.56072C10.7459 8.717 10.8337 8.92897 10.8337 9.14998V14.15C10.8337 14.371 10.7459 14.583 10.5896 14.7392C10.4333 14.8955 10.2213 14.9833 10.0003 14.9833C9.77931 14.9833 9.56735 14.8955 9.41107 14.7392C9.25479 14.583 9.16699 14.371 9.16699 14.15V9.14998ZM10.0003 5.04248C9.77931 5.04248 9.56735 5.13028 9.41107 5.28656C9.25479 5.44284 9.16699 5.6548 9.16699 5.87581C9.16699 6.09683 9.25479 6.30879 9.41107 6.46507C9.56735 6.62135 9.77931 6.70915 10.0003 6.70915C10.2213 6.70915 10.4333 6.62135 10.5896 6.46507C10.7459 6.30879 10.8337 6.09683 10.8337 5.87581C10.8337 5.6548 10.7459 5.44284 10.5896 5.28656C10.4333 5.13028 10.2213 5.04248 10.0003 5.04248Z" fill="#5C5C5E"/>
<path fill-rule="evenodd" clip-rule="evenodd" d="M10.0003 1.6665C5.39783 1.6665 1.66699 5.39734 1.66699 9.99984C1.66699 14.6023 5.39783 18.3332 10.0003 18.3332C14.6028 18.3332 18.3337 14.6023 18.3337 9.99984C18.3337 5.39734 14.6028 1.6665 10.0003 1.6665ZM3.33366 9.99984C3.33366 11.7679 4.03604 13.4636 5.28628 14.7139C6.53652 15.9641 8.23222 16.6665 10.0003 16.6665C11.7684 16.6665 13.4641 15.9641 14.7144 14.7139C15.9646 13.4636 16.667 11.7679 16.667 9.99984C16.667 8.23173 15.9646 6.53604 14.7144 5.28579C13.4641 4.03555 11.7684 3.33317 10.0003 3.33317C8.23222 3.33317 6.53652 4.03555 5.28628 5.28579C4.03604 6.53604 3.33366 8.23173 3.33366 9.99984Z" fill="#5C5C5E"/>
</svg>
