<svg width="16" height="16" viewBox="0 0 16 16" fill="none" xmlns="http://www.w3.org/2000/svg">
<path fill-rule="evenodd" clip-rule="evenodd" d="M10.02 6.45602H12.6633C12.878 6.45602 13.09 6.50935 13.28 6.61068C13.47 6.71202 13.6347 6.86002 13.758 7.04068C13.8811 7.22277 13.9598 7.43118 13.9878 7.64918C14.0158 7.86718 13.9924 8.08872 13.9193 8.29602L12.346 13.0967C12.154 13.6394 12.026 14 11.09 14C9.70867 14 8.23933 13.5487 6.98533 13.1627C6.67067 13.066 6.36933 12.9734 6.08667 12.8934H6.01V6.31868C7.11523 5.22813 8.06585 3.99129 8.83533 2.64268C8.9647 2.39368 9.17724 2.19789 9.436 2.08935C9.69238 1.98244 9.97862 1.97109 10.2427 2.05735C10.5067 2.14402 10.7333 2.32202 10.8827 2.56202C11.0327 2.80202 11.096 3.08735 11.062 3.36935L10.02 6.45602ZM2.78467 6.66668H4.66667V12C4.66667 12.3536 4.52619 12.6928 4.27614 12.9428C4.02609 13.1929 3.68696 13.3334 3.33333 13.3334C2.97971 13.3334 2.64057 13.1929 2.39052 12.9428C2.14048 12.6928 2 12.3536 2 12V7.45135C2 7.01802 2.352 6.66668 2.78467 6.66668Z" fill="#3147EB"/>
</svg>
