<svg width="20" height="20" viewBox="0 0 20 20" fill="none" xmlns="http://www.w3.org/2000/svg">
<path d="M4.16667 3.66667H3.66667V4.16667V15.8333V16.3333H4.16667H9.16667C9.34886 16.3333 9.5 16.4845 9.5 16.6667C9.5 16.8489 9.34886 17 9.16667 17H4.16667C3.52614 17 3 16.4739 3 15.8333V4.16667C3 3.52614 3.52614 3 4.16667 3H9.16667C9.34886 3 9.5 3.15114 9.5 3.33333C9.5 3.51552 9.34886 3.66667 9.16667 3.66667H4.16667Z" stroke="#FF3C5A"/>
<path d="M14.6667 9.16646V7.87356L16.7887 9.99562L14.6667 12.1177V10.8331V10.3331H14.1667H8.33333C8.15114 10.3331 8 10.182 8 9.99979C8 9.8176 8.15114 9.66646 8.33333 9.66646H14.1667H14.6667V9.16646ZM14.6667 7.67425C14.6667 7.67443 14.6667 7.67461 14.6667 7.67479L14.6667 7.67425Z" fill="#FF3C5A" stroke="#FF3C5A"/>
</svg>
