<svg width="16" height="17" viewBox="0 0 16 17" fill="none" xmlns="http://www.w3.org/2000/svg">
<path fill-rule="evenodd" clip-rule="evenodd" d="M8 2.50008C6.76232 2.50008 5.57534 2.99175 4.70017 3.86692C3.825 4.74209 3.33333 5.92907 3.33333 7.16675C3.33333 8.9034 4.51365 10.7411 5.83161 12.2238C6.47495 12.9476 7.12036 13.5529 7.60567 13.9775C7.75412 14.1074 7.88715 14.22 8 14.3135C8.11285 14.22 8.24588 14.1074 8.39433 13.9775C8.87964 13.5529 9.52505 12.9476 10.1684 12.2238C11.4864 10.7411 12.6667 8.9034 12.6667 7.16675C12.6667 5.92907 12.175 4.74209 11.2998 3.86692C10.4247 2.99175 9.23768 2.50008 8 2.50008ZM8 15.1667C7.6 15.7001 7.59985 15.7 7.59969 15.6998L7.59925 15.6995L7.59802 15.6986L7.59411 15.6956L7.58061 15.6854C7.56912 15.6766 7.55272 15.6641 7.53172 15.6478C7.48974 15.6153 7.42937 15.5679 7.35324 15.5067C7.20103 15.3844 6.98548 15.2066 6.72766 14.981C6.21297 14.5306 5.52505 13.8859 4.83506 13.1097C3.48635 11.5924 2 9.4301 2 7.16675C2 5.57545 2.63214 4.04933 3.75736 2.92411C4.88258 1.79889 6.4087 1.16675 8 1.16675C9.5913 1.16675 11.1174 1.79889 12.2426 2.92411C13.3679 4.04933 14 5.57545 14 7.16675C14 9.4301 12.5136 11.5924 11.1649 13.1097C10.4749 13.8859 9.78703 14.5306 9.27234 14.981C9.01452 15.2066 8.79897 15.3844 8.64676 15.5067C8.57063 15.5679 8.51026 15.6153 8.46828 15.6478C8.44728 15.6641 8.43088 15.6766 8.41939 15.6854L8.40589 15.6956L8.40198 15.6986L8.40074 15.6995L8.40031 15.6998C8.40015 15.7 8.4 15.7001 8 15.1667ZM8 15.1667L8.4 15.7001C8.16296 15.8779 7.83704 15.8779 7.6 15.7001L8 15.1667Z" fill="#3147EB"/>
<path fill-rule="evenodd" clip-rule="evenodd" d="M8.00016 5.83333C7.26378 5.83333 6.66683 6.43029 6.66683 7.16667C6.66683 7.90305 7.26378 8.5 8.00016 8.5C8.73654 8.5 9.3335 7.90305 9.3335 7.16667C9.3335 6.43029 8.73654 5.83333 8.00016 5.83333ZM5.3335 7.16667C5.3335 5.69391 6.5274 4.5 8.00016 4.5C9.47292 4.5 10.6668 5.69391 10.6668 7.16667C10.6668 8.63943 9.47292 9.83333 8.00016 9.83333C6.5274 9.83333 5.3335 8.63943 5.3335 7.16667Z" fill="#3147EB"/>
</svg>
