<svg width="21" height="20" viewBox="0 0 21 20" fill="none" xmlns="http://www.w3.org/2000/svg">
<path fill-rule="evenodd" clip-rule="evenodd" d="M10.5 2.49992C8.9529 2.49992 7.46917 3.1145 6.37521 4.20846C5.28125 5.30242 4.66667 6.78616 4.66667 8.33325C4.66667 10.5041 6.14206 12.8012 7.78951 14.6546C8.59368 15.5593 9.40045 16.3159 10.0071 16.8467C10.1927 17.0091 10.3589 17.1499 10.5 17.2667C10.6411 17.1499 10.8073 17.0091 10.9929 16.8467C11.5995 16.3159 12.4063 15.5593 13.2105 14.6546C14.8579 12.8012 16.3333 10.5041 16.3333 8.33325C16.3333 6.78616 15.7188 5.30242 14.6248 4.20846C13.5308 3.1145 12.0471 2.49992 10.5 2.49992ZM10.5 18.3333C10 18.9999 9.99982 18.9998 9.99961 18.9996L9.99907 18.9992L9.99753 18.9981L9.99264 18.9944L9.97576 18.9816C9.9614 18.9706 9.9409 18.9549 9.91465 18.9346C9.86218 18.8939 9.78671 18.8347 9.69155 18.7582C9.50129 18.6053 9.23185 18.383 8.90958 18.101C8.26622 17.5381 7.40632 16.7322 6.54383 15.7619C4.85794 13.8653 3 11.1624 3 8.33325C3 6.34413 3.79018 4.43647 5.1967 3.02995C6.60322 1.62343 8.51088 0.833252 10.5 0.833252C12.4891 0.833252 14.3968 1.62343 15.8033 3.02995C17.2098 4.43647 18 6.34413 18 8.33325C18 11.1624 16.1421 13.8653 14.4562 15.7619C13.5937 16.7322 12.7338 17.5381 12.0904 18.101C11.7681 18.383 11.4987 18.6053 11.3085 18.7582C11.2133 18.8347 11.1378 18.8939 11.0853 18.9346C11.0591 18.9549 11.0386 18.9706 11.0242 18.9816L11.0074 18.9944L11.0025 18.9981L11.0009 18.9992L11.0004 18.9996C11.0002 18.9998 11 18.9999 10.5 18.3333ZM10.5 18.3333L11 18.9999C10.7037 19.2221 10.2963 19.2221 10 18.9999L10.5 18.3333Z" fill="#5C5C5E"/>
<path fill-rule="evenodd" clip-rule="evenodd" d="M10.5003 6.66667C9.57985 6.66667 8.83366 7.41286 8.83366 8.33333C8.83366 9.25381 9.57985 10 10.5003 10C11.4208 10 12.167 9.25381 12.167 8.33333C12.167 7.41286 11.4208 6.66667 10.5003 6.66667ZM7.16699 8.33333C7.16699 6.49238 8.65938 5 10.5003 5C12.3413 5 13.8337 6.49238 13.8337 8.33333C13.8337 10.1743 12.3413 11.6667 10.5003 11.6667C8.65938 11.6667 7.16699 10.1743 7.16699 8.33333Z" fill="#5C5C5E"/>
</svg>
