<svg width="236" height="207" viewBox="0 0 236 207" fill="none" xmlns="http://www.w3.org/2000/svg">
<g clip-path="url(#clip0_50_3860)">
<path d="M105.591 79.6521H10.5508V150.053H105.591V79.6521Z" fill="#F5F9FF"/>
<path d="M105.591 79.6521H10.5508V88.4321H105.591V79.6521Z" fill="#3147EB"/>
<path d="M18.1787 84.2459C18.1787 85.3542 17.2809 86.2557 16.1772 86.2557C15.0736 86.2557 14.1758 85.3542 14.1758 84.2459C14.1758 83.1376 15.0736 82.2361 16.1772 82.2361C17.2809 82.2361 18.1787 83.1319 18.1787 84.2459Z" fill="#F2F2F2"/>
<path d="M24.915 84.2459C24.915 85.3542 24.0172 86.2557 22.9136 86.2557C21.8099 86.2557 20.9121 85.3542 20.9121 84.2459C20.9121 83.1376 21.8099 82.2361 22.9136 82.2361C24.0229 82.2361 24.915 83.1319 24.915 84.2459Z" fill="#F2F2F2"/>
<path d="M31.6513 84.2459C31.6513 85.3542 30.7536 86.2557 29.6499 86.2557C28.5462 86.2557 27.6484 85.3542 27.6484 84.2459C27.6484 83.1376 28.5462 82.2361 29.6499 82.2361C30.7593 82.2361 31.6513 83.1319 31.6513 84.2459Z" fill="#F2F2F2"/>
<path d="M74.2939 107.583L69.519 102.782L58.0707 114.278L46.6224 102.782L41.8418 107.583L53.2901 119.073L41.8418 130.569L46.6224 135.37L58.0707 123.874L69.519 135.37L74.2939 130.569L62.8456 119.073L74.2939 107.583Z" fill="#E3EBFC"/>
<path d="M222.259 35.2466H127.219V105.648H222.259V35.2466Z" fill="#F5F9FF"/>
<path d="M222.259 35.2466H127.219V44.0266H222.259V35.2466Z" fill="#3147EB"/>
<path d="M134.847 39.8404C134.847 40.9487 133.949 41.8502 132.845 41.8502C131.742 41.8502 130.844 40.9487 130.844 39.8404C130.844 38.7321 131.742 37.8306 132.845 37.8306C133.949 37.8306 134.847 38.7321 134.847 39.8404Z" fill="#F2F2F2"/>
<path d="M141.589 39.8404C141.589 40.9487 140.691 41.8502 139.587 41.8502C138.484 41.8502 137.586 40.9487 137.586 39.8404C137.586 38.7321 138.484 37.8306 139.587 37.8306C140.691 37.8306 141.589 38.7321 141.589 39.8404Z" fill="#F2F2F2"/>
<path d="M148.325 39.8404C148.325 40.9487 147.427 41.8502 146.324 41.8502C145.22 41.8502 144.322 40.9487 144.322 39.8404C144.322 38.7321 145.22 37.8306 146.324 37.8306C147.427 37.8306 148.325 38.7321 148.325 39.8404Z" fill="#F2F2F2"/>
<path d="M190.962 63.1774L186.187 58.3826L174.739 69.873L163.291 58.3826L158.516 63.1774L169.958 74.6736L158.516 86.1698L163.291 90.9646L174.739 79.4685L186.187 90.9646L190.962 86.1698L179.519 74.6736L190.962 63.1774Z" fill="#E3EBFC"/>
<path d="M117.428 207C181.593 207 233.609 202.486 233.609 196.917C233.609 191.348 181.593 186.833 117.428 186.833C53.2623 186.833 1.24609 191.348 1.24609 196.917C1.24609 202.486 53.2623 207 117.428 207Z" fill="#EDF0FC"/>
<path d="M89.0932 36.418C88.2068 34.5575 88.2526 32.7544 89.2304 31.003L89.705 30.1704C90.1682 29.4124 90.4656 28.8267 90.5971 28.4132C90.7286 28.0055 90.6886 27.5921 90.4942 27.1671C89.991 26.1105 88.8587 26.0014 87.0917 26.8456C86.274 27.236 85.4791 27.7528 84.7129 28.3902C83.9466 29.0276 83.2661 29.734 82.6714 30.5092L80.6699 26.2943C81.9794 24.7266 83.6664 23.4461 85.7422 22.4527C87.9781 21.3788 89.9738 20.9998 91.7294 21.3157C93.4849 21.6315 94.7544 22.6134 95.5436 24.2787C95.9839 25.209 96.1326 26.0646 95.9896 26.8398C95.8467 27.615 95.4406 28.597 94.7773 29.7914C94.337 30.6068 94.0282 31.2212 93.8452 31.6347C93.6622 32.0481 93.5707 32.4558 93.5707 32.8578C93.5707 33.2598 93.6851 33.7019 93.9138 34.1728L94.1597 34.6953L89.3619 36.9923L89.0932 36.418ZM92.7701 42.7059C92.061 42.4532 91.5349 41.9709 91.1976 41.2588C90.8487 40.5296 90.803 39.8118 91.0603 39.1055C91.3177 38.3991 91.8094 37.8709 92.5357 37.5263C93.2448 37.1875 93.9653 37.1416 94.6915 37.3828C95.4235 37.6297 95.9553 38.1063 96.2927 38.8183C96.6301 39.5304 96.6644 40.2482 96.3956 40.9717C96.1269 41.6953 95.6351 42.2235 94.926 42.5681C94.1997 42.9126 93.4792 42.9586 92.7701 42.7059Z" fill="#3147EB"/>
<path d="M112.396 20.3337C113.591 17.4683 115.656 15.7111 118.589 15.0622L119.996 14.7636C121.311 14.5225 122.266 14.2755 122.849 14.0114C123.438 13.7472 123.867 13.2936 124.136 12.6447C124.817 11.0139 123.799 9.62998 121.082 8.48726C119.824 7.95896 118.452 7.57997 116.971 7.35027C115.49 7.12058 114.014 7.06316 112.556 7.178L115.261 0.689155C118.326 0.591535 121.454 1.21171 124.645 2.55542C128.087 4.00249 130.512 5.87449 131.919 8.16569C133.331 10.4569 133.503 12.8859 132.433 15.4412C131.833 16.8768 131.032 17.899 130.02 18.5134C129.008 19.1278 127.504 19.6561 125.508 20.1098C124.159 20.4313 123.158 20.6955 122.512 20.9079C121.866 21.1147 121.317 21.419 120.871 21.8267C120.419 22.2344 120.047 22.8029 119.739 23.5322L119.407 24.3361L112.024 21.2295L112.396 20.3337ZM109.045 30.7848C108.616 29.7282 108.628 28.6544 109.085 27.5576C109.554 26.4321 110.309 25.6626 111.355 25.2434C112.402 24.8242 113.483 24.8529 114.603 25.3238C115.696 25.7832 116.468 26.5469 116.931 27.615C117.388 28.6831 117.388 29.7626 116.931 30.8594C116.473 31.9562 115.707 32.7142 114.626 33.1334C113.545 33.5526 112.459 33.5354 111.372 33.076C110.252 32.6051 109.474 31.8414 109.045 30.7848Z" fill="#3147EB"/>
<path d="M232.205 123.673V120.376H230.021V123.673H226.738V125.866H230.021V129.162H232.205V125.866H235.487V123.673H232.205Z" fill="#5A6CEF"/>
<path d="M211.587 18.1455V13.1152H208.254V18.1455H203.25V21.4876H208.254V26.5179H211.587V21.4876H216.591V18.1455H211.587Z" fill="#5A6CEF"/>
<path d="M202.513 115.467V113.066H200.924V115.467H198.533V117.063H200.924V119.463H202.513V117.063H204.904V115.467H202.513Z" fill="#5A6CEF"/>
<path d="M66.1675 31.956V29.5557H64.5778V31.956H62.1875V33.5523H64.5778V35.9526H66.1675V33.5523H68.5578V31.956H66.1675Z" fill="#5A6CEF"/>
<path d="M47.7383 16.0783V12.7822H45.5539V16.0783H42.2715V18.2662H45.5539V21.5623H47.7383V18.2662H51.0207V16.0783H47.7383Z" fill="#5A6CEF"/>
<path d="M155.548 22.8085C155.548 23.5033 154.988 24.0603 154.301 24.0603C153.609 24.0603 153.055 23.4976 153.055 22.8085C153.055 22.1137 153.615 21.5567 154.301 21.5567C154.988 21.5509 155.548 22.1137 155.548 22.8085Z" fill="#EEF1FF"/>
<path d="M160.661 1.25183C160.661 1.94665 160.101 2.50366 159.415 2.50366C158.723 2.50366 158.168 1.94091 158.168 1.25183C158.168 0.557007 158.728 0 159.415 0C160.101 0 160.661 0.56275 160.661 1.25183Z" fill="#EEF1FF"/>
<path d="M185.049 13.9307C186.354 13.9307 187.411 12.8689 187.411 11.5591C187.411 10.2493 186.354 9.1875 185.049 9.1875C183.745 9.1875 182.688 10.2493 182.688 11.5591C182.688 12.8689 183.745 13.9307 185.049 13.9307Z" fill="#EEF1FF"/>
<path d="M234.857 100.732C234.857 101.427 234.296 101.984 233.61 101.984C232.918 101.984 232.363 101.421 232.363 100.732C232.363 100.037 232.924 99.4805 233.61 99.4805C234.296 99.4805 234.857 100.043 234.857 100.732Z" fill="#EEF1FF"/>
<path d="M233.605 139.878C233.605 140.573 233.044 141.13 232.358 141.13C231.666 141.13 231.111 140.567 231.111 139.878C231.111 139.183 231.672 138.626 232.358 138.626C233.05 138.62 233.605 139.183 233.605 139.878Z" fill="#EEF1FF"/>
<path d="M43.5225 71.4174C43.5225 72.1122 42.9621 72.6692 42.2759 72.6692C41.5897 72.6692 41.0293 72.1064 41.0293 71.4174C41.0293 70.7225 41.5897 70.1655 42.2759 70.1655C42.9621 70.1655 43.5225 70.7225 43.5225 71.4174Z" fill="#EEF1FF"/>
<path d="M21.7934 21.792C23.0977 21.792 24.1551 20.7302 24.1551 19.4204C24.1551 18.1106 23.0977 17.0488 21.7934 17.0488C20.489 17.0488 19.4316 18.1106 19.4316 19.4204C19.4316 20.7302 20.489 21.792 21.7934 21.792Z" fill="#EEF1FF"/>
<path d="M68.4112 6.02922C68.4112 6.72404 67.8508 7.28105 67.1646 7.28105C66.4727 7.28105 65.918 6.7183 65.918 6.02922C65.918 5.33439 66.4784 4.77739 67.1646 4.77739C67.8565 4.77164 68.4112 5.33439 68.4112 6.02922Z" fill="#EEF1FF"/>
<path d="M2.4991 81.2081C2.4991 81.9029 1.93869 82.46 1.25248 82.46C0.560548 82.46 0.00585938 81.8972 0.00585938 81.2081C0.00585938 80.5133 0.566266 79.9563 1.25248 79.9563C1.93869 79.9563 2.4991 80.519 2.4991 81.2081Z" fill="#EEF1FF"/>
<path d="M2.4991 148.02C2.4991 148.715 1.93869 149.272 1.25248 149.272C0.560548 149.272 0.00585938 148.71 0.00585938 148.02C0.00585938 147.326 0.566266 146.769 1.25248 146.769C1.93869 146.763 2.4991 147.326 2.4991 148.02Z" fill="#EEF1FF"/>
<path d="M184.522 185.77C184.522 185.77 163.832 144.236 219.948 116.673C219.948 116.673 224.248 175.853 184.522 185.77Z" fill="#8391F3"/>
<path d="M186.906 180.482C186.895 174.544 188.13 168.647 189.828 162.956C190.046 162.244 190.24 161.526 190.48 160.82L191.241 158.718L192.001 156.617L192.865 154.555C193.974 151.787 195.364 149.152 196.679 146.481L198.915 142.617C199.636 141.313 200.453 140.073 201.288 138.838C202.129 137.609 202.924 136.352 203.799 135.158C204.691 133.969 205.6 132.792 206.509 131.62L207.876 129.863L209.345 128.192L212.302 124.873C212.788 124.316 213.326 123.805 213.852 123.288L215.441 121.738C216.505 120.71 217.574 119.693 218.655 118.688C217.729 119.843 216.797 120.985 215.853 122.117L214.435 123.805C213.96 124.368 213.48 124.919 213.051 125.522L210.375 129.025L209.025 130.765L207.773 132.573C206.944 133.779 206.103 134.985 205.257 136.174C204.433 137.386 203.69 138.649 202.907 139.878C201.277 142.307 199.933 144.914 198.469 147.44C195.736 152.609 193.322 157.943 191.327 163.444C189.371 168.963 187.73 174.619 186.906 180.482Z" fill="#3147EB"/>
<path opacity="0.1" d="M217.848 116.259C217.065 130.541 212.187 168.503 182.76 177.1C183.823 181.412 185.11 183.996 185.11 183.996C224.836 174.079 220.536 114.898 220.536 114.898C219.621 115.346 218.723 115.806 217.848 116.259Z" fill="#2739BC"/>
<path d="M179.461 199.139C179.461 199.139 182.406 186.494 194.718 171.168C208.208 154.377 225.803 148.336 233.106 156.404C240.196 164.237 234.169 175.061 215.91 180.591C197.651 186.121 187.33 188.504 179.461 199.139Z" fill="#3147EB"/>
<path d="M227.324 160.802C223.144 162.462 219.101 164.386 215.127 166.424C211.164 168.486 207.298 170.72 203.604 173.217C199.898 175.692 196.376 178.431 193.105 181.458C189.845 184.495 186.86 187.837 184.281 191.536C185.322 189.531 186.551 187.631 187.878 185.793C189.251 183.996 190.709 182.244 192.304 180.637C195.472 177.386 199.035 174.538 202.786 172C204.679 170.754 206.6 169.565 208.573 168.457C210.557 167.372 212.565 166.332 214.623 165.402C218.723 163.513 222.966 161.922 227.324 160.802Z" fill="#6F7EF1"/>
<path opacity="0.1" d="M233.106 156.404C232.711 155.968 232.276 155.577 231.825 155.221C225.9 169.79 208.596 180.338 188.153 180.361C181.308 191.237 179.461 199.133 179.461 199.133C187.33 188.498 197.651 186.115 215.91 180.585C234.169 175.061 240.191 164.237 233.106 156.404Z" fill="#2739BC"/>
<path d="M73.4869 192.035C73.4869 192.035 30.9874 210.348 6.86133 152.488C6.86133 152.488 65.95 151.632 73.4869 192.035Z" fill="#8391F3"/>
<path d="M70.0905 190.031C64.189 189.698 58.3963 188.113 52.8379 186.075C52.146 185.816 51.4369 185.575 50.7507 185.294L48.7092 184.409L46.6677 183.519L44.672 182.537C41.9843 181.263 39.4454 179.712 36.8663 178.242L33.1551 175.773C31.9027 174.975 30.7133 174.079 29.541 173.177C28.3687 172.264 27.1679 171.392 26.0242 170.444C24.8976 169.479 23.7768 168.503 22.6674 167.521L21.0034 166.051L19.4251 164.484L16.2971 161.325C15.771 160.808 15.2964 160.24 14.8103 159.677L13.3635 157.995C12.4029 156.869 11.4593 155.732 10.5215 154.595C11.6137 155.594 12.7002 156.594 13.7696 157.604L15.365 159.126C15.8968 159.631 16.4172 160.148 16.989 160.613L20.3115 163.496L21.9584 164.949L23.6796 166.31C24.829 167.211 25.9784 168.124 27.1107 169.043C28.2658 169.939 29.4781 170.754 30.6561 171.616C32.9778 173.396 35.4882 174.889 37.9128 176.508C42.8879 179.551 48.0516 182.279 53.4041 184.599C58.7851 186.884 64.3148 188.866 70.0905 190.031Z" fill="#3147EB"/>
<path opacity="0.1" d="M8.05648 155.261C22.2096 156.886 59.6654 163.99 66.4932 193.988C70.8392 193.178 73.4869 192.035 73.4869 192.035C65.95 151.632 6.86133 152.488 6.86133 152.488C7.2559 153.429 7.65619 154.354 8.05648 155.261Z" fill="#2739BC"/>
<path d="M56.0048 176.445C56.0048 176.445 55.7989 163.456 46.9983 145.861C37.357 126.578 21.4426 116.931 12.6018 123.265C4.01847 129.409 7.62108 141.267 24.2961 150.564C40.9767 159.849 50.5608 164.374 56.0048 176.445Z" fill="#3147EB"/>
<path d="M17.3262 128.789C21.0603 131.298 24.6057 134.043 28.0597 136.88C31.4965 139.74 34.8074 142.743 37.884 145.97C40.9834 149.174 43.8483 152.603 46.4044 156.255C48.9491 159.918 51.1565 163.817 52.9006 167.986C52.3059 165.81 51.5053 163.685 50.5961 161.607C49.6354 159.557 48.5832 157.535 47.3594 155.623C44.952 151.77 42.0699 148.227 38.9419 144.954C37.3579 143.334 35.7281 141.761 34.0297 140.262C32.3199 138.781 30.5758 137.334 28.7631 135.99C25.1547 133.268 21.3462 130.816 17.3262 128.789Z" fill="#6F7EF1"/>
<path opacity="0.1" d="M12.6016 123.259C13.082 122.915 13.5852 122.628 14.1056 122.381C16.8161 137.879 31.5068 151.873 51.4813 156.249C55.8787 168.337 56.0103 176.445 56.0103 176.445C50.5663 164.374 40.9822 159.849 24.3015 150.558C7.62084 141.267 4.01823 129.409 12.6016 123.259Z" fill="#2739BC"/>
<path d="M173.727 189.021C173.264 192.093 170.193 194.608 166.894 194.608H69.3999C66.1061 194.608 62.9952 192.099 62.492 189.032L46.3489 90.7233C45.8456 87.6569 48.1273 85.1475 51.4268 85.1475H183.374C186.668 85.1475 188.99 87.6626 188.526 90.7348L173.727 189.021Z" fill="#6F7EF1"/>
<path d="M149.258 52.2954H67.1641V168.434H167.557V70.9408L149.258 52.2954Z" fill="#5A6CEF"/>
<path d="M149.258 52.2954L167.694 70.803H149.258V52.2954Z" fill="#3147EB"/>
<path d="M145.227 89.0233L137.044 80.8003L117.43 100.497L97.8158 80.8003L89.627 89.0233L109.241 108.714L89.627 128.41L97.8158 136.633L117.43 116.937L137.044 136.633L145.227 128.41L125.613 108.714L145.227 89.0233Z" fill="#98A3F5"/>
<path d="M126.956 118.878C124.365 118.884 121.626 116.851 120.86 114.364L117.097 102.116C116.337 99.6295 113.592 97.5967 111.001 97.5967H44.1298C41.5394 97.5967 39.7953 99.6926 40.247 102.248L56.5732 194.619C57.0249 197.18 59.5124 199.271 62.1029 199.271H177.953C180.543 199.271 182.991 197.169 183.397 194.602L194.628 123.437C195.034 120.87 193.244 118.774 190.659 118.774L126.956 118.878Z" fill="#3147EB"/>
<path d="M110.665 162.169C110.665 158.574 112.088 155.772 114.931 153.762L116.297 152.809C117.595 151.965 118.499 151.27 119.008 150.719C119.517 150.173 119.774 149.496 119.774 148.686C119.774 146.642 118.07 145.62 114.668 145.62C113.089 145.62 111.454 145.832 109.773 146.257C108.091 146.682 106.49 147.279 104.98 148.054V139.912C108.211 138.43 111.825 137.689 115.828 137.689C120.146 137.689 123.571 138.597 126.093 140.411C128.62 142.226 129.884 144.735 129.884 147.945C129.884 149.743 129.478 151.195 128.672 152.309C127.866 153.418 126.493 154.664 124.566 156.036C123.268 156.989 122.319 157.719 121.724 158.23C121.129 158.741 120.678 159.315 120.38 159.947C120.083 160.584 119.934 161.359 119.934 162.272V163.277H110.665V162.169ZM111.745 174.831C110.813 173.895 110.35 172.741 110.35 171.368C110.35 169.961 110.813 168.796 111.745 167.877C112.672 166.958 113.844 166.505 115.245 166.505C116.612 166.505 117.784 166.97 118.745 167.906C119.711 168.842 120.192 169.996 120.192 171.368C120.192 172.741 119.705 173.895 118.745 174.831C117.778 175.767 116.612 176.232 115.245 176.232C113.838 176.232 112.672 175.761 111.745 174.831Z" fill="white"/>
<path opacity="0.1" d="M190.653 118.78L183.408 118.792C183.568 120.469 183.654 122.157 183.654 123.862C183.654 162.009 142.996 192.937 92.8394 192.937C79.401 192.937 66.6489 190.715 55.1777 186.735L56.573 194.625C57.0248 197.186 59.5123 199.276 62.1028 199.276H177.953C180.543 199.276 182.991 197.175 183.397 194.608L194.628 123.443C195.028 120.876 193.244 118.78 190.653 118.78Z" fill="#2739BC"/>
<g opacity="0.3">
<path d="M51.4841 111.309C51.8272 113.629 52.1703 115.949 52.5192 118.263C53.3369 123.782 54.1604 129.3 54.9781 134.818C55.9731 141.537 56.9738 148.255 57.9746 154.974C58.8323 160.745 59.6901 166.51 60.5421 172.281C60.8281 174.199 61.114 176.117 61.3942 178.029C61.5257 178.931 61.6058 179.861 61.8002 180.751C61.8059 180.792 61.8116 180.832 61.8174 180.866C61.9374 181.659 62.9267 182.089 63.6244 181.9C64.465 181.67 64.7681 180.878 64.6537 180.085C64.3106 177.765 63.9675 175.445 63.6187 173.131C62.8009 167.613 61.9775 162.094 61.1597 156.576C60.159 149.858 59.164 143.139 58.1633 136.42C57.3055 130.649 56.4477 124.884 55.5957 119.113C55.3098 117.195 55.0239 115.277 54.7437 113.365C54.6121 112.463 54.5321 111.533 54.3376 110.643C54.3319 110.603 54.3262 110.563 54.3205 110.528C54.2004 109.736 53.2111 109.305 52.5135 109.495C51.6728 109.724 51.3698 110.517 51.4841 111.309Z" fill="white"/>
</g>
<path d="M212.933 60.1685C203.892 60.1685 196.566 67.5301 196.566 76.603C196.566 80.6629 198.03 84.3724 200.461 87.2379L199.774 95.7021L207.597 92.1418C209.273 92.7218 211.068 93.0434 212.938 93.0434C221.979 93.0434 229.304 85.6817 229.304 76.6088C229.304 67.5359 221.973 60.1685 212.933 60.1685Z" fill="#2C40D4"/>
<path d="M211.799 85.0154C211.502 84.7168 211.353 84.3435 211.353 83.9014C211.353 83.4592 211.502 83.0859 211.799 82.7873C212.097 82.4887 212.468 82.3337 212.909 82.3337C213.349 82.3337 213.721 82.483 214.03 82.7873C214.338 83.0859 214.493 83.4592 214.493 83.9014C214.493 84.3435 214.338 84.7168 214.03 85.0154C213.721 85.314 213.349 85.469 212.909 85.469C212.468 85.469 212.097 85.3197 211.799 85.0154ZM210.873 66.5308H214.996L214.23 79.7669H211.639L210.873 66.5308Z" fill="#F2F2F2"/>
<path opacity="0.1" d="M203.966 85.3141C202.188 85.3141 200.455 85.1591 198.785 84.8605C199.277 85.7046 199.837 86.497 200.461 87.2378L199.774 95.702L207.597 92.1418C209.273 92.7217 211.068 93.0433 212.938 93.0433C221.979 93.0433 229.304 85.6816 229.304 76.6087C229.304 74.4094 228.87 72.3135 228.092 70.3955C224.81 79.0492 215.249 85.3141 203.966 85.3141Z" fill="#2739BC"/>
<path d="M45.2333 55.7237V40.1332C45.2333 38.2612 43.7065 36.728 41.8423 36.728H13.5531C11.6889 36.728 10.1621 38.2612 10.1621 40.1332V59.772C10.1621 61.6441 11.6889 63.1773 13.5531 63.1773H38.8801H41.8423H53.3935L45.2333 55.7237Z" fill="#6F7EF1"/>
<path d="M22.9711 47.7647C22.9711 49.2577 22.1077 50.4693 21.0383 50.4693C19.969 50.4693 19.1055 49.2577 19.1055 47.7647C19.1055 46.2717 19.969 45.0601 21.0383 45.0601C22.1019 45.0601 22.9711 46.2717 22.9711 47.7647Z" fill="white"/>
<path d="M35.8149 47.7647C35.8149 49.2577 34.9514 50.4693 33.8821 50.4693C32.8127 50.4693 31.9492 49.2577 31.9492 47.7647C31.9492 46.2717 32.8127 45.0601 33.8821 45.0601C34.9457 45.0601 35.8149 46.2717 35.8149 47.7647Z" fill="white"/>
<path d="M23.0281 55.3389C23.6914 54.6096 24.6121 54.0353 25.527 53.708C27.8487 52.8696 30.0903 53.7482 31.8573 55.3389C32.332 55.7638 33.0296 55.0632 32.555 54.6383C30.5936 52.8696 28.0546 51.8303 25.447 52.6859C24.3033 53.0591 23.1424 53.7367 22.3247 54.6383C21.9015 55.1034 22.5992 55.8097 23.0281 55.3389Z" fill="white"/>
<path opacity="0.1" d="M45.2325 55.7237V40.1332C45.2325 38.2612 43.7057 36.728 41.8415 36.728H38.9422C39.4454 38.5771 39.7142 40.5007 39.7142 42.4704C39.7142 50.7508 35.0308 58.1642 27.6426 63.1773H38.8793H41.8415H53.3927L45.2325 55.7237Z" fill="#2739BC"/>
<path d="M142.984 143.013C133.914 152.12 133.914 166.895 142.984 176.003C152.053 185.11 166.767 185.11 175.836 176.003C184.906 166.895 184.906 152.12 175.836 143.013C166.767 133.9 152.059 133.9 142.984 143.013ZM173.177 173.327C165.577 180.958 153.254 180.958 145.649 173.327C138.049 165.695 138.049 153.321 145.649 145.683C153.248 138.052 165.572 138.052 173.177 145.683C180.777 153.321 180.777 165.695 173.177 173.327Z" fill="#2C40D4"/>
<path opacity="0.3" d="M159.413 179.052C170.163 179.052 178.878 170.3 178.878 159.505C178.878 148.709 170.163 139.958 159.413 139.958C148.662 139.958 139.947 148.709 139.947 159.505C139.947 170.3 148.662 179.052 159.413 179.052Z" fill="white"/>
<path d="M175.212 172.45L172.301 175.373L198.64 201.823L201.552 198.899L175.212 172.45Z" fill="#8391F3"/>
<path d="M175.212 172.454L172.301 175.377L182.001 185.118L184.912 182.195L175.212 172.454Z" fill="#2C40D4"/>
<path d="M148.078 151.472C148.816 149.33 150.434 147.601 152.384 146.401C154.346 145.207 156.667 144.569 158.995 144.569C161.322 144.564 163.649 145.201 165.611 146.395C167.561 147.596 169.179 149.33 169.911 151.472C167.784 150.748 165.983 150.18 164.193 149.829C162.42 149.468 160.71 149.301 158.995 149.295C157.279 149.301 155.564 149.462 153.791 149.824C152.001 150.168 150.205 150.742 148.078 151.472Z" fill="white"/>
</g>
<defs>
<clipPath id="clip0_50_3860">
<rect width="236" height="207" fill="white"/>
</clipPath>
</defs>
</svg>
