<svg width="20" height="20" viewBox="0 0 20 20" fill="none" xmlns="http://www.w3.org/2000/svg">
<path d="M10.0007 14.1667C10.2368 14.1667 10.4348 14.0867 10.5948 13.9267C10.7548 13.7667 10.8345 13.569 10.834 13.3334V10.0001C10.834 9.76397 10.754 9.56619 10.594 9.40675C10.434 9.2473 10.2362 9.1673 10.0007 9.16675C9.7651 9.16619 9.56732 9.24619 9.40732 9.40675C9.24732 9.5673 9.16732 9.76508 9.16732 10.0001V13.3334C9.16732 13.5695 9.24732 13.7676 9.40732 13.9276C9.56732 14.0876 9.7651 14.1673 10.0007 14.1667ZM10.0007 7.50008C10.2368 7.50008 10.4348 7.42008 10.5948 7.26008C10.7548 7.10008 10.8345 6.9023 10.834 6.66675C10.8334 6.43119 10.7534 6.23342 10.594 6.07341C10.4345 5.91341 10.2368 5.83342 10.0007 5.83342C9.76454 5.83342 9.56676 5.91341 9.40732 6.07341C9.24787 6.23342 9.16787 6.43119 9.16732 6.66675C9.16676 6.9023 9.24676 7.10036 9.40732 7.26092C9.56787 7.42147 9.76565 7.50119 10.0007 7.50008ZM10.0007 18.2501C9.90343 18.2501 9.81315 18.2431 9.72982 18.2292C9.64648 18.2154 9.56315 18.1945 9.47982 18.1667C7.60482 17.5417 6.11176 16.3854 5.00065 14.6976C3.88954 13.0098 3.33398 11.194 3.33398 9.25008V5.31258C3.33398 4.96536 3.43482 4.65286 3.63648 4.37508C3.83815 4.0973 4.09843 3.89591 4.41732 3.77091L9.41732 1.89591C9.61176 1.82647 9.80621 1.79175 10.0007 1.79175C10.1951 1.79175 10.3895 1.82647 10.584 1.89591L15.584 3.77091C15.9034 3.89591 16.164 4.0973 16.3657 4.37508C16.5673 4.65286 16.6679 4.96536 16.6673 5.31258V9.25008C16.6673 11.1945 16.1118 13.0106 15.0007 14.6984C13.8895 16.3862 12.3965 17.5423 10.5215 18.1667C10.4382 18.1945 10.3548 18.2154 10.2715 18.2292C10.1882 18.2431 10.0979 18.2501 10.0007 18.2501ZM10.0007 16.5834C11.4451 16.1251 12.6395 15.2084 13.584 13.8334C14.5284 12.4584 15.0007 10.9306 15.0007 9.25008V5.31258L10.0007 3.43758L5.00065 5.31258V9.25008C5.00065 10.9306 5.47287 12.4584 6.41732 13.8334C7.36176 15.2084 8.55621 16.1251 10.0007 16.5834Z" fill="#1B1C22"/>
</svg>
