<svg width="20" height="20" viewBox="0 0 20 20" fill="none" xmlns="http://www.w3.org/2000/svg">
<g clip-path="url(#clip0_18_1288)">
<path d="M18.3333 15.8333H13.3333V12.5H11.1C10.15 14.5167 8.1 15.8333 5.83333 15.8333C2.61667 15.8333 0 13.2167 0 10C0 6.78334 2.61667 4.16667 5.83333 4.16667C8.1 4.16667 10.1417 5.48334 11.1 7.50001H20V12.5H18.3333V15.8333ZM15 14.1667H16.6667V10.8333H18.3333V9.16667H9.95L9.75833 8.60834C9.175 6.95001 7.59167 5.83334 5.83333 5.83334C3.53333 5.83334 1.66667 7.70001 1.66667 10C1.66667 12.3 3.53333 14.1667 5.83333 14.1667C7.59167 14.1667 9.175 13.05 9.75833 11.3917L9.95 10.8333H15V14.1667ZM5.83333 12.5C4.45833 12.5 3.33333 11.375 3.33333 10C3.33333 8.625 4.45833 7.50001 5.83333 7.50001C7.20833 7.50001 8.33333 8.625 8.33333 10C8.33333 11.375 7.20833 12.5 5.83333 12.5ZM5.83333 9.16667C5.375 9.16667 5 9.54167 5 10C5 10.4583 5.375 10.8333 5.83333 10.8333C6.29167 10.8333 6.66667 10.4583 6.66667 10C6.66667 9.54167 6.29167 9.16667 5.83333 9.16667Z" fill="#1B1C22"/>
</g>
<defs>
<clipPath id="clip0_18_1288">
<rect width="20" height="20" fill="white"/>
</clipPath>
</defs>
</svg>
