<svg width="24" height="25" viewBox="0 0 24 25" fill="none" xmlns="http://www.w3.org/2000/svg">
<path fill-rule="evenodd" clip-rule="evenodd" d="M8.172 16.329C12.017 20.174 15.58 20.595 16.626 20.634C17.89 20.68 19.18 19.648 19.738 18.591C18.848 17.547 17.689 16.737 16.42 15.859C15.671 16.607 14.748 17.997 13.519 17.499C12.82 17.218 11.094 16.423 9.586 14.914C8.078 13.405 7.283 11.68 7 10.982C6.502 9.75097 7.896 8.82597 8.645 8.07697C7.767 6.78697 6.971 5.59797 5.929 4.75297C4.857 5.31297 3.819 6.59297 3.866 7.87397C3.905 8.91997 4.326 12.483 8.172 16.329ZM16.552 22.633C15.112 22.58 11.031 22.016 6.757 17.743C2.484 13.469 1.921 9.38897 1.867 7.94797C1.787 5.75197 3.469 3.61897 5.412 2.78597C5.64598 2.68494 5.9022 2.64647 6.15553 2.67435C6.40886 2.70222 6.65059 2.79548 6.857 2.94497C8.465 4.11797 9.574 5.89497 10.527 7.28697C10.7252 7.57642 10.8161 7.92607 10.7837 8.27542C10.7514 8.62476 10.598 8.95181 10.35 9.19997L8.994 10.557C9.309 11.252 9.95 12.45 11 13.5C12.05 14.55 13.248 15.191 13.944 15.506L15.299 14.15C15.5478 13.9009 15.8763 13.7473 16.2269 13.7161C16.5776 13.6848 16.9281 13.7779 17.217 13.979C18.637 14.963 20.305 16.056 21.521 17.613C21.6826 17.8209 21.7854 18.0684 21.8187 18.3296C21.8519 18.5908 21.8144 18.8562 21.71 19.098C20.873 21.051 18.755 22.714 16.552 22.633Z" fill="#3147EB"/>
</svg>
