<svg width="24" height="24" viewBox="0 0 24 24" fill="none" xmlns="http://www.w3.org/2000/svg">
<path d="M21.45 11.2271H20.06C19.8783 9.33662 19.0445 7.5683 17.7016 6.22541C16.3587 4.88251 14.5904 4.04872 12.7 3.86705V2.47705C12.7 2.27814 12.621 2.08737 12.4803 1.94672C12.3397 1.80607 12.1489 1.72705 11.95 1.72705C11.7511 1.72705 11.5603 1.80607 11.4197 1.94672C11.279 2.08737 11.2 2.27814 11.2 2.47705V3.86705C9.31784 4.0578 7.56021 4.89582 6.22707 6.23807C4.89393 7.58033 4.06792 9.34363 3.89 11.2271H2.5C2.40151 11.2271 2.30398 11.2464 2.21299 11.2841C2.12199 11.3218 2.03931 11.3771 1.96967 11.4467C1.90003 11.5164 1.84478 11.599 1.80709 11.69C1.7694 11.781 1.75 11.8786 1.75 11.9771C1.75 12.0755 1.7694 12.1731 1.80709 12.2641C1.84478 12.3551 1.90003 12.4377 1.96967 12.5074C2.03931 12.577 2.12199 12.6323 2.21299 12.67C2.30398 12.7077 2.40151 12.7271 2.5 12.7271H3.89C4.07167 14.6175 4.90546 16.3858 6.24835 17.7287C7.59125 19.0716 9.35957 19.9054 11.25 20.0871V21.4771C11.25 21.676 11.329 21.8667 11.4697 22.0074C11.6103 22.148 11.8011 22.2271 12 22.2271C12.1989 22.2271 12.3897 22.148 12.5303 22.0074C12.671 21.8667 12.75 21.676 12.75 21.4771V20.0871C14.6397 19.9035 16.407 19.0691 17.7496 17.7266C19.0921 16.3841 19.9265 14.6168 20.11 12.7271H21.5C21.5985 12.7271 21.696 12.7077 21.787 12.67C21.878 12.6323 21.9607 12.577 22.0303 12.5074C22.1 12.4377 22.1552 12.3551 22.1929 12.2641C22.2306 12.1731 22.25 12.0755 22.25 11.9771C22.25 11.8786 22.2306 11.781 22.1929 11.69C22.1552 11.599 22.1 11.5164 22.0303 11.4467C21.9607 11.3771 21.878 11.3218 21.787 11.2841C21.696 11.2464 21.5985 11.2271 21.5 11.2271H21.45ZM11.95 18.6171C10.6367 18.6171 9.35296 18.2276 8.26101 17.498C7.16907 16.7684 6.31801 15.7314 5.81544 14.5181C5.31287 13.3048 5.18138 11.9697 5.43759 10.6817C5.69379 9.39362 6.32619 8.21048 7.25481 7.28186C8.18343 6.35324 9.36657 5.72084 10.6546 5.46464C11.9426 5.20843 13.2777 5.33993 14.491 5.84249C15.7043 6.34506 16.7413 7.19612 17.471 8.28806C18.2006 9.38001 18.59 10.6638 18.59 11.9771C18.59 13.739 17.8908 15.4289 16.6458 16.6758C15.4008 17.9226 13.712 18.6244 11.95 18.6271V18.6171Z" fill="#1B1C22"/>
<path d="M16.4799 11.9868C16.4799 12.8851 16.2134 13.7633 15.7141 14.5101C15.2148 15.2569 14.5051 15.8388 13.675 16.1821C12.8448 16.5255 11.9315 16.6148 11.0505 16.4388C10.1696 16.2628 9.36063 15.8294 8.7261 15.1935C8.09157 14.5576 7.65997 13.7477 7.48592 12.8664C7.31188 11.985 7.40321 11.0719 7.74837 10.2425C8.09352 9.41306 8.67698 8.70471 9.4249 8.20705C10.1728 7.70939 11.0516 7.44481 11.9499 7.44679C12.5456 7.44679 13.1355 7.56429 13.6858 7.79257C14.236 8.02085 14.7359 8.35542 15.1566 8.77713C15.5774 9.19884 15.9109 9.6994 16.138 10.2502C16.365 10.8009 16.4812 11.3911 16.4799 11.9868Z" fill="#1B1C22"/>
</svg>
