<svg width="20" height="20" viewBox="0 0 20 20" fill="none" xmlns="http://www.w3.org/2000/svg">
<path fill-rule="evenodd" clip-rule="evenodd" d="M7.05405 2.88701C7.83545 2.10561 8.89526 1.66663 10.0003 1.66663C11.1054 1.66663 12.1652 2.10561 12.9466 2.88701C13.728 3.66842 14.167 4.72822 14.167 5.83329C14.167 6.93836 13.728 7.99817 12.9466 8.77957C12.1652 9.56097 11.1054 9.99996 10.0003 9.99996C8.89526 9.99996 7.83545 9.56097 7.05405 8.77957C6.27265 7.99817 5.83366 6.93836 5.83366 5.83329C5.83366 4.72822 6.27265 3.66842 7.05405 2.88701ZM10.0003 3.33329C9.33728 3.33329 8.7014 3.59668 8.23256 4.06553C7.76372 4.53437 7.50033 5.17025 7.50033 5.83329C7.50033 6.49633 7.76372 7.13222 8.23256 7.60106C8.7014 8.0699 9.33728 8.33329 10.0003 8.33329C10.6634 8.33329 11.2993 8.0699 11.7681 7.60106C12.2369 7.13222 12.5003 6.49633 12.5003 5.83329C12.5003 5.17025 12.2369 4.53437 11.7681 4.06553C11.2993 3.59668 10.6634 3.33329 10.0003 3.33329ZM8.33366 13.3333C7.67062 13.3333 7.03473 13.5967 6.56589 14.0655C6.09705 14.5344 5.83366 15.1703 5.83366 15.8333V17.5C5.83366 17.9602 5.46056 18.3333 5.00033 18.3333C4.54009 18.3333 4.16699 17.9602 4.16699 17.5V15.8333C4.16699 14.7282 4.60598 13.6684 5.38738 12.887C6.16878 12.1056 7.22859 11.6666 8.33366 11.6666H11.667C12.7721 11.6666 13.8319 12.1056 14.6133 12.887C15.3947 13.6684 15.8337 14.7282 15.8337 15.8333V17.5C15.8337 17.9602 15.4606 18.3333 15.0003 18.3333C14.5401 18.3333 14.167 17.9602 14.167 17.5V15.8333C14.167 15.1703 13.9036 14.5344 13.4348 14.0655C12.9659 13.5967 12.33 13.3333 11.667 13.3333H8.33366Z" fill="#1B1C22"/>
</svg>
