<svg width="40" height="41" viewBox="0 0 40 41" fill="none" xmlns="http://www.w3.org/2000/svg">
<g clip-path="url(#clip0_135_14585)">
<path d="M34.6686 36.1782C34.6686 36.238 34.6675 36.2989 34.6675 36.3587C34.6675 36.379 34.6675 36.3983 34.6686 36.4164V38.2947C34.6664 38.3236 34.6664 38.3546 34.6686 38.3898V39.2969C34.6303 39.9594 34.1144 40.4594 33.4549 40.4872C33.3219 40.4925 33.19 40.4893 33.057 40.4893C24.5812 40.4893 16.1054 40.4818 7.62963 40.5C6.8446 40.5021 6.30529 40.25 6 39.5234V30.8894C6.06489 30.7292 6.06489 30.57 6 30.4097V30.1693C6.02447 30.1426 6.06595 30.118 6.07127 30.0881C6.35635 28.2814 7.48497 27.1425 9.01567 26.3144C10.1975 25.6744 11.4771 25.2834 12.726 24.8122C13.2951 24.5974 13.8673 24.387 14.4205 24.1359C15.6097 23.5953 16.2405 22.452 16.115 21.155C16.0969 20.9712 15.9767 20.9135 15.8703 20.8259C14.663 19.8322 13.8429 18.5886 13.4855 17.0586C13.4216 16.7893 13.3121 16.7231 13.0621 16.7381C12.2739 16.7861 11.6037 16.5297 11.091 15.9079C10.7187 15.4559 10.59 14.9292 10.5932 14.3491C10.6017 12.444 10.6421 10.538 10.5868 8.63401C10.4623 4.36669 13.3323 1.70523 16.633 0.833392C17.4968 0.605816 18.3754 0.500041 19.2679 0.502178C21.1518 0.50752 23.0356 0.510725 24.9184 0.500041C25.4865 0.496836 25.9354 0.680606 26.2023 1.19666C26.4693 1.71485 26.3598 2.19885 26.0258 2.65293C25.7907 2.97132 25.5694 3.29826 25.3205 3.65191C25.7598 3.72777 26.1598 3.78226 26.5523 3.86881C28.55 4.31007 29.6733 5.53876 29.9584 7.57413C30.0616 8.31455 30.0903 9.05925 30.086 9.80501C30.0775 11.3104 30.0573 12.8159 30.0477 14.3213C30.0382 15.8171 29.1308 16.7434 27.648 16.7349C27.3512 16.7338 27.2267 16.7904 27.148 17.1142C26.7842 18.5929 25.997 19.8194 24.8195 20.781C24.6344 20.9317 24.5663 21.0791 24.5653 21.3142C24.5525 22.7021 25.1546 23.6722 26.4385 24.2214C27.7777 24.794 29.1765 25.2054 30.5179 25.7695C31.338 26.1146 32.1284 26.5153 32.8283 27.0741C33.9974 28.0068 34.6367 29.2238 34.6601 30.7238C34.6632 30.9279 34.6664 31.1309 34.6686 31.335C34.6867 32.9483 34.6792 34.5638 34.6686 36.1782Z" fill="#141C5E"/>
<path d="M6 30.4097C6.13828 30.5699 6.11063 30.7291 6 30.8894C6 30.7291 6 30.5699 6 30.4097Z" fill="#1C1C1C"/>
<path d="M9.01246 27.8209C9.74112 27.2685 10.5889 26.964 11.4293 26.6435C12.677 26.168 13.9631 25.7887 15.1629 25.1915C15.4065 25.0707 15.4257 25.2395 15.5033 25.3656C16.4788 26.9426 17.8648 27.9106 19.7146 28.0976C22.058 28.3358 23.8653 27.3924 25.1375 25.419C25.3035 25.1615 25.3971 25.1295 25.6758 25.2641C26.9065 25.8549 28.2181 26.2428 29.4903 26.7289C30.2711 27.027 31.0359 27.355 31.7295 27.8337C32.8092 28.5795 33.3985 29.5913 33.3995 30.9236C33.4016 33.5872 33.3985 36.2508 33.4102 38.9144C33.4112 39.1783 33.3176 39.2157 33.0889 39.2146C31.5114 39.2061 29.9328 39.205 28.3553 39.2157C28.116 39.2168 28.0373 39.1633 28.0426 38.909C28.0596 38.0575 28.05 37.2049 28.0479 36.3523C28.0468 35.848 27.8139 35.5488 27.4246 35.5414C27.0235 35.5339 26.7778 35.8459 26.7767 36.3705C26.7746 37.2092 26.765 38.049 26.7821 38.8877C26.7874 39.1516 26.7097 39.2157 26.4523 39.2157C22.3814 39.2082 18.3105 39.2071 14.2407 39.2168C13.9546 39.2178 13.8875 39.1291 13.8939 38.8567C13.9109 38.018 13.9024 37.1793 13.8992 36.3395C13.8971 35.833 13.6588 35.5392 13.2674 35.5414C12.8812 35.5435 12.6323 35.8501 12.6291 36.3459C12.6238 37.1985 12.6238 38.05 12.6302 38.9026C12.6313 39.0982 12.6228 39.22 12.3653 39.2157C11.0665 39.1975 9.76771 39.1986 8.4689 39.1933C8.32529 39.0415 8.34338 38.8481 8.34338 38.6644C8.34125 35.9356 8.32955 33.2058 8.35082 30.477C8.35508 29.8819 8.40082 29.2814 8.56357 28.698C8.65399 28.3732 8.77951 28.0698 9.01246 27.8209Z" fill="#3147EB"/>
<path d="M26.0885 13.7207C26.0481 14.6033 26.1917 15.6621 25.9439 16.6995C25.329 19.2766 23.126 21.0245 20.4582 21.0609C17.6436 21.0993 15.3885 19.4155 14.7162 16.7754C14.6003 16.3213 14.5481 15.8576 14.546 15.3918C14.5386 14.006 14.5364 12.6203 14.5449 11.2345C14.5503 10.3114 15.0949 9.75473 16.015 9.78465C17 9.8167 17.8638 9.54105 18.6499 8.95555C19.0743 8.63929 19.5094 8.32731 20.0614 8.2632C20.6454 8.19482 21.155 8.37646 21.6304 8.70553C22.2953 9.16496 22.9452 9.66498 23.7909 9.74191C24.0802 9.76755 24.3727 9.77183 24.6642 9.7761C25.5407 9.78892 26.0736 10.3103 26.0853 11.195C26.097 11.9813 26.0885 12.7677 26.0885 13.7207Z" fill="#FBE3D6"/>
<path d="M21.6262 1.78853C22.6474 1.78853 23.6686 1.78747 24.6898 1.79067C24.7876 1.79067 24.9206 1.73404 24.977 1.85478C25.0259 1.95735 24.9046 2.01077 24.8546 2.08342C24.6961 2.31207 24.5451 2.54712 24.376 2.76615C24.0281 3.21596 23.9494 3.70851 24.1728 4.22456C24.4153 4.78228 24.9185 4.9372 25.4705 4.98528C26.1343 5.04298 26.7672 5.19042 27.3629 5.51522C28.1926 5.96717 28.533 6.73217 28.667 7.59332C28.7926 8.40319 28.8223 9.22802 28.85 10.0496C28.8617 10.3937 28.7521 10.4311 28.466 10.3189C28.2979 10.2526 28.099 10.1928 27.9277 10.2174C27.3427 10.3018 27.0831 9.9396 26.7981 9.52077C26.3364 8.84018 25.6429 8.48546 24.8344 8.51859C23.9803 8.55277 23.2601 8.3252 22.5846 7.81021C21.9241 7.30591 21.1975 6.95974 20.321 6.97363C19.6147 6.98432 19.0052 7.20548 18.4201 7.57089C17.8851 7.90424 17.4096 8.34443 16.7565 8.46623C16.4639 8.52072 16.1757 8.49722 15.8863 8.50149C14.8556 8.51965 14.0886 8.98122 13.5993 9.88511C13.4834 10.0999 13.3653 10.2078 13.1143 10.1896C12.7834 10.1661 12.4611 10.258 12.1399 10.3274C12.041 10.3488 11.8835 10.4514 11.8931 10.2227C11.9442 9.01861 11.7495 7.80167 12.0803 6.61037C12.525 5.00665 13.4898 3.8068 14.8981 2.96167C16.2448 2.15394 17.7085 1.76182 19.2807 1.78533C20.0604 1.79815 20.8433 1.78853 21.6262 1.78853Z" fill="#EF905A"/>
<path d="M23.3654 22.4092C23.5537 23.0332 23.7728 23.6433 24.2132 24.1412C24.3142 24.2555 24.2845 24.3485 24.2249 24.4606C23.392 26.0077 22.0953 26.8603 20.3518 26.8635C18.6095 26.8667 17.3075 26.0238 16.4692 24.4767C16.398 24.3463 16.3863 24.2437 16.4916 24.1209C16.9117 23.6251 17.1404 23.0332 17.3128 22.4157C17.4425 22.3184 17.567 22.3943 17.6883 22.4338C19.4562 23.014 21.222 23.0321 22.9867 22.4231C23.1101 22.3815 23.2356 22.3227 23.3654 22.4092Z" fill="#F3AC83"/>
<path d="M9.01252 27.8209C8.55405 28.7921 8.47002 29.8316 8.46895 30.8841C8.46683 33.6534 8.46789 36.4239 8.46895 39.1932C8.08707 39.2157 7.60414 39.3546 7.35204 39.1516C7.10951 38.955 7.27864 38.4528 7.27758 38.0864C7.27013 35.7048 7.26481 33.3233 7.27864 30.9418C7.28715 29.5913 7.85625 28.5367 9.01252 27.8209Z" fill="#2739BC"/>
<path d="M27.3618 13.4697C27.3618 12.9237 27.3778 12.3767 27.3554 11.8318C27.3437 11.5369 27.4586 11.4717 27.7245 11.4845C28.3872 11.5166 28.7649 11.8777 28.7723 12.5316C28.7798 13.1705 28.7819 13.8105 28.7712 14.4494C28.7595 15.1428 28.2309 15.5627 27.5416 15.4687C27.3331 15.4399 27.3629 15.3159 27.3629 15.1877C27.3618 14.615 27.3618 14.0424 27.3618 13.4697Z" fill="#F5BA98"/>
<path d="M13.2706 13.4932C13.2706 14.0648 13.2653 14.6375 13.2738 15.2091C13.277 15.3918 13.2291 15.4591 13.0323 15.4677C12.3015 15.4997 11.8782 15.1204 11.8707 14.3843C11.8633 13.7592 11.8601 13.1331 11.8728 12.5081C11.8856 11.8275 12.3792 11.4215 13.0589 11.4813C13.2823 11.5006 13.2716 11.6245 13.2716 11.7762C13.2706 12.35 13.2706 12.9216 13.2706 13.4932Z" fill="#F5BA98"/>
<path d="M23.3654 22.4092C22.4123 22.7864 21.4283 22.9734 20.3986 22.983C19.3275 22.9926 18.3052 22.7981 17.3117 22.4167C17.3362 22.2084 17.3606 22 17.3894 21.7543C18.4031 22.1913 19.4317 22.3633 20.5008 22.343C21.3156 22.327 22.1017 22.1881 22.8665 21.9124C23.3154 21.7511 23.3143 21.7479 23.3558 22.2116C23.3611 22.2767 23.3622 22.343 23.3654 22.4092Z" fill="#F5BA98"/>
<path d="M29.3244 30.9407C29.3106 31.5604 29.1276 32.0657 28.7309 32.4739C28.0075 33.2164 27.2789 33.9547 26.5375 34.6791C25.9971 35.208 25.3131 35.1984 24.7663 34.662C24.0451 33.9547 23.3292 33.241 22.6293 32.5134C21.8198 31.6726 21.789 30.4257 22.5357 29.5816C23.291 28.728 24.5164 28.5965 25.4397 29.2996C25.6386 29.4513 25.728 29.4075 25.8992 29.2825C26.6045 28.7664 27.3735 28.6991 28.1479 29.0891C28.9128 29.4737 29.2808 30.1383 29.3244 30.9407Z" fill="#141C5E"/>
<path d="M24.1525 30.1393C24.3737 30.1393 24.5695 30.2088 24.7312 30.3627C24.8758 30.4994 25.013 30.6436 25.1588 30.7793C25.5077 31.1041 25.814 31.1031 26.1672 30.774C26.3225 30.6298 26.465 30.4684 26.6289 30.3359C26.9788 30.0517 27.483 30.0784 27.7873 30.383C28.1053 30.7013 28.1585 31.2035 27.8436 31.539C27.1809 32.2452 26.4842 32.9194 25.8055 33.6118C25.6938 33.725 25.6162 33.7122 25.5119 33.6053C24.8418 32.9237 24.161 32.2538 23.4983 31.5646C23.2462 31.3029 23.2047 30.9717 23.3611 30.6383C23.5143 30.306 23.7855 30.1393 24.1525 30.1393Z" fill="#EB7431"/>
</g>
<defs>
<clipPath id="clip0_135_14585">
<rect width="40" height="40" fill="white" transform="translate(0 0.5)"/>
</clipPath>
</defs>
</svg>
