<svg width="32" height="32" viewBox="0 0 32 32" fill="none" xmlns="http://www.w3.org/2000/svg">
<rect width="32" height="32" rx="10" fill="#EAEDFD"/>
<path d="M21.0003 16.8317H16.8337V20.9984C16.8337 21.2194 16.7459 21.4313 16.5896 21.5876C16.4333 21.7439 16.2213 21.8317 16.0003 21.8317C15.7793 21.8317 15.5674 21.7439 15.4111 21.5876C15.2548 21.4313 15.167 21.2194 15.167 20.9984V16.8317H11.0003C10.7793 16.8317 10.5674 16.7439 10.4111 16.5876C10.2548 16.4313 10.167 16.2194 10.167 15.9984C10.167 15.7774 10.2548 15.5654 10.4111 15.4091C10.5674 15.2528 10.7793 15.165 11.0003 15.165H15.167V10.9984C15.167 10.7774 15.2548 10.5654 15.4111 10.4091C15.5674 10.2528 15.7793 10.165 16.0003 10.165C16.2213 10.165 16.4333 10.2528 16.5896 10.4091C16.7459 10.5654 16.8337 10.7774 16.8337 10.9984V15.165H21.0003C21.2213 15.165 21.4333 15.2528 21.5896 15.4091C21.7459 15.5654 21.8337 15.7774 21.8337 15.9984C21.8337 16.2194 21.7459 16.4313 21.5896 16.5876C21.4333 16.7439 21.2213 16.8317 21.0003 16.8317Z" fill="#3147EB"/>
</svg>
