<svg width="16" height="17" viewBox="0 0 16 17" fill="none" xmlns="http://www.w3.org/2000/svg">
<path fill-rule="evenodd" clip-rule="evenodd" d="M5.44735 11.0526C8.01068 13.6159 10.386 13.8966 11.0833 13.9226C11.926 13.9532 12.786 13.2652 13.158 12.5606C12.5647 11.8646 11.792 11.3246 10.946 10.7392C10.4467 11.2379 9.83135 12.1646 9.01202 11.8326C8.54602 11.6452 7.39535 11.1152 6.39002 10.1092C5.38468 9.10323 4.85468 7.95323 4.66602 7.4879C4.33402 6.66723 5.26335 6.05057 5.76268 5.55123C5.17735 4.69123 4.64668 3.89857 3.95202 3.33523C3.23735 3.70857 2.54535 4.5619 2.57668 5.4159C2.60268 6.11323 2.88335 8.48857 5.44735 11.0526ZM11.034 15.2552C10.074 15.2199 7.35335 14.8439 4.50402 11.9952C1.65535 9.1459 1.28002 6.4259 1.24402 5.46523C1.19068 4.00123 2.31202 2.57923 3.60735 2.0239C3.76333 1.95654 3.93415 1.9309 4.10304 1.94948C4.27192 1.96807 4.43308 2.03024 4.57068 2.1299C5.64268 2.9119 6.38202 4.09657 7.01735 5.02457C7.14952 5.21753 7.21006 5.45063 7.18851 5.68353C7.16697 5.91642 7.06468 6.13446 6.89935 6.2999L5.99535 7.20457C6.20535 7.6679 6.63268 8.46657 7.33268 9.16657C8.03268 9.86657 8.83135 10.2939 9.29535 10.5039L10.1987 9.5999C10.3646 9.43387 10.5835 9.33148 10.8173 9.31064C11.0511 9.28979 11.2847 9.35184 11.4773 9.4859C12.424 10.1419 13.536 10.8706 14.3467 11.9086C14.4544 12.0472 14.523 12.2122 14.5451 12.3863C14.5673 12.5605 14.5423 12.7374 14.4727 12.8986C13.9147 14.2006 12.5027 15.3092 11.034 15.2552Z" fill="white"/>
</svg>
