<svg width="20" height="20" viewBox="0 0 20 20" fill="none" xmlns="http://www.w3.org/2000/svg">
<path fill-rule="evenodd" clip-rule="evenodd" d="M12.9418 9.53845C13.0981 9.6947 13.1858 9.90661 13.1858 10.1276C13.1858 10.3485 13.0981 10.5604 12.9418 10.7168L8.22766 15.4309C8.15079 15.5105 8.05884 15.574 7.95716 15.6177C7.85549 15.6614 7.74615 15.6844 7.6355 15.6853C7.52485 15.6863 7.41511 15.6652 7.31269 15.6233C7.21029 15.5814 7.11724 15.5195 7.03899 15.4413C6.96075 15.363 6.89888 15.2699 6.85698 15.1675C6.81508 15.0651 6.79399 14.9554 6.79495 14.8448C6.79591 14.7341 6.8189 14.6248 6.86258 14.5231C6.90625 14.4214 6.96974 14.3294 7.04933 14.2526L11.1743 10.1276L7.04933 6.0026C6.89753 5.84542 6.81354 5.63492 6.81543 5.41643C6.81733 5.19793 6.90497 4.98892 7.05948 4.83441C7.21399 4.67991 7.423 4.59226 7.6415 4.59036C7.85999 4.58846 8.0705 4.67246 8.22766 4.82426L12.9418 9.53845Z" fill="#5C5C5E"/>
</svg>
