<svg width="20" height="20" viewBox="0 0 20 20" fill="none" xmlns="http://www.w3.org/2000/svg">
<g clip-path="url(#clip0_148_12745)">
<path d="M0.00390625 9.20085C0.0919271 8.98992 0.0773438 8.76179 0.110677 8.54252C0.714323 4.57742 3.55391 1.37794 7.46172 0.36752C13.1029 -1.09185 18.457 2.45815 19.6852 7.70606C20.8664 12.7545 18.0966 17.768 13.2091 19.4639C12.4398 19.7305 11.6487 19.8946 10.8367 19.9571C10.8055 19.9597 10.7706 19.9529 10.7602 19.9962C10.2273 19.9962 9.69505 19.9962 9.16224 19.9962C9.14505 19.9456 9.10026 19.9597 9.06432 19.9561C8.6638 19.916 8.26745 19.855 7.87318 19.7722C3.85651 18.9295 0.688281 15.5571 0.11276 11.5154C0.0804688 11.2894 0.0945313 11.0545 0.00390625 10.8378C0.00390625 10.292 0.00390625 9.74669 0.00390625 9.20085ZM2.22161 5.10033C2.20182 5.12533 2.17943 5.14877 2.16276 5.17585C0.946094 7.17481 0.528386 9.3295 0.934115 11.6331C1.35755 14.0384 2.57161 15.9759 4.52943 17.416C6.78672 19.0759 9.31693 19.5675 12.0518 18.9774C13.0727 18.7571 14.0279 18.3618 14.8997 17.7785C14.9826 17.7285 15.0674 17.6816 15.1477 17.6274C15.8336 17.1618 16.4497 16.616 16.9799 15.979C18.8617 13.7154 19.5352 11.1227 18.9992 8.23888C18.6117 6.15294 17.5768 4.40919 15.9565 3.03887C13.7029 1.1321 11.0977 0.470124 8.20547 0.99825C6.3987 1.32846 4.84245 2.1769 3.53203 3.467C3.03203 3.95971 2.57734 4.49096 2.22161 5.10033Z" fill="#1B1C22"/>
<path d="M13.0067 17.613C12.4577 17.8094 11.9025 17.988 11.3249 18.075C9.58428 18.3386 7.90772 18.1271 6.33585 17.3151C3.9848 16.1005 2.51762 14.1875 1.97595 11.5974C1.65668 10.0719 1.80043 8.5672 2.35408 7.10626C2.36762 7.07033 2.37647 7.03283 2.38793 6.99585C2.73793 6.1896 3.16762 5.43126 3.74366 4.76251C5.08741 3.20314 6.76814 2.23803 8.81137 1.94845C12.8301 1.37814 16.6645 3.78908 17.7801 7.65158C18.6733 10.7432 17.952 13.4823 15.726 15.8073C14.9775 16.5891 14.0723 17.1583 13.0739 17.5771C13.0504 17.5865 13.0291 17.6005 13.0067 17.613ZM2.7671 8.49064C2.76085 8.50626 2.7546 8.52241 2.74835 8.53803C2.74105 8.60158 2.73376 8.66564 2.72647 8.72918C2.71658 8.7521 2.70095 8.77449 2.6973 8.79845C2.50095 10.0708 2.60303 11.3136 3.03793 12.5307C4.07439 15.4318 6.93428 17.4386 10.001 17.4C10.427 17.3948 10.8551 17.3896 11.2713 17.2745C11.3218 17.2693 11.3723 17.2641 11.4228 17.2589C11.4567 17.2672 11.4858 17.2599 11.5093 17.2333C11.8192 17.1932 12.1124 17.0917 12.4067 16.9938C15.0926 16.1005 17.1411 13.4693 17.34 10.6542C17.477 8.71772 16.9968 6.95053 15.7614 5.44689C13.8681 3.14324 11.4093 2.24376 8.48428 2.80053C6.41606 3.19428 4.82856 4.36512 3.70251 6.14533C3.24522 6.86668 2.92335 7.64689 2.7671 8.49064Z" fill="#1B1C22"/>
<path d="M13.0858 17.7519C12.526 17.9524 11.9599 18.1349 11.3709 18.2238C9.59595 18.4929 7.88634 18.277 6.28348 17.4476C3.8861 16.2069 2.38999 14.2529 1.83765 11.6073C1.51208 10.0491 1.65867 8.51213 2.22323 7.01988C2.23703 6.98317 2.24606 6.94487 2.25775 6.90709C2.61465 6.08356 3.0528 5.30897 3.6402 4.62589C5.01044 3.03309 6.72429 2.04729 8.8078 1.7515C12.9058 1.16897 16.8157 3.63158 17.9533 7.57688C18.8642 10.7348 18.1286 13.5326 15.8587 15.9074C15.0955 16.706 14.1724 17.2874 13.1543 17.7152C13.1304 17.7247 13.1086 17.7391 13.0858 17.7519ZM2.64439 8.43393C2.63801 8.44989 2.63164 8.46638 2.62527 8.48234C2.61783 8.54724 2.6104 8.61268 2.60296 8.67758C2.59287 8.70099 2.57694 8.72387 2.57322 8.74834C2.373 10.048 2.47709 11.3174 2.92056 12.5606C3.97745 15.5239 6.89371 17.5737 10.0208 17.5343C10.4553 17.529 10.8918 17.5236 11.3162 17.4061C11.3677 17.4008 11.4192 17.3954 11.4707 17.3901C11.5053 17.3986 11.535 17.3912 11.5589 17.364C11.8749 17.3231 12.1739 17.2193 12.474 17.1193C15.2129 16.2069 17.3017 13.5193 17.5046 10.6438C17.6442 8.66588 17.1546 6.86081 15.8948 5.32493C13.9642 2.97191 11.4569 2.05315 8.47427 2.62185C6.36527 3.02404 4.74648 4.21997 3.59824 6.03834C3.13194 6.77516 2.80372 7.57209 2.64439 8.43393Z" fill="#1B1C22"/>
<path d="M11.4219 17.258C11.4448 17.2288 11.475 17.2247 11.5083 17.2325C11.4849 17.259 11.4557 17.2663 11.4219 17.258Z" fill="#1B1C22"/>
<path d="M2.7668 8.49023C2.76055 8.50586 2.7543 8.522 2.74805 8.53763C2.7543 8.522 2.76055 8.50638 2.7668 8.49023Z" fill="#1B1C22"/>
<path d="M5.18966 9.99959C5.18966 9.5449 5.18914 9.09074 5.19018 8.63605C5.1907 8.39647 5.20685 8.3798 5.44278 8.3798C6.31935 8.37928 7.19591 8.3798 8.07195 8.37928C8.31778 8.37928 8.34226 8.35532 8.34226 8.11417C8.34278 7.23136 8.34643 6.34803 8.33914 5.46521C8.33758 5.28657 8.39747 5.22407 8.57455 5.22511C9.5157 5.23032 10.4574 5.2298 11.3985 5.22563C11.5662 5.22511 11.6246 5.28709 11.6235 5.45584C11.6173 6.33865 11.6204 7.22146 11.6209 8.1048C11.6209 8.36001 11.6412 8.37928 11.9011 8.3798C12.7777 8.38032 13.6542 8.38501 14.5303 8.37615C14.7246 8.37407 14.7766 8.44699 14.7756 8.62719C14.7704 9.55532 14.7704 10.484 14.7756 11.4121C14.7766 11.5923 14.724 11.6647 14.5303 11.6626C13.6537 11.6538 12.7777 11.6584 11.9011 11.659C11.6412 11.659 11.6214 11.6788 11.6209 11.934C11.6204 12.8105 11.6157 13.6871 11.6246 14.5631C11.6266 14.7522 11.5647 14.8147 11.3792 14.8137C10.4443 14.8079 9.50945 14.8084 8.57455 14.8131C8.39747 14.8142 8.3381 14.7506 8.33966 14.5725C8.34695 13.6897 8.3433 12.8069 8.34278 11.9235C8.34278 11.6824 8.3183 11.659 8.07247 11.6584C7.19591 11.6579 6.31935 11.6584 5.4433 11.6579C5.20789 11.6579 5.19174 11.6413 5.19122 11.4012C5.18862 10.9345 5.18966 10.4673 5.18966 9.99959Z" fill="#1B1C22"/>
</g>
<defs>
<clipPath id="clip0_148_12745">
<rect width="20" height="20" fill="white"/>
</clipPath>
</defs>
</svg>
