<svg width="20" height="20" viewBox="0 0 20 20" fill="none" xmlns="http://www.w3.org/2000/svg">
<path fill-rule="evenodd" clip-rule="evenodd" d="M15.2657 12.0274C16.3048 10.6877 16.7946 9.00245 16.6353 7.31448C16.476 5.6265 15.6796 4.06261 14.4081 2.94097C13.1367 1.81933 11.4857 1.22419 9.79105 1.27663C8.09638 1.32907 6.48534 2.02515 5.28568 3.22326C4.08498 4.4222 3.38662 6.03386 3.33293 7.72981C3.27924 9.42576 3.87425 11.0784 4.99671 12.3509C6.11917 13.6234 7.6846 14.42 9.37399 14.5783C11.0634 14.7367 12.7496 14.2449 14.089 13.2033L14.1249 13.2408L17.6599 16.7766C17.7373 16.854 17.8292 16.9154 17.9304 16.9573C18.0315 16.9992 18.1399 17.0208 18.2494 17.0208C18.3589 17.0208 18.4674 16.9992 18.5685 16.9573C18.6697 16.9154 18.7616 16.854 18.839 16.7766C18.9164 16.6992 18.9779 16.6072 19.0198 16.5061C19.0617 16.4049 19.0832 16.2965 19.0832 16.187C19.0832 16.0775 19.0617 15.9691 19.0198 15.8679C18.9779 15.7668 18.9164 15.6748 18.839 15.5974L15.3032 12.0624C15.291 12.0504 15.2785 12.0387 15.2657 12.0274ZM13.5357 4.40242C14.0062 4.86532 14.3804 5.4168 14.6367 6.02504C14.893 6.63328 15.0263 7.28624 15.029 7.94627C15.0317 8.6063 14.9037 9.26034 14.6523 9.87064C14.401 10.4809 14.0313 11.0355 13.5646 11.5022C13.0979 11.9689 12.5434 12.3386 11.9331 12.5899C11.3228 12.8413 10.6687 12.9693 10.0087 12.9666C9.34867 12.9639 8.6957 12.8306 8.08746 12.5743C7.47922 12.318 6.92775 11.9438 6.46485 11.4733C5.53978 10.533 5.02373 9.26529 5.0291 7.94627C5.03447 6.62726 5.56083 5.36379 6.49353 4.4311C7.42622 3.4984 8.68968 2.97205 10.0087 2.96667C11.3277 2.9613 12.5954 3.47736 13.5357 4.40242Z" fill="#1B1C22"/>
</svg>
