<svg width="72" height="72" viewBox="0 0 72 72" fill="none" xmlns="http://www.w3.org/2000/svg">
<rect width="72" height="72" rx="36" fill="#E6F9F4"/>
<path fill-rule="evenodd" clip-rule="evenodd" d="M36 17.6668C38.4079 17.6639 40.7928 18.1368 43.0175 19.0584C45.2421 19.9799 47.2628 21.3318 48.9634 23.0365C50.6681 24.7372 52.0201 26.7579 52.9416 28.9826C53.8631 31.2073 54.3361 33.5921 54.3333 36.0001C54.3361 38.4081 53.8632 40.7929 52.9417 43.0176C52.0202 45.2423 50.6682 47.263 48.9635 48.9636C47.2628 50.6683 45.2421 52.0203 43.0175 52.9418C40.7928 53.8633 38.4079 54.3363 35.9999 54.3334C33.592 54.3362 31.2072 53.8633 28.9825 52.9418C26.7578 52.0202 24.7371 50.6683 23.0365 48.9636C21.3317 47.263 19.9798 45.2423 19.0583 43.0176C18.1367 40.7929 17.6638 38.4081 17.6666 36.0001C17.6639 33.5921 18.1368 31.2073 19.0583 28.9826C19.9798 26.758 21.3318 24.7373 23.0365 23.0366C24.7371 21.3319 26.7578 19.98 28.9825 19.0584C31.2072 18.1369 33.592 17.664 36 17.6668ZM41.7418 22.138C39.9222 21.3842 37.9716 20.9975 36.0021 21.0001H35.9978C34.0283 20.9976 32.0777 21.3843 30.2582 22.138C28.4386 22.8917 26.7859 23.9976 25.395 25.3921L25.392 25.3951C23.9975 26.786 22.8916 28.4387 22.1379 30.2583C21.3842 32.0779 20.9975 34.0285 21 35.998V36.0023C20.9974 37.9718 21.3841 39.9224 22.1378 41.7419C22.8916 43.5615 23.9974 45.2142 25.3919 46.605L25.395 46.6081C26.7859 48.0026 28.4386 49.1084 30.2582 49.8622C32.0777 50.6159 34.0283 51.0026 35.9978 51.0001H36.0021C37.9716 51.0026 39.9222 50.616 41.7418 49.8622C43.5614 49.1085 45.2141 48.0026 46.6049 46.6081L46.608 46.605C48.0025 45.2142 49.1084 43.5615 49.8621 41.7419C50.6158 39.9224 51.0025 37.9718 51 36.0023V35.998C51.0025 34.0285 50.6158 32.0779 49.862 30.2583C49.1083 28.4387 48.0025 26.786 46.608 25.3951L46.6049 25.3921C45.2141 23.9976 43.5614 22.8917 41.7418 22.138Z" fill="#00C48C"/>
<path fill-rule="evenodd" clip-rule="evenodd" d="M45.5119 29.8217C46.1628 30.4725 46.1628 31.5278 45.5119 32.1787L35.5119 42.1787C34.8611 42.8295 33.8058 42.8295 33.1549 42.1787L28.1549 37.1787C27.504 36.5278 27.504 35.4725 28.1549 34.8217C28.8058 34.1708 29.8611 34.1708 30.5119 34.8217L34.3334 38.6431L43.1549 29.8217C43.8058 29.1708 44.8611 29.1708 45.5119 29.8217Z" fill="#00C48C"/>
</svg>
