<svg width="20" height="20" viewBox="0 0 20 20" fill="none" xmlns="http://www.w3.org/2000/svg">
<g clip-path="url(#clip0_22_182)">
<path d="M9.99998 4.99999C13.1583 4.99999 15.975 6.77499 17.35 9.58333C15.975 12.3917 13.1583 14.1667 9.99998 14.1667C6.84165 14.1667 4.02498 12.3917 2.64998 9.58333C4.02498 6.77499 6.84165 4.99999 9.99998 4.99999ZM9.99998 3.33333C5.83331 3.33333 2.27498 5.92499 0.833313 9.58333C2.27498 13.2417 5.83331 15.8333 9.99998 15.8333C14.1666 15.8333 17.725 13.2417 19.1666 9.58333C17.725 5.92499 14.1666 3.33333 9.99998 3.33333ZM9.99998 7.49999C11.15 7.49999 12.0833 8.43333 12.0833 9.58333C12.0833 10.7333 11.15 11.6667 9.99998 11.6667C8.84998 11.6667 7.91665 10.7333 7.91665 9.58333C7.91665 8.43333 8.84998 7.49999 9.99998 7.49999ZM9.99998 5.83333C7.93331 5.83333 6.24998 7.51666 6.24998 9.58333C6.24998 11.65 7.93331 13.3333 9.99998 13.3333C12.0666 13.3333 13.75 11.65 13.75 9.58333C13.75 7.51666 12.0666 5.83333 9.99998 5.83333Z" fill="#898B8D"/>
</g>
<defs>
<clipPath id="clip0_22_182">
<rect width="20" height="20" fill="white"/>
</clipPath>
</defs>
</svg>
