<svg width="28" height="28" viewBox="0 0 28 28" fill="none" xmlns="http://www.w3.org/2000/svg">
<rect width="28" height="28" rx="10" fill="#3147EB"/>
<path fill-rule="evenodd" clip-rule="evenodd" d="M18.9925 9.00833L8.49912 12.8025L11.995 14.8258L15.0775 11.7425C15.2338 11.5862 15.4459 11.4985 15.6669 11.4986C15.888 11.4987 16.0999 11.5865 16.2562 11.7429C16.4125 11.8993 16.5002 12.1113 16.5001 12.3324C16.5 12.5534 16.4122 12.7654 16.2558 12.9217L13.1725 16.005L15.1975 19.5L18.9925 9.00833ZM19.2616 7.13833C20.2575 6.77749 21.2225 7.74249 20.8616 8.73833L16.46 20.9092C16.0983 21.9075 14.735 22.0292 14.2025 21.11L11.5216 16.4783L6.88995 13.7975C5.97079 13.265 6.09245 11.9017 7.09079 11.54L19.2616 7.13833Z" fill="white"/>
</svg>
