<svg width="20" height="20" viewBox="0 0 20 20" fill="none" xmlns="http://www.w3.org/2000/svg">
<path d="M8.57565 18.3009H7.82565C5.11898 18.3009 3.76482 18.3009 2.92398 17.4468C2.08315 16.5926 2.08398 15.2176 2.08398 12.4676V8.30092C2.08398 5.55092 2.08398 4.17592 2.92565 3.32258C3.76482 2.46675 5.11898 2.46675 7.82565 2.46675H10.2865C12.994 2.46675 14.5757 2.51341 15.4165 3.36675C16.2582 4.22175 16.2498 5.55008 16.2498 8.30008V9.28925M13.2882 1.66675V3.33341M9.12148 1.66675V3.33341M4.95482 1.66675V3.33341M5.83398 12.5001H9.16732M5.83398 8.33342H12.5007" stroke="#1B1C22" stroke-width="1.5" stroke-linecap="round" stroke-linejoin="round"/>
<path opacity="0.93" d="M17.3 12.3992C16.545 11.5534 16.0925 11.6042 15.59 11.755C15.2375 11.805 14.0309 13.2134 13.5275 13.6634C12.7017 14.4784 11.8717 15.3184 11.8175 15.4284C11.6609 15.6825 11.5159 16.1325 11.445 16.6359C11.3142 17.3909 11.1259 18.24 11.3642 18.3134C11.6025 18.3867 12.27 18.2467 13.0242 18.1359C13.5275 18.0442 13.8792 17.9442 14.1309 17.7934C14.4834 17.5817 15.1367 16.8375 16.2642 15.73C16.97 14.9859 17.6517 14.4717 17.8534 13.9692C18.0542 13.2142 17.7534 12.8117 17.3 12.3992Z" stroke="black" stroke-width="1.5" stroke-linecap="round" stroke-linejoin="round"/>
</svg>
