<svg width="20" height="20" viewBox="0 0 20 20" fill="none" xmlns="http://www.w3.org/2000/svg">
<path fill-rule="evenodd" clip-rule="evenodd" d="M2.27621 2.27694C2.66691 1.88624 3.19681 1.66675 3.74935 1.66675H16.2493C16.8019 1.66675 17.3318 1.88624 17.7225 2.27694C18.1132 2.66764 18.3327 3.19755 18.3327 3.75008V16.2501C18.3327 16.8026 18.1132 17.3325 17.7225 17.7232C17.3318 18.1139 16.8019 18.3334 16.2493 18.3334H3.74935C3.19681 18.3334 2.66691 18.1139 2.27621 17.7232C1.88551 17.3325 1.66602 16.8026 1.66602 16.2501V3.75008C1.66602 3.19755 1.88551 2.66764 2.27621 2.27694ZM3.74935 3.33341C3.63884 3.33341 3.53286 3.37731 3.45472 3.45545C3.37658 3.53359 3.33268 3.63957 3.33268 3.75008V16.2501C3.33268 16.3606 3.37658 16.4666 3.45472 16.5447C3.53286 16.6228 3.63884 16.6667 3.74935 16.6667H16.2493C16.3599 16.6667 16.4658 16.6229 16.544 16.5447C16.6221 16.4666 16.666 16.3606 16.666 16.2501V3.75008C16.666 3.63958 16.6221 3.53359 16.544 3.45545C16.4658 3.37731 16.3599 3.33341 16.2493 3.33341H3.74935Z" fill="#1B1C22"/>
<path fill-rule="evenodd" clip-rule="evenodd" d="M5 6.25008C5 5.78984 5.3731 5.41675 5.83333 5.41675H14.1667C14.6269 5.41675 15 5.78984 15 6.25008C15 6.71032 14.6269 7.08341 14.1667 7.08341H5.83333C5.3731 7.08341 5 6.71032 5 6.25008ZM5 9.58342C5 9.12318 5.3731 8.75008 5.83333 8.75008H9.16667C9.6269 8.75008 10 9.12318 10 9.58342C10 10.0437 9.6269 10.4167 9.16667 10.4167H5.83333C5.3731 10.4167 5 10.0437 5 9.58342ZM14.6872 9.76602C15.0466 10.0535 15.1049 10.5779 14.8174 10.9373L11.4841 15.104C11.1965 15.4634 10.6721 15.5216 10.3128 15.2341L8.22942 13.5675C7.87004 13.28 7.81177 12.7556 8.09928 12.3962C8.38678 12.0368 8.91119 11.9785 9.27058 12.266L10.7032 13.4121L13.5159 9.89617C13.8035 9.53678 14.3279 9.47852 14.6872 9.76602Z" fill="#1B1C22"/>
</svg>
