<svg width="20" height="20" viewBox="0 0 20 20" fill="none" xmlns="http://www.w3.org/2000/svg">
<path fill-rule="evenodd" clip-rule="evenodd" d="M9.41573 7.05783C9.56539 6.89479 9.76856 6.80322 9.98031 6.80322C10.1921 6.80322 10.3951 6.89479 10.5449 7.05783L15.0627 11.977C15.139 12.0572 15.1998 12.1532 15.2416 12.2592C15.2835 12.3653 15.3056 12.4794 15.3064 12.5949C15.3074 12.7104 15.2872 12.8248 15.247 12.9317C15.2068 13.0386 15.1476 13.1357 15.0726 13.2173C14.9976 13.299 14.9084 13.3635 14.8102 13.4072C14.7121 13.451 14.607 13.473 14.501 13.4719C14.3949 13.471 14.2901 13.447 14.1927 13.4014C14.0952 13.3559 14.0071 13.2896 13.9335 13.2066L9.98031 8.90221L6.02727 13.2066C5.87657 13.3649 5.67484 13.4526 5.46553 13.4506C5.25613 13.4486 5.05576 13.3572 4.90769 13.1959C4.75963 13.0347 4.67569 12.8166 4.67386 12.5886C4.67203 12.3606 4.75253 12.141 4.89803 11.977L9.41573 7.05783Z" fill="white"/>
</svg>
