<svg width="48" height="48" viewBox="0 0 48 48" fill="none" xmlns="http://www.w3.org/2000/svg">
<rect width="48" height="48" rx="12" fill="#3147EB"/>
<g clip-path="url(#clip0_97_5009)">
<path d="M24 18C27.79 18 31.17 20.13 32.82 23.5C31.17 26.87 27.79 29 24 29C20.21 29 16.83 26.87 15.18 23.5C16.83 20.13 20.21 18 24 18ZM24 16C19 16 14.73 19.11 13 23.5C14.73 27.89 19 31 24 31C29 31 33.27 27.89 35 23.5C33.27 19.11 29 16 24 16ZM24 21C25.38 21 26.5 22.12 26.5 23.5C26.5 24.88 25.38 26 24 26C22.62 26 21.5 24.88 21.5 23.5C21.5 22.12 22.62 21 24 21ZM24 19C21.52 19 19.5 21.02 19.5 23.5C19.5 25.98 21.52 28 24 28C26.48 28 28.5 25.98 28.5 23.5C28.5 21.02 26.48 19 24 19Z" fill="white"/>
</g>
<defs>
<clipPath id="clip0_97_5009">
<rect width="24" height="24" fill="white" transform="translate(12 12)"/>
</clipPath>
</defs>
</svg>
