<svg width="148" height="32" viewBox="0 0 148 32" fill="none" xmlns="http://www.w3.org/2000/svg">
<path d="M147.792 18.3785C147.377 19.8317 146.599 20.9475 145.483 21.726C144.367 22.5304 143.044 22.9197 141.487 22.9197C139.437 22.9197 137.776 22.2969 136.53 20.9994C135.285 19.7279 134.662 18.0412 134.662 15.9134C134.662 13.8374 135.285 12.1248 136.556 10.7754C137.802 9.42603 139.411 8.75134 141.383 8.75134C143.407 8.75134 145.016 9.45198 146.21 10.8273C147.403 12.2026 148 14.071 148 16.4064V16.7697H138.399C138.399 17.9374 138.684 18.8197 139.229 19.4165C139.774 20.0393 140.553 20.3248 141.539 20.3248C142.836 20.3248 143.744 19.676 144.263 18.3785H147.792ZM144.237 14.4342C144.16 13.552 143.874 12.8513 143.381 12.2805C142.914 11.7096 142.239 11.4241 141.357 11.4241C140.553 11.4241 139.878 11.7096 139.333 12.2286C138.814 12.7735 138.477 13.5001 138.373 14.4342H144.237Z" fill="#1B1C22"/>
<path d="M134.141 8.90707V12.3064C133.622 12.2026 133.129 12.1507 132.713 12.1507C131.494 12.1507 130.612 12.54 130.041 13.3185C129.47 14.0969 129.184 15.109 129.184 16.4064V22.5305H125.5V9.14061H129.003V11.6058C129.885 9.7634 131.312 8.82922 133.336 8.82922C133.492 8.82922 133.777 8.85517 134.141 8.90707Z" fill="#1B1C22"/>
<path d="M122.873 22.5304H119.11C119.006 22.1931 118.903 21.752 118.851 21.233C117.735 22.3747 116.282 22.9197 114.517 22.9197C113.038 22.9197 111.87 22.5823 111.014 21.8558C110.184 21.1292 109.743 20.1431 109.743 18.8716C109.743 18.3007 109.82 17.8077 109.976 17.3665C110.132 16.9513 110.365 16.588 110.703 16.2767C111.04 15.9912 111.351 15.7577 111.663 15.5501C111.974 15.3684 112.389 15.2127 112.908 15.083C113.453 14.9792 113.894 14.8754 114.206 14.8235C114.543 14.7716 115.01 14.6937 115.607 14.6159C116.905 14.4602 117.761 14.2786 118.202 14.071C118.643 13.8893 118.877 13.526 118.877 13.007C118.877 11.8134 118.072 11.2165 116.463 11.2165C115.607 11.2165 114.984 11.3722 114.595 11.6836C114.18 11.995 113.92 12.514 113.817 13.2665H110.365C110.573 10.2564 112.623 8.75134 116.567 8.75134C120.46 8.75134 122.406 10.2045 122.406 13.1108V18.8975C122.406 20.6102 122.562 21.8039 122.873 22.5304ZM118.825 16.0172C118.41 16.2767 117.527 16.5361 116.23 16.7437C115.14 16.8994 114.439 17.133 114.102 17.3925C113.739 17.7039 113.531 18.171 113.531 18.7418C113.531 19.2868 113.713 19.7279 114.076 20.0393C114.439 20.3507 114.932 20.5064 115.555 20.5064C116.541 20.5064 117.346 20.2469 117.943 19.7279C118.539 19.2089 118.825 18.4564 118.825 17.5222V16.0172Z" fill="#1B1C22"/>
<path d="M108.154 17.3665C107.92 19.1051 107.246 20.4545 106.104 21.4406C104.962 22.4007 103.509 22.8937 101.744 22.8937C99.6685 22.8937 98.0337 22.245 96.7882 20.9994C95.5426 19.7279 94.9198 18.0412 94.9198 15.9393C94.9198 13.7855 95.5426 12.0469 96.7882 10.7235C98.0337 9.42603 99.7204 8.75134 101.796 8.75134C103.561 8.75134 105.014 9.21843 106.156 10.1267C107.272 11.0349 107.92 12.2545 108.076 13.8115H104.469C104.184 12.2805 103.301 11.502 101.822 11.502C100.81 11.502 100.032 11.8912 99.4609 12.6697C98.89 13.4482 98.6306 14.5121 98.6306 15.8874C98.6306 17.2108 98.8901 18.2488 99.435 18.9754C99.9799 19.702 100.758 20.0653 101.744 20.0653C103.353 20.0653 104.288 19.183 104.599 17.3665H108.154Z" fill="#1B1C22"/>
<path d="M92.3557 4.05457V7.16849H88.6709V4.05457H92.3557ZM92.3557 9.14064V22.5305H88.6709V9.14064H92.3557Z" fill="#1B1C22"/>
<path d="M85.4187 9.14063V21.1552C85.4187 23.3349 84.8738 24.9438 83.7839 25.9818C82.694 27.0197 81.0333 27.5387 78.8276 27.5387C74.9871 27.5387 72.9111 26.1375 72.5478 23.3609H76.2067C76.3364 23.9577 76.6219 24.3989 77.063 24.6583C77.4782 24.9178 78.101 25.0735 78.9054 25.0735C80.0472 25.0735 80.8257 24.7881 81.2409 24.2172C81.6301 23.6463 81.8377 22.79 81.8637 21.5963L81.8896 20.0913C80.8776 21.4666 79.5023 22.1672 77.7896 22.1672C76.0251 22.1672 74.6497 21.5704 73.6118 20.3767C72.5738 19.183 72.0807 17.5742 72.0807 15.5761C72.0807 13.5261 72.5997 11.8913 73.6896 10.6457C74.7535 9.40013 76.1807 8.77734 77.9453 8.77734C78.8795 8.77734 79.632 8.95899 80.2548 9.29633C80.8776 9.63367 81.4225 10.1786 81.9415 10.9311V9.14063H85.4187ZM78.8016 11.6577C77.8156 11.6577 77.063 11.9951 76.5181 12.6697C75.9732 13.3444 75.6877 14.3046 75.6877 15.5501C75.6877 16.7178 75.9732 17.652 76.544 18.3527C77.1149 19.0533 77.8675 19.4166 78.8016 19.4166C79.7618 19.4166 80.5143 19.0533 81.0592 18.3527C81.6301 17.6261 81.8896 16.6659 81.8896 15.4723C81.8896 14.2786 81.6301 13.3444 81.0592 12.6697C80.5143 11.9951 79.7618 11.6577 78.8016 11.6577Z" fill="#1B1C22"/>
<path d="M69.5426 4.05457V7.16849H65.8578V4.05457H69.5426ZM69.5426 9.14064V22.5305H65.8578V9.14064H69.5426Z" fill="#1B1C22"/>
<path d="M46.8055 22.5305V4.05457H54.2789C57.1333 4.05457 59.339 4.85899 60.896 6.44191C62.4529 8.05076 63.2314 10.3343 63.2314 13.2925C63.2314 16.2767 62.4529 18.5602 60.896 20.1432C59.339 21.752 57.1333 22.5305 54.2789 22.5305H46.8055ZM50.8276 19.1571H53.7599C57.3409 19.1571 59.1314 17.2109 59.1314 13.2925C59.1314 11.4242 58.6903 9.97102 57.808 8.95899C56.9257 7.94697 55.5764 7.42798 53.7859 7.42798H50.8276V19.1571Z" fill="#1B1C22"/>
<path d="M2.99026 10.9987C2.99026 5.29186 6.78958 0 11.9921 0C15.6025 0 18.2814 2.37426 19.935 5.74239C21.5886 2.37446 24.2675 0 27.878 0C33.0811 0 36.8798 5.29275 36.8798 10.9987C36.8798 23.2132 19.935 31.8961 19.935 31.8961C19.935 31.8961 8.52094 26.4012 4.42867 17.3877H14.5374L16.1442 14.5315L18.021 21.1004L22.4161 15.4497H27.9091V13.4562H21.441L18.8589 16.7761L16.7486 9.3906L13.3716 15.3942H3.66789C3.87918 16.0764 4.13513 16.7411 4.42867 17.3877L0 17.3876L0 15.3941L3.66789 15.3942C3.23589 13.9997 2.99026 12.5323 2.99026 10.9987Z" fill="#3147EB"/>
</svg>
