<svg width="39" height="12" viewBox="0 0 39 12" fill="none" xmlns="http://www.w3.org/2000/svg">
<path fill-rule="evenodd" clip-rule="evenodd" d="M5.74686 8.7456C5.74686 8.28638 5.75215 7.05891 5.74014 6.90767C5.7506 5.08118 4.34183 3.79274 3.45182 3.89318C2.83597 3.94356 2.31973 4.18029 2.04271 4.86128C1.78575 5.49594 2.01549 6.34011 2.86947 6.5382C3.7825 6.75093 4.31582 6.92793 4.70171 7.17764C5.17453 7.48334 5.56053 8.06741 5.57077 8.74633" fill="#0060AF"/>
<path fill-rule="evenodd" clip-rule="evenodd" d="M5.36512 8.74584C5.36809 8.15719 5.01956 7.63668 4.56404 7.35696C4.15997 7.10974 3.6175 6.94739 2.74237 6.73808C2.47186 6.67285 2.18889 6.52795 2.10129 6.34326C1.86956 6.56337 1.82747 7.05822 1.86824 7.3475C1.91562 7.68208 2.33048 8.23364 2.95515 8.25525C3.33663 8.26969 3.81893 8.17786 4.05022 8.13153C4.44922 8.05031 5.0805 8.28589 5.18099 8.74511" fill="#0060AF"/>
<path fill-rule="evenodd" clip-rule="evenodd" d="M6.0695 1.04639C5.01024 1.04639 4.09545 1.70484 4.09864 2.84422C4.10195 3.80234 4.91934 4.31526 5.21112 4.68162C5.65188 5.2337 5.89044 5.88717 5.91512 6.88705C5.93452 7.68281 5.93353 8.46861 5.93782 8.74709H6.17154C6.16757 8.45573 6.15699 7.62153 6.169 6.86243C6.18487 5.86224 6.43202 5.2337 6.87301 4.68162C7.16732 4.31526 7.98394 3.80234 7.9857 2.84422C7.98978 1.70484 7.07531 1.04639 6.01716 1.04639" fill="#0060AF"/>
<path fill-rule="evenodd" clip-rule="evenodd" d="M6.3382 8.7456C6.3382 8.28638 6.33269 7.05891 6.34448 6.90767C6.33412 5.08118 7.74202 3.79274 8.6328 3.89318C9.24865 3.94356 9.76423 4.18029 10.0421 4.86128C10.2988 5.49594 10.0678 6.34011 9.21493 6.5382C8.30123 6.75093 7.76869 6.92793 7.38181 7.17764C6.90953 7.48334 6.55054 8.06741 6.53952 8.74633" fill="#0060AF"/>
<path fill-rule="evenodd" clip-rule="evenodd" d="M6.71975 8.74584C6.71644 8.15719 7.06486 7.63668 7.51907 7.35696C7.9249 7.10974 8.46791 6.94739 9.34227 6.73808C9.61334 6.67285 9.89598 6.52795 9.98203 6.34326C10.2149 6.56337 10.257 7.05822 10.2161 7.3475C10.1678 7.68208 9.75394 8.23364 9.13038 8.25525C8.74912 8.26969 8.26417 8.17786 8.03388 8.13153C7.63642 8.05031 7.00338 8.28589 6.90244 8.74511" fill="#0060AF"/>
<path fill-rule="evenodd" clip-rule="evenodd" d="M7.04558 10.6468L6.91016 9.71453L7.23731 9.66779C7.31687 9.65761 7.41383 9.6707 7.45262 9.71765C7.49549 9.76678 7.5086 9.80739 7.51686 9.87179C7.52931 9.95157 7.50485 10.0436 7.40965 10.0895V10.0923C7.51587 10.0923 7.58011 10.1643 7.59884 10.2858C7.60149 10.3116 7.60964 10.3735 7.60149 10.4252C7.57989 10.5483 7.5021 10.588 7.37053 10.6053L7.04558 10.6468ZM7.25609 10.4801C7.29487 10.4748 7.33421 10.4728 7.36495 10.4543C7.41212 10.4254 7.40782 10.3635 7.40121 10.3173C7.3849 10.2163 7.35691 10.1777 7.24308 10.1936L7.17146 10.204L7.21686 10.4852L7.25609 10.4801ZM7.18741 10.0491C7.23071 10.0426 7.28934 10.0376 7.3138 9.99882C7.32669 9.97296 7.343 9.95239 7.3322 9.89485C7.31887 9.82671 7.29496 9.78433 7.20295 9.80074L7.11733 9.81372L7.15116 10.0526L7.18741 10.0491Z" fill="#0060AF"/>
<path fill-rule="evenodd" clip-rule="evenodd" d="M8.46366 10.0862C8.4662 10.1036 8.46917 10.1229 8.47027 10.1402C8.49672 10.3102 8.46366 10.451 8.26091 10.4898C7.96109 10.5441 7.90368 10.3686 7.85101 10.1229L7.82291 9.98982C7.78159 9.75476 7.76385 9.57672 8.05607 9.52177C8.2208 9.49352 8.32967 9.55533 8.37496 9.70989C8.38201 9.73295 8.39083 9.7557 8.39413 9.77896L8.21485 9.81386C8.19414 9.7557 8.1667 9.65193 8.08604 9.66065C7.94125 9.67717 7.98907 9.8469 8.00395 9.91794L8.05783 10.1732C8.07403 10.2503 8.10621 10.3736 8.23149 10.3498C8.3332 10.3306 8.28879 10.1813 8.27976 10.12" fill="#0060AF"/>
<path fill-rule="evenodd" clip-rule="evenodd" d="M8.75138 10.368L8.68945 9.40327L8.93022 9.33398L9.43522 10.1731L9.24558 10.2266L9.12592 10.0133L8.91534 10.0729L8.94256 10.3154L8.75138 10.368ZM8.89752 9.91707L9.0497 9.87552L8.84761 9.48516L8.89752 9.91707Z" fill="#0060AF"/>
<path fill-rule="evenodd" clip-rule="evenodd" d="M2.80235 9.63823C2.87772 9.41085 2.94516 9.24331 3.23286 9.31768C3.3868 9.35829 3.48222 9.42218 3.47771 9.59076C3.47693 9.62826 3.46382 9.66659 3.45523 9.70357L3.27617 9.65703C3.29964 9.56386 3.31451 9.49 3.19286 9.45469C3.05226 9.41833 3.01799 9.57913 2.9986 9.64851L2.92576 9.90134C2.90262 9.97644 2.87486 10.1006 2.9986 10.1327C3.10086 10.1585 3.16278 10.064 3.19981 9.92585L3.07463 9.89448L3.11794 9.74823L3.41247 9.83746L3.27264 10.3249L3.13711 10.2902L3.16763 10.1872H3.16377C3.1013 10.2715 3.02527 10.2804 2.9586 10.2682C2.66406 10.1932 2.69481 10.0118 2.76511 9.76932" fill="#0060AF"/>
<path fill-rule="evenodd" clip-rule="evenodd" d="M3.89774 10.05L3.80904 10.4466L3.60938 10.406L3.82215 9.47998L4.16253 9.55238C4.36175 9.59299 4.42192 9.67651 4.39371 9.84873C4.37762 9.94751 4.32594 10.0539 4.19977 10.0453L4.19845 10.0437C4.30511 10.0788 4.31415 10.1296 4.29553 10.2172C4.28748 10.2546 4.23206 10.4808 4.27029 10.5174L4.27162 10.5452L4.06501 10.4943C4.05642 10.4317 4.08573 10.3189 4.0973 10.2563C4.10887 10.2011 4.12749 10.1232 4.06799 10.094C4.02149 10.0705 4.00408 10.0716 3.9514 10.0603L3.89774 10.05ZM3.9316 9.90681L4.06603 9.94099C4.14768 9.9522 4.19308 9.91232 4.20917 9.81925C4.22372 9.73397 4.20487 9.70073 4.1316 9.68421L3.98747 9.65658L3.9316 9.90681Z" fill="#0060AF"/>
<path fill-rule="evenodd" clip-rule="evenodd" d="M5.17883 9.68709L5.37629 9.70869L5.29122 10.3598C5.2499 10.5662 5.16528 10.6563 4.9244 10.6282C4.67934 10.5989 4.62116 10.4938 4.63592 10.2857L4.72165 9.63525L4.92066 9.65665L4.83526 10.2926C4.82611 10.3616 4.80925 10.464 4.9395 10.4764C5.05509 10.4847 5.08131 10.4124 5.09443 10.3227" fill="#0060AF"/>
<path fill-rule="evenodd" clip-rule="evenodd" d="M5.59375 10.6638L5.65325 9.73291L6.03253 9.74839C6.21192 9.7568 6.25875 9.89474 6.25324 10.0265C6.24795 10.1065 6.2215 10.196 6.14745 10.2445C6.08674 10.2857 6.00862 10.2955 5.93633 10.2922L5.8127 10.2857L5.78801 10.6759L5.59375 10.6638ZM5.81821 10.1437L5.9187 10.149C6.00035 10.1518 6.05446 10.1214 6.06151 10.0083C6.06559 9.8999 6.02195 9.88141 5.91617 9.87704L5.83661 9.87445L5.81821 10.1437Z" fill="#0060AF"/>
<path fill-rule="evenodd" clip-rule="evenodd" d="M32.3515 1.94627L30.8437 4.52626C30.2746 4.09051 29.5797 3.76996 28.693 3.76996C26.5947 3.76996 25.7422 5.24433 25.7422 6.28295C25.7422 7.054 26.2778 8.19141 28.1448 8.19141C28.9286 8.19141 30.0426 7.67755 30.3633 7.44363L28.8721 10.4368C28.1612 10.5705 27.9276 10.6534 27.326 10.671C23.9842 10.765 22.6339 8.8297 22.6348 6.85238C22.6371 4.23822 25.1025 1.05909 29.1897 1.05909C29.4401 1.05909 29.7464 1.14084 30.0084 1.23131L30.2731 0.912109" fill="#0060AF"/>
<path fill-rule="evenodd" clip-rule="evenodd" d="M38.5728 0.993164L38.9998 10.3699H35.8221L35.8204 8.7618H33.6535L32.9404 10.3699H29.4941L33.0971 3.67412L32.2847 3.66913L33.8282 0.993164H38.5728ZM35.7994 3.86176L34.5744 6.58915H35.8364L35.7994 3.86176Z" fill="#0060AF"/>
<path fill-rule="evenodd" clip-rule="evenodd" d="M20.6283 0.992951C22.202 1.00126 23.0912 1.80648 23.0912 2.96954C23.0912 4.04193 22.1534 4.99101 21.1239 5.48181C22.1838 5.84921 22.2755 6.75082 22.2755 7.3886C22.2755 8.92976 20.6352 10.3696 18.5029 10.3696H13.8525L15.6665 3.76718L14.9214 3.76313L16.4445 0.992951C16.4445 0.992951 19.3487 0.984641 20.6283 0.992951V0.992951ZM19.0842 4.7948C19.4097 4.7948 19.9844 4.71711 20.1281 4.12327C20.2856 3.47853 19.7462 3.46118 19.4875 3.46118L18.563 3.45744L18.2405 4.7948H19.0842ZM17.7774 6.45176L17.3517 7.99281H18.4404C18.8686 7.99281 19.4523 7.79234 19.5953 7.29084C19.7366 6.78799 19.3285 6.45176 18.9019 6.45176H17.7774Z" fill="#0060AF"/>
<path fill-rule="evenodd" clip-rule="evenodd" d="M6.11114 11.5219C4.50093 11.5219 2.84632 11.148 1.1938 10.4087L1.15325 10.3899L1.13386 10.3509C0.392276 8.8753 0 7.26143 0 5.68236C0 4.10557 0.376189 2.56067 1.11821 1.08703L1.1387 1.04787L1.18002 1.02834C2.70869 0.345688 4.35306 0 6.06927 0C7.66779 0 9.37519 0.384848 11.0058 1.11507L11.0475 1.13263L11.0669 1.17252C11.8226 2.67535 12.2212 4.2889 12.2212 5.84191C12.2212 7.38867 11.8385 8.93503 11.0818 10.4369L11.062 10.4763L11.0199 10.4946C9.51447 11.1663 7.81699 11.5219 6.11114 11.5219M1.34699 10.2063C2.95223 10.9183 4.5534 11.2777 6.11138 11.2777C7.76335 11.2777 9.40617 10.9373 10.8687 10.292C11.5952 8.83667 11.9635 7.33883 11.9635 5.84192C11.9635 4.33878 11.5791 2.77539 10.8521 1.3167C9.26965 0.615459 7.61702 0.243595 6.06951 0.243595C4.40806 0.243595 2.81549 0.57578 1.3331 1.23122C0.621494 2.65947 0.2593 4.15617 0.2593 5.68237C0.2593 7.21127 0.635599 8.77539 1.34699 10.2063Z" fill="#0060AF"/>
</svg>
