<svg width="39" height="10" viewBox="0 0 39 10" fill="none" xmlns="http://www.w3.org/2000/svg">
<path fill-rule="evenodd" clip-rule="evenodd" d="M10.5527 2.57764H12.6544C13.5055 2.57764 14.14 2.97302 14.14 3.80539C14.14 4.41567 13.8458 4.75554 13.3349 4.93561V4.94933C13.9439 5.08148 14.2581 5.42831 14.2581 6.01749C14.2581 7.176 13.2955 7.41855 12.4773 7.41855H10.5527V2.57764ZM11.7697 4.49201H12.1105C12.5098 4.49201 12.9225 4.38794 12.9225 3.97841C12.9225 3.5351 12.5295 3.49309 12.1232 3.49309H11.7697V4.49201ZM11.7697 6.50324H12.1304C12.5752 6.50324 13.0399 6.43379 13.0399 5.9413C13.0399 5.4146 12.5622 5.36563 12.1432 5.36563H11.7697V6.50324Z" fill="#00529C"/>
<path fill-rule="evenodd" clip-rule="evenodd" d="M15.8569 2.57812H17.3496L19.1108 7.41904H17.7751L17.4349 6.38592H15.7196L15.3593 7.41904H14.1221L15.8569 2.57812ZM16.6032 3.5771H16.5894L16.0006 5.47066H17.1462L16.6032 3.5771Z" fill="#00529C"/>
<path fill-rule="evenodd" clip-rule="evenodd" d="M19.2793 2.57764H20.8308L22.3759 5.86529H22.3887L22.3693 2.57764H23.4827V7.41855H21.9702L20.3723 4.11042H20.3597L20.3988 7.41855H19.2793V2.57764Z" fill="#00529C"/>
<path fill-rule="evenodd" clip-rule="evenodd" d="M23.8955 2.57764H25.113V4.55479H25.1262L26.5005 2.57764H27.9676L26.2782 4.83154L28.0985 7.41855H26.5464L25.1262 5.22017H25.113V7.41855H23.8955V2.57764Z" fill="#00529C"/>
<path fill-rule="evenodd" clip-rule="evenodd" d="M29.6094 2.57764H31.7111C32.5619 2.57764 33.1972 2.97302 33.1972 3.80539C33.1972 4.41567 32.9031 4.75554 32.3922 4.93561V4.94933C33.0009 5.08148 33.3152 5.42831 33.3152 6.01749C33.3152 7.176 32.3527 7.41855 31.5347 7.41855H29.6094V2.57764ZM30.8273 4.49193H31.1674C31.5669 4.49193 31.979 4.38786 31.979 3.97833C31.979 3.53502 31.5867 3.49301 31.181 3.49301H30.8273V4.49193ZM30.8273 6.50316H31.1875C31.6323 6.50316 32.0974 6.43371 32.0974 5.94121C32.0974 5.41452 31.6196 5.36555 31.2005 5.36555H30.8273V6.50316Z" fill="#00529C"/>
<path fill-rule="evenodd" clip-rule="evenodd" d="M33.584 2.57764H35.7576C36.5692 2.57764 37.2308 2.96585 37.2308 3.79863C37.2308 4.44354 36.9427 4.87354 36.3536 5.01899V5.03271C36.7456 5.14396 36.7723 5.51127 37.0014 6.10087L37.4468 7.41855H36.1769L35.9148 6.54523C35.6659 5.71287 35.5087 5.50431 35.057 5.50431H34.8015V7.41855H33.584V2.57764ZM34.8019 4.58904H35.1229C35.5157 4.58904 36.0134 4.57489 36.0134 4.02709C36.0134 3.57661 35.5874 3.49301 35.1229 3.49301H34.8019V4.58904Z" fill="#00529C"/>
<mask id="mask0_97_5727" style="mask-type:luminance" maskUnits="userSpaceOnUse" x="0" y="0" width="39" height="10">
<path fill-rule="evenodd" clip-rule="evenodd" d="M0 9.86372H39V0.136719H0V9.86372Z" fill="white"/>
</mask>
<g mask="url(#mask0_97_5727)">
<path fill-rule="evenodd" clip-rule="evenodd" d="M37.7822 7.41855H38.9998V2.57764H37.7822V7.41855Z" fill="#00529C"/>
<path fill-rule="evenodd" clip-rule="evenodd" d="M7.77366 0.136719H1.40066C0.627097 0.136719 0 0.817512 0 1.65747V1.67352V8.34339C0 9.17512 0.61554 9.85126 1.37914 9.86372H7.77027C8.54403 9.86372 9.17132 9.18293 9.17132 8.34339L9.17431 1.65747C9.17431 0.817512 8.54741 0.136719 7.77366 0.136719ZM2.15811 9.08454L1.81039 9.08855C1.38953 9.08855 1.04838 8.72229 1.04838 8.27033L1.04639 8.20595V2.03131L1.04858 1.69883C1.06433 1.26144 1.37797 0.909325 1.78887 0.909325H2.49567C3.13612 0.909325 3.65561 1.49935 3.65561 2.19555C3.65561 2.53964 3.52828 2.85207 3.32204 3.07921L1.51866 5.01773L3.20885 6.84098C3.42685 7.07889 3.55857 7.39174 3.55857 7.73435C3.55857 8.48016 2.93147 9.08454 2.15811 9.08454ZM7.3544 9.07842L4.20317 9.07694C4.20317 9.07694 4.56764 8.24268 4.56764 7.72633C4.56764 7.09684 4.36877 6.53426 4.05771 6.16209L2.97987 4.99809L4.08003 3.79399C4.40742 3.46784 4.62502 2.88901 4.62502 2.22975C4.62502 1.7077 4.48872 1.24518 4.26933 0.909325H5.03293C5.67357 0.909325 6.19307 1.49935 6.19307 2.19555C6.19307 2.53964 6.06593 2.85207 5.85969 3.07921L4.09079 4.99746L7.7647 8.96632C7.64832 9.04401 7.50146 9.07842 7.3544 9.07842ZM8.12431 7.83881L5.49138 4.99616L6.74537 3.64597C7.00084 3.308 7.16264 2.79862 7.16264 2.22929C7.16264 1.70386 7.02435 1.23016 6.80296 0.89409L7.3643 0.911823C7.78516 0.911823 8.1263 1.27871 8.1263 1.73046L8.12431 7.83881Z" fill="#00529C"/>
</g>
</svg>
