<svg width="33" height="10" viewBox="0 0 33 10" fill="none" xmlns="http://www.w3.org/2000/svg">
<path fill-rule="evenodd" clip-rule="evenodd" d="M3.05831 7.63096L4.4158 9.39605H1.0549L3.05831 7.63096ZM2.63144 7.08573L0.00237163 9.40145L0.00129366 3.70617L2.63144 7.08573ZM8.95719 1.35091C8.95719 1.35091 8.38004 1.06403 7.70954 1.10593C6.943 1.15333 6.30171 1.462 5.93305 1.8693C5.70107 2.12518 5.44462 2.43733 5.3158 2.77633C5.12899 3.26675 5.0891 3.91476 5.0891 3.91476C5.0891 3.91476 4.82101 3.67584 4.48512 2.97964C4.09457 2.16988 3.98774 1.67935 3.93481 1.11974C3.8877 0.628653 3.96165 0.143066 3.96165 0.143066H8.95719V1.35091ZM8.95719 2.96549V6.55656C8.95719 6.55656 8.64662 6.6818 8.3933 6.6818C8.13998 6.6818 7.70857 6.64238 7.20753 6.35314C6.71016 6.06626 6.43484 5.71917 6.2214 5.40465C6.00495 5.08475 5.82622 4.64128 5.77307 4.32172C5.73039 4.06606 5.68436 3.42839 5.93305 2.91011C6.06801 2.62885 6.43021 2.14674 7.12755 2.11933C7.69596 2.09642 8.01116 2.25334 8.30005 2.41981C8.84982 2.73724 8.95719 2.96549 8.95719 2.96549ZM3.51764 6.30439L4.41871 5.51574C4.13154 5.13058 4.05565 4.98545 3.73463 4.48818C3.40596 3.97923 3.13064 3.41929 2.89522 2.76229C2.64038 2.05059 2.57883 1.65105 2.60697 1.11974C2.64222 0.443764 2.7886 0.143066 2.7886 0.143066H0L0.00129357 1.72114C0.00129357 1.72114 2.13589 4.52997 3.51764 6.30439ZM6.09226 9.39347H8.95719V7.20008C8.95719 7.20008 8.24659 7.54233 7.78468 7.56997C7.50969 7.58682 7.24278 7.59794 6.81213 7.47763C6.3334 7.34408 6.06143 7.21389 5.61774 6.82962C5.26136 6.5214 4.85389 6.06625 4.85389 6.06625L3.94753 6.85973C4.36805 7.39979 4.67861 7.79293 4.77369 7.89875C5.18245 8.35232 5.35568 8.51901 5.631 8.68065C5.9062 8.84262 6.82571 8.83386 6.82571 8.83386L6.09226 9.39347Z" fill="#E94E0F"/>
<path fill-rule="evenodd" clip-rule="evenodd" d="M30.6243 7.44236C30.6243 8.0779 30.7059 9.12253 30.028 9.37684V9.41919H32.6025V9.37684C31.9251 9.10861 32.0063 8.0779 32.0063 7.44236V2.11955C32.0063 1.48435 31.9251 0.439488 32.6025 0.171253V0.128906H30.028V0.171253C30.7191 0.439488 30.6243 1.47019 30.6243 2.11955V7.44236ZM21.1844 2.11955L25.832 8.26144C26.4281 9.06603 26.8484 9.53219 27.8103 9.87085V1.95016C27.8103 1.15961 27.8103 0.594723 28.5151 0.171253V0.128906H26.1301V0.171253C26.8484 0.594723 26.8346 1.15961 26.8346 1.95016V7.30128L21.8756 0.778264L21.6856 0.495876C21.591 0.382988 21.5369 0.312447 21.4826 0.143059V0.128906H19.504V0.171253C20.2087 0.594723 20.2087 1.15961 20.2087 1.95016V7.58389C20.2087 8.37433 20.2087 8.93899 19.4908 9.37684V9.41919H21.8891V9.37684C21.1709 8.93899 21.1844 8.37433 21.1844 7.58389V2.11955ZM13.6085 3.87049V1.10322L14.5162 1.00415C15.3293 0.919458 16.1963 1.42785 16.1963 2.40216C16.1963 3.55991 14.9361 3.87049 14.0556 3.87049H13.6085ZM13.6085 8.28963V4.80213L14.5568 4.74574C15.7492 4.67509 17.0229 5.26828 17.0229 6.63776C17.0229 7.97905 15.8985 8.51552 14.7872 8.40263L13.6085 8.28963ZM12.2262 7.42832C12.2262 8.0779 12.3076 9.1086 11.6299 9.37684V9.41919H13.8657C14.8819 9.41919 15.9527 9.46165 16.9009 8.98156C17.8088 8.52967 18.5271 7.5977 18.5271 6.5105C18.5271 5.12709 17.5377 4.27981 16.3182 4.01135C17.0907 3.65853 17.6731 3.12206 17.6731 2.17605C17.6731 0.919458 16.6301 0.128906 14.8416 0.128906H11.6299V0.171253C12.3213 0.439488 12.2262 1.47019 12.2262 2.1054V7.42832Z" fill="#005B6A"/>
</svg>
