<svg width="43" height="12" viewBox="0 0 43 12" fill="none" xmlns="http://www.w3.org/2000/svg">
<path fill-rule="evenodd" clip-rule="evenodd" d="M6.2274 0.10498H6.04822C4.55923 0.134247 3.09265 0.690302 2.01129 1.64688C0.743597 2.74227 0.0161262 4.33852 0 5.94732V6.097C0.0304606 7.67235 0.737325 9.23181 1.96829 10.3155C3.0586 11.2988 4.55296 11.8716 6.06972 11.895H6.24532C8.29513 11.8733 10.2679 10.8021 11.334 9.17411C12.246 7.82453 12.5265 6.1271 12.1215 4.57934C11.782 3.24397 10.9255 2.02734 9.73932 1.21458C8.73144 0.512197 7.48434 0.126721 6.2274 0.10498ZM3.4442 4.89537C4.02295 5.05341 4.64023 4.95725 5.20375 4.78751C5.51428 4.69196 5.81998 4.58274 6.12569 4.47351C6.61992 4.29692 7.11417 4.12033 7.62895 4.0015C8.31789 3.85099 9.09195 3.97224 9.64383 4.39868C9.75301 4.49657 9.75277 4.63799 9.75254 4.7721C9.75248 4.80525 9.75242 4.83796 9.75402 4.86945C9.74786 5.30112 9.75005 5.73294 9.75224 6.16472C9.75547 6.80099 9.75869 7.43721 9.73521 8.07283C9.65207 8.03983 9.56937 8.00479 9.48656 7.96969L9.48654 7.96969L9.48652 7.96968L9.48651 7.96967L9.48649 7.96967C9.14548 7.82516 8.8026 7.67987 8.41913 7.67314C7.6194 7.63211 6.88014 7.87984 6.13947 8.12804C5.53679 8.33001 4.93318 8.53228 4.2953 8.57955C3.71655 8.61718 3.11182 8.48924 2.64237 8.16397C2.5462 8.03973 2.551 7.88423 2.55569 7.73199C2.5576 7.67009 2.55949 7.60872 2.55457 7.55022C2.56349 7.16387 2.55954 6.77679 2.55559 6.38968V6.38967V6.38967V6.38966V6.38966C2.54922 5.76552 2.54285 5.14129 2.59041 4.51993C2.69601 4.56384 2.79763 4.61609 2.8992 4.66832C3.07425 4.75833 3.24918 4.84828 3.4442 4.89537ZM15.5902 3.0416C15.2733 3.04347 14.9565 3.04533 14.6398 3.04181C14.6393 4.03435 14.6393 5.0271 14.6393 6.01995C14.6393 7.0128 14.6393 8.00575 14.6389 8.99871C14.9918 8.99913 15.3446 8.99913 15.6974 8.99913C16.0501 8.99913 16.4029 8.99913 16.7559 8.99955C17.2692 9.00038 17.7879 8.9084 18.2466 8.68682C19.4669 8.12825 20.1737 6.78536 19.9399 5.5403C19.7464 4.24423 18.5333 3.14299 17.1241 3.05519C16.613 3.03557 16.1016 3.03859 15.5902 3.0416ZM15.9728 7.23036C15.9755 6.26136 15.9781 5.29235 15.9689 4.32335C16.1058 4.32728 16.2434 4.32505 16.3812 4.32281L16.3812 4.32281C16.6826 4.31791 16.9845 4.313 17.2796 4.37268C18.0151 4.52988 18.5822 5.16956 18.6342 5.8686C18.7121 6.56429 18.2794 7.28257 17.5914 7.56686C17.2184 7.73136 16.8085 7.72336 16.4028 7.71545C16.2579 7.71262 16.1135 7.70981 15.9716 7.71487L15.9728 7.23036ZM22.3096 5.45069C22.3526 4.15881 23.5988 2.9982 25 3.04252C26.3734 3.02914 27.5793 4.16466 27.634 5.43146C27.6482 6.15924 27.646 6.88734 27.6438 7.61536V7.61602V7.61605V7.61608C27.6424 8.07641 27.6411 8.53672 27.6438 8.9969L27.6432 8.99691C27.1981 8.99774 26.754 8.99858 26.3098 8.9969C26.3076 8.78367 26.3078 8.57044 26.308 8.35731C26.3083 8.1442 26.3085 7.93119 26.3063 7.7184C25.7826 7.72085 25.2592 7.72042 24.7359 7.71999H24.7355H24.7354H24.7354H24.7353C24.369 7.71968 24.0027 7.71938 23.6365 7.72007C23.6351 7.87887 23.6358 8.03778 23.6364 8.19672V8.19675V8.19678V8.19727V8.1974C23.6375 8.46591 23.6386 8.7345 23.6302 9.00276C23.3345 8.99607 23.0393 8.99681 22.7441 8.99755C22.5966 8.99793 22.4491 8.9983 22.3016 8.99774C22.3032 8.56779 22.302 8.13773 22.3008 7.70768C22.2987 6.95511 22.2965 6.20256 22.3096 5.45069ZM23.9788 4.74972C23.6152 5.1164 23.6258 5.61118 23.6359 6.0853C23.6385 6.20584 23.6411 6.32504 23.6374 6.44046C23.9926 6.4408 24.3479 6.4406 24.7032 6.4404H24.7033H24.7033L24.7052 6.44039C25.2393 6.44009 25.7734 6.43979 26.3072 6.4413C26.3039 6.32631 26.3067 6.20768 26.3096 6.08777C26.3208 5.62432 26.3324 5.14167 25.9901 4.77564C25.5125 4.19032 24.4733 4.17694 23.9788 4.74972ZM29.978 5.46383C30.0174 4.32664 30.9697 3.27139 32.1783 3.07991C33.0778 2.91852 34.0418 3.24881 34.6277 3.9027C35.081 4.36845 35.3122 4.99892 35.3122 5.62438C35.314 6.37409 35.3134 7.12342 35.3128 7.87288V7.87297C35.3125 8.24776 35.3122 8.62259 35.3122 8.9975C35.1611 8.99836 35.0098 8.99785 34.8586 8.99734H34.8586H34.8585C34.5668 8.99636 34.275 8.99538 33.9835 9.00419C33.9739 8.36705 33.9755 7.72964 33.977 7.09227C33.9782 6.60207 33.9794 6.11189 33.9755 5.62187C33.9826 5.16699 33.7219 4.71379 33.2955 4.48802C32.8529 4.24051 32.2536 4.27731 31.8477 4.57498C31.4965 4.81998 31.3003 5.22803 31.3066 5.63441C31.3045 6.27515 31.3048 6.91562 31.3051 7.55612V7.55613C31.3053 8.03652 31.3056 8.51694 31.3048 8.9975C31.1422 8.99689 30.9797 8.99717 30.8171 8.99745C30.5326 8.99793 30.2481 8.99841 29.9636 8.99416C29.9731 8.42691 29.9714 7.85947 29.9697 7.29202C29.9678 6.68255 29.9659 6.07308 29.978 5.46383ZM38.0729 4.19621C38.588 3.447 39.5394 2.96369 40.5007 3.04898C41.5875 3.11169 42.5515 3.88432 42.8525 4.8501C42.9636 5.17616 42.9689 5.51678 42.9742 5.8571V5.85716C42.9772 6.0518 42.9802 6.24633 43.003 6.43799V8.99082C42.6617 8.9996 42.3203 8.99851 41.979 8.99741C41.8652 8.99704 41.7514 8.99668 41.6376 8.99668C41.6371 8.85998 41.6373 8.72319 41.6376 8.58637V8.58447V8.58407C41.6381 8.29401 41.6387 8.00381 41.6314 7.71399C41.091 7.72162 40.5502 7.72058 40.0094 7.71954C39.6616 7.71887 39.3139 7.7182 38.9661 7.71984C38.9656 7.93265 38.9656 8.14547 38.9656 8.35839C38.9656 8.57129 38.9656 8.7843 38.9652 8.99751H37.6303C37.6298 8.44857 37.6298 7.89983 37.6298 7.35119C37.6298 6.80256 37.6298 6.25403 37.6294 5.7055C37.6231 5.17704 37.7584 4.64022 38.0729 4.19621ZM39.2999 4.75817C38.9434 5.12348 38.954 5.6143 38.9642 6.08481V6.08494C38.9668 6.20563 38.9694 6.32499 38.9657 6.44055C39.5595 6.44111 40.1532 6.44092 40.7467 6.44073L41.6364 6.44055C41.6324 6.32261 41.6352 6.20085 41.6381 6.07781C41.6486 5.61639 41.6596 5.13696 41.3166 4.77322C40.8346 4.18706 39.7909 4.17954 39.2999 4.75817Z" fill="#108EE9"/>
</svg>
