<svg width="24" height="14" viewBox="0 0 24 14" fill="none" xmlns="http://www.w3.org/2000/svg">
<path fill-rule="evenodd" clip-rule="evenodd" d="M7.70547 0.116306C7.59614 0.178926 7.59968 0.284162 7.60301 0.383215C7.60401 0.412981 7.605 0.442189 7.60289 0.469515C7.6098 0.585183 7.57645 0.696679 7.54308 0.808248C7.51524 0.901334 7.48739 0.994471 7.48288 1.09013C7.48059 1.14558 7.47233 1.20061 7.46407 1.25561C7.45518 1.31481 7.4463 1.37398 7.44486 1.43366C7.44085 1.63424 7.39575 1.83125 7.35068 2.02817L7.35067 2.02818L7.35067 2.02819L7.35067 2.0282C7.32906 2.12259 7.30746 2.21696 7.2904 2.31169C7.28737 2.41184 7.27612 2.51142 7.26487 2.61101L7.26486 2.61102L7.26486 2.61103C7.25403 2.70691 7.2432 2.80281 7.2397 2.89923C7.22273 2.99039 7.20004 3.08117 7.17733 3.17199C7.1301 3.36094 7.08281 3.55011 7.08682 3.74356C7.09305 3.94455 7.04719 4.14111 7.00129 4.33782C6.96546 4.49139 6.9296 4.64505 6.91849 4.801C6.89721 4.89454 6.89365 4.98924 6.89008 5.08399C6.88747 5.15327 6.88485 5.22258 6.87532 5.2915C6.8607 5.3594 6.84423 5.42718 6.82775 5.49498L6.82774 5.49503C6.7804 5.68987 6.73299 5.88498 6.72917 6.08403C6.72132 6.27322 6.67926 6.45942 6.63723 6.64551C6.61562 6.74115 6.59402 6.83676 6.57708 6.93273C6.57669 7.02047 6.5657 7.10752 6.55471 7.19456L6.55471 7.19457C6.54362 7.28241 6.53253 7.37025 6.53233 7.4588C6.52716 7.60139 6.49029 7.74093 6.45342 7.88047L6.45342 7.88047C6.41397 8.02978 6.37452 8.17909 6.3739 8.33214C6.37347 8.42348 6.36161 8.51416 6.34974 8.60491C6.33996 8.6797 6.33017 8.75454 6.32677 8.82982C6.31456 8.88329 6.30165 8.93676 6.28874 8.99027C6.23172 9.22655 6.1745 9.46367 6.17547 9.70535C6.17379 9.88557 6.13231 10.0622 6.09083 10.2389C6.06394 10.3534 6.03705 10.4679 6.02101 10.5834C6.02246 10.6773 6.00977 10.771 5.9971 10.8647C5.97866 11.0008 5.96025 11.1368 5.98536 11.2733C6.01017 11.3126 6.06203 11.313 6.11162 11.3133C6.12694 11.3134 6.14204 11.3135 6.15607 11.3148C6.52556 11.313 6.89521 11.3132 7.26482 11.3134H7.26625H7.26626H7.26627C7.4968 11.3135 7.72731 11.3136 7.95777 11.3132C8.07936 11.019 8.12807 10.7088 8.1558 10.4015C8.15014 10.1953 8.20058 9.99398 8.25094 9.79297C8.27114 9.71234 8.29133 9.63175 8.30789 9.5509C8.31977 9.27445 8.34353 8.99769 8.40611 8.72529C8.47225 8.4841 8.52335 8.23823 8.51226 7.99079C8.50726 7.82763 8.55039 7.669 8.59353 7.51036C8.63585 7.35471 8.67818 7.19906 8.67504 7.03913C8.6771 6.99242 8.68445 6.94607 8.69181 6.8997V6.89969V6.89969V6.89968L8.69182 6.89966C8.70004 6.84784 8.70827 6.796 8.7091 6.74364C8.71025 6.58402 8.7499 6.42825 8.78959 6.27235L8.7896 6.27233C8.81857 6.15856 8.84755 6.04472 8.86159 5.92927C8.87782 5.6394 8.89802 5.34735 8.98278 5.06403C9.01641 4.9476 9.02825 4.829 9.04009 4.71038C9.04624 4.64876 9.05239 4.58713 9.0616 4.52579C9.05863 4.34014 9.1017 4.15839 9.14477 3.97664L9.14478 3.97663C9.18785 3.79488 9.23092 3.61313 9.22795 3.42748C9.22532 3.21367 9.2753 3.00482 9.3253 2.7959L9.3253 2.79589C9.37337 2.59505 9.42145 2.39415 9.42281 2.18875C9.4183 1.98257 9.46609 1.78058 9.51384 1.57877L9.51384 1.57876C9.53734 1.47944 9.56083 1.38017 9.57807 1.28046C9.57608 1.17076 9.58992 1.06204 9.60377 0.953319C9.61469 0.867516 9.62562 0.78171 9.62876 0.695418C9.63656 0.614898 9.66103 0.536287 9.68546 0.457785C9.71688 0.35681 9.74825 0.256014 9.74402 0.151565C9.6567 0.106187 9.55374 0.107862 9.45291 0.109503C9.4234 0.109983 9.39408 0.11046 9.36538 0.109754C9.13483 0.112484 8.90414 0.111422 8.67348 0.11036C8.35059 0.108874 8.02776 0.107388 7.70547 0.116306ZM12.7105 0.172664C12.5069 0.229763 12.3002 0.292168 12.1326 0.402935C11.9065 0.534609 11.7785 0.738047 11.6605 0.93306C11.593 1.05086 11.5967 1.18073 11.6003 1.30798V1.30801V1.30804V1.30806C11.601 1.33381 11.6018 1.35945 11.6019 1.38487C11.5989 1.53009 11.6845 1.66108 11.7669 1.78707L11.7669 1.78708L11.7809 1.80859C11.9746 2.10626 12.3552 2.31625 12.7675 2.3824C13.1343 2.43045 13.4891 2.30502 13.7751 2.13434C13.9878 2.00361 14.1367 1.81983 14.2468 1.62824C14.3024 1.53878 14.3008 1.4398 14.2992 1.34192C14.2987 1.31077 14.2982 1.27972 14.2995 1.24914C14.2982 1.22146 14.2986 1.19353 14.2991 1.16556C14.3002 1.09894 14.3012 1.03208 14.2789 0.967694C14.1395 0.680635 13.8888 0.415728 13.5315 0.279063L13.4978 0.267552C13.2511 0.1831 12.9783 0.0897145 12.7105 0.172664ZM3.35661 0.646407C3.69841 0.467931 4.09368 0.37058 4.48579 0.285398C5.05493 0.218937 5.63715 0.218625 6.20748 0.28103C6.33779 0.304431 6.50572 0.350298 6.5283 0.470115C6.524 0.592587 6.48257 0.710002 6.4411 0.827551C6.40619 0.926524 6.37124 1.02559 6.35838 1.12786C6.35119 1.15144 6.34756 1.17747 6.34388 1.20393C6.33356 1.27795 6.32278 1.35536 6.23204 1.39214C5.98656 1.51409 5.70572 1.51074 5.42488 1.50738C5.14885 1.50409 4.87281 1.50079 4.63035 1.61648C4.4343 1.70104 4.24736 1.80401 4.09923 1.93693C3.89526 2.12788 3.77485 2.36221 3.66989 2.59498C3.62989 2.69015 3.60494 2.78937 3.60296 2.88953C3.60037 3.03926 3.55601 3.18418 3.51169 3.32901L3.51169 3.32901C3.48831 3.40541 3.46493 3.48178 3.4477 3.55882C3.42829 3.62559 3.50988 3.67926 3.58434 3.69392C3.67021 3.69967 3.75526 3.69131 3.84038 3.68293C3.91231 3.67586 3.98429 3.66878 4.05685 3.67021C4.33326 3.67107 4.60966 3.67088 4.88613 3.6707H4.88617H4.8862C5.11243 3.67056 5.33871 3.67041 5.56507 3.67083C5.6621 3.6674 5.80983 3.70796 5.77894 3.80531C5.76191 3.89328 5.73633 3.98035 5.71075 4.06746C5.66555 4.22133 5.62033 4.37531 5.6221 4.53451C5.62764 4.65339 5.6019 4.77102 5.55596 4.88428C5.1856 4.88652 4.81512 4.8862 4.44466 4.88587C4.14281 4.88561 3.84096 4.88535 3.53919 4.88647C3.40057 4.88147 3.28215 4.97446 3.28769 5.08398C3.25964 5.21252 3.25507 5.34262 3.2505 5.47264C3.24487 5.63267 3.23925 5.79255 3.18986 5.94921C3.11872 6.19573 3.09277 6.44724 3.06683 6.69864L3.06682 6.69865L3.06682 6.69866C3.05724 6.79154 3.04765 6.88441 3.03579 6.97701C2.97203 7.24972 2.91143 7.52367 2.89202 7.80106C2.89281 8.0513 2.84053 8.29967 2.76885 8.54305C2.73506 8.64425 2.73144 8.74802 2.72781 8.85198C2.72476 8.93937 2.72171 9.02689 2.70072 9.11311C2.696 9.28377 2.65627 9.4513 2.61654 9.61883C2.57303 9.80231 2.52952 9.98579 2.532 10.1734C2.53815 10.374 2.49047 10.57 2.44274 10.7662C2.41366 10.8857 2.38458 11.0052 2.36763 11.126C2.35241 11.2353 2.31119 11.3397 2.26995 11.4441C2.23284 11.5381 2.19572 11.632 2.17752 11.7297C2.15848 11.8348 2.11959 11.936 2.08069 12.0372C2.0379 12.1486 1.99509 12.26 1.9787 12.3765C1.89433 12.6408 1.73116 12.9104 1.43926 13.0702C1.24914 13.156 1.03408 13.2202 0.811889 13.2143C0.671573 13.2133 0.531257 13.2134 0.39094 13.2135H0.39058C0.273574 13.2136 0.156568 13.2136 0.0395617 13.2131C0.0320365 13.044 0.028868 12.8748 0.0431263 12.706C0.05931 12.5977 0.0857786 12.4904 0.112245 12.3831C0.152494 12.2199 0.192738 12.0567 0.1968 11.8901C0.199437 11.8343 0.207616 11.7788 0.215792 11.7234C0.226035 11.6539 0.236275 11.5845 0.235614 11.5144C0.235852 11.4112 0.266172 11.3116 0.296508 11.212C0.316615 11.1459 0.336729 11.0799 0.348096 11.0127C0.37186 10.5927 0.426121 10.1727 0.540188 9.76149C0.547862 9.61406 0.562498 9.46724 0.577133 9.32042C0.585915 9.23233 0.594696 9.14423 0.601974 9.05601C0.617895 8.95702 0.643011 8.85886 0.668121 8.76071C0.712349 8.58784 0.756562 8.41502 0.750499 8.23789C0.74927 8.05379 0.792099 7.87342 0.834912 7.69312C0.861106 7.5828 0.887293 7.47252 0.90338 7.36142C0.903786 7.27635 0.91501 7.19194 0.92623 7.10755C0.936904 7.02727 0.947576 6.94702 0.948927 6.86624C0.956466 6.72247 0.993015 6.58178 1.02956 6.4411C1.0487 6.36746 1.06783 6.29382 1.0828 6.21974C1.10656 6.11515 1.10706 6.00909 1.10757 5.90301C1.10813 5.78629 1.10869 5.66957 1.14023 5.55482C1.1534 5.47858 1.17651 5.40358 1.19961 5.32863C1.23069 5.22781 1.26174 5.12706 1.26855 5.02344C1.28924 4.90695 1.13451 4.88106 1.01427 4.86094L1.01426 4.86094L1.01424 4.86093C0.994071 4.85756 0.974875 4.85435 0.957641 4.8509C0.862498 4.82877 0.762396 4.82581 0.662621 4.82286H0.662615C0.523149 4.81872 0.38432 4.81461 0.260566 4.75823C0.160362 4.70487 0.0486712 4.64496 0.0102529 4.5498C-0.0103406 4.46245 0.00410176 4.37545 0.0185675 4.28831C0.028028 4.23132 0.0374985 4.17427 0.0371853 4.11702C0.0399469 4.08134 0.0395968 4.04498 0.0392456 4.00851C0.0383375 3.9142 0.0374219 3.8191 0.090258 3.73292C0.146103 3.67645 0.245516 3.66865 0.329877 3.66896C0.704555 3.67114 1.07884 3.67177 1.45312 3.67114C1.46098 3.6127 1.46349 3.55393 1.466 3.4952V3.4952C1.46956 3.41189 1.47312 3.32865 1.49193 3.24648C1.50418 3.14863 1.53326 3.0534 1.56233 2.95822C1.59341 2.85643 1.62447 2.75471 1.63491 2.6499C1.65075 2.4995 1.71729 2.35847 1.79096 2.22087C1.90067 1.95565 2.08049 1.71352 2.26149 1.47545C2.54467 1.14096 2.93282 0.867318 3.35661 0.646407ZM20.5999 3.52242C20.6651 3.51198 20.7303 3.50154 20.7945 3.48839C21.0366 3.43299 21.2909 3.44193 21.5407 3.4507L21.631 3.45376C21.6682 3.46 21.7055 3.46607 21.7429 3.47215C21.9541 3.50646 22.1671 3.54107 22.3649 3.60946C22.9293 3.79012 23.3602 4.17484 23.601 4.60886C23.6582 4.6999 23.6982 4.79601 23.7383 4.89224L23.7384 4.8924C23.7562 4.9353 23.7741 4.97822 23.7935 5.02073C23.8977 5.22458 23.9182 5.44171 23.9387 5.65886V5.65888C23.9496 5.77445 23.9605 5.89002 23.984 6.0036C24.0045 6.1553 24.0002 6.30853 23.9959 6.46109L23.9959 6.46144C23.995 6.4917 23.9942 6.52194 23.9935 6.55213C23.9673 6.68942 23.9554 6.82867 23.9436 6.96793V6.96794V6.96795V6.96797C23.9221 7.22021 23.9006 7.47242 23.7939 7.71285C23.7654 7.78265 23.7454 7.85428 23.7255 7.92588L23.7255 7.92593C23.699 8.02139 23.6724 8.1168 23.6256 8.20772C23.5948 8.26877 23.5717 8.33187 23.5485 8.39498L23.5485 8.395C23.5222 8.4667 23.4959 8.5384 23.4584 8.60711C23.1257 9.23708 22.6893 9.84115 22.0908 10.3391C21.6013 10.7435 21.0167 11.0914 20.3394 11.2733C20.0517 11.3789 19.7378 11.3966 19.4259 11.4142C19.3342 11.4193 19.2427 11.4245 19.152 11.4318C19.0722 11.4242 18.9919 11.4186 18.9116 11.4129C18.7261 11.3999 18.5404 11.3868 18.3599 11.3492C18.0137 11.2624 17.6771 11.1417 17.3899 10.9641C17.3652 10.9471 17.341 10.9294 17.3168 10.9117C17.2323 10.8498 17.1477 10.7878 17.0386 10.7529C17.0112 10.8328 17.0003 10.9146 16.9893 10.9965L16.9893 10.9965C16.9802 11.0649 16.971 11.1333 16.9523 11.2006C16.8695 11.4849 16.8323 11.7763 16.8255 12.0674C16.8108 12.2094 16.7737 12.3489 16.7367 12.4883C16.7201 12.5508 16.7035 12.6132 16.6889 12.6759C16.6769 12.7748 16.6692 12.8746 16.6614 12.9746C16.6395 13.2557 16.6174 13.5383 16.5023 13.8057C16.4465 13.9094 16.3207 13.8951 16.2024 13.8815L16.2024 13.8815C16.1663 13.8774 16.1309 13.8734 16.0984 13.8728C15.8405 13.8713 15.5827 13.8716 15.3249 13.8719H15.3248H15.3248C15.0568 13.8723 14.7887 13.8727 14.5208 13.8709C14.4762 13.7317 14.4965 13.5911 14.5168 13.4507C14.5269 13.3803 14.5371 13.3099 14.539 13.2397C14.5559 13.1375 14.5793 13.0361 14.6028 12.9346C14.6398 12.7742 14.6768 12.6139 14.688 12.4509C14.6923 12.1991 14.7284 11.9473 14.8048 11.7027C14.8423 11.5888 14.8481 11.4721 14.8539 11.3554C14.8585 11.2627 14.8631 11.1699 14.8836 11.0783C14.8872 10.9196 14.9268 10.7643 14.9664 10.609L14.9664 10.609C15.0111 10.4338 15.0557 10.2586 15.0484 10.0789C15.0462 9.87458 15.0927 9.67411 15.1391 9.4737L15.1391 9.47366L15.1391 9.47362C15.16 9.38364 15.1809 9.29368 15.1973 9.20338C15.2014 9.13551 15.211 9.06799 15.2206 9.00052C15.2331 8.9129 15.2456 8.82536 15.246 8.73722C15.238 8.57837 15.2807 8.4245 15.3234 8.27053C15.3607 8.13628 15.398 8.00196 15.4017 7.86418C15.4044 7.56502 15.4703 7.27003 15.5359 6.97622C15.5463 6.92958 15.5567 6.88298 15.5668 6.83638C15.594 6.72524 15.5968 6.61274 15.5996 6.50024C15.6015 6.42546 15.6034 6.35069 15.6124 6.27631C15.6288 6.19872 15.6487 6.12151 15.6687 6.04428L15.6687 6.04426L15.6687 6.04425C15.7093 5.88668 15.75 5.72903 15.7609 5.56802C15.7638 5.51232 15.7717 5.45691 15.7796 5.40151C15.7903 5.32719 15.8009 5.2529 15.7993 5.17799C15.7948 5.06412 15.8273 4.95417 15.8599 4.84421L15.8599 4.8442C15.8923 4.73481 15.9247 4.62541 15.9205 4.51214C15.9264 4.4588 15.9317 4.40535 15.937 4.35186L15.937 4.35178L15.937 4.3517C15.963 4.08951 15.9891 3.82646 16.0785 3.57202C16.3005 3.53676 16.5266 3.54047 16.7526 3.54418C16.8787 3.54625 17.0047 3.54831 17.1301 3.54362C17.4458 3.52521 17.7769 3.71055 17.8165 3.96454C17.8339 4.16298 17.8248 4.36268 17.7868 4.55925C17.788 4.65712 17.7757 4.75429 17.7634 4.85139C17.7475 4.97747 17.7315 5.10345 17.7452 5.23072C17.7951 5.22885 17.8458 5.22791 17.8965 5.2276C18.0062 5.01792 18.1967 4.84382 18.39 4.67907C18.4505 4.63097 18.5105 4.58235 18.5704 4.53372L18.5705 4.53371C18.7385 4.39748 18.9066 4.26115 19.0879 4.13584C19.4257 3.90681 19.8206 3.7352 20.2317 3.60166C20.3496 3.56248 20.4748 3.54245 20.5999 3.52242ZM21.0797 4.9027C20.814 4.77851 20.486 4.76791 20.1913 4.82438C19.7331 4.93733 19.3434 5.17541 19.0178 5.44811C18.5536 5.86404 18.1817 6.34112 17.8914 6.84441C17.5686 7.34271 17.3832 7.89811 17.3828 8.4585C17.3737 8.63449 17.3297 8.80707 17.2856 8.97963L17.2856 8.97968L17.2856 8.9797C17.2454 9.13722 17.2052 9.29472 17.1915 9.45478C17.2807 9.66948 17.5393 9.79705 17.7715 9.91155L17.7955 9.92344L17.8446 9.93956C18.1087 10.0265 18.3795 10.1157 18.6697 10.1225L18.7601 10.1239C19.0225 10.1282 19.2934 10.1327 19.5362 10.0451C20.0947 9.88131 20.5628 9.56212 20.8852 9.17053C21.1803 8.85931 21.3663 8.49718 21.5496 8.14018L21.5496 8.14016L21.551 8.13743C21.6781 7.84801 21.7446 7.54779 21.8111 7.24742L21.8287 7.16829C21.9108 6.92573 21.9059 6.67601 21.9011 6.42696C21.8995 6.34315 21.8979 6.25942 21.8996 6.17606C21.8835 6.0253 21.8363 5.87823 21.7891 5.7314L21.7891 5.73137L21.7891 5.73133C21.7664 5.66061 21.7437 5.58994 21.7245 5.51894C21.6001 5.26901 21.4017 5.0169 21.0797 4.9027ZM11.5771 3.88691C11.594 3.78139 11.6109 3.67586 11.6398 3.57191C11.8047 3.57176 11.9696 3.57141 12.1345 3.57107C12.6593 3.56997 13.1843 3.56887 13.7092 3.57409C13.7085 3.68742 13.6821 3.79823 13.6557 3.90912C13.6375 3.98538 13.6193 4.06167 13.6094 4.13885C13.585 4.23515 13.5832 4.33281 13.5815 4.43045C13.5799 4.52548 13.5782 4.6205 13.5556 4.71422C13.5424 4.8051 13.5181 4.89475 13.4938 4.98436C13.4569 5.12058 13.4199 5.25671 13.4221 5.39692C13.421 5.45155 13.4124 5.50562 13.4039 5.55969C13.3944 5.6202 13.3848 5.68072 13.3857 5.74202C13.3872 5.8984 13.3463 6.05084 13.3053 6.20326C13.2632 6.36013 13.221 6.51698 13.2253 6.67808C13.2278 6.75031 13.2172 6.82182 13.2066 6.89337C13.1988 6.94639 13.1909 6.99944 13.1884 7.05282C13.1859 7.19985 13.1475 7.3435 13.109 7.48718C13.0673 7.64263 13.0257 7.79812 13.0296 7.95799C13.0319 8.18431 12.9816 8.40656 12.9314 8.62862C12.9134 8.70812 12.8954 8.78759 12.8799 8.86722C12.8742 8.98378 12.8608 9.09978 12.8474 9.21582C12.8385 9.2933 12.8295 9.37081 12.8229 9.44852C12.806 9.54618 12.7841 9.64348 12.7622 9.74081C12.716 9.94606 12.6698 10.1514 12.6712 10.3606C12.672 10.528 12.633 10.6919 12.594 10.8559C12.5745 10.9379 12.555 11.02 12.5405 11.1025C12.5365 11.1151 12.533 11.1281 12.5294 11.1412C12.5121 11.2051 12.4936 11.2733 12.422 11.3113C12.1258 11.3151 11.8294 11.3144 11.533 11.3137C11.2716 11.3131 11.0101 11.3125 10.7487 11.315C10.7273 11.3136 10.7047 11.3138 10.6818 11.3141C10.6125 11.3149 10.5409 11.3157 10.496 11.2685C10.4764 11.1492 10.4935 11.0309 10.5107 10.9124C10.5238 10.8218 10.5369 10.7311 10.5336 10.6398C10.5271 10.4568 10.5707 10.2781 10.6143 10.0993C10.6535 9.93845 10.6928 9.77759 10.6956 9.61358C10.6995 9.56994 10.7056 9.52644 10.7117 9.48295C10.7218 9.4117 10.7318 9.34049 10.732 9.2688C10.7346 9.15806 10.7653 9.05045 10.796 8.94285C10.8128 8.88401 10.8296 8.82517 10.8417 8.76582L10.843 8.75112C10.8798 8.33568 10.9168 7.91855 11.0322 7.51087C11.039 7.44233 11.0463 7.37381 11.0536 7.30529C11.0712 7.13987 11.0889 6.97442 11.0984 6.80851C11.1143 6.7318 11.1336 6.6555 11.1529 6.5792C11.1893 6.43514 11.2257 6.29108 11.2394 6.14421C11.2525 5.85247 11.2766 5.55917 11.3645 5.27461C11.3943 5.17305 11.4031 5.06937 11.4119 4.96561C11.4182 4.89117 11.4245 4.81669 11.4386 4.74292C11.4379 4.53526 11.4852 4.33107 11.5324 4.12738C11.5363 4.11071 11.5401 4.09405 11.544 4.07738C11.5568 4.01413 11.5669 3.95052 11.5771 3.88691Z" fill="#FD6542"/>
</svg>
