<svg width="48" height="10" viewBox="0 0 48 10" fill="none" xmlns="http://www.w3.org/2000/svg">
<path fill-rule="evenodd" clip-rule="evenodd" d="M4.35858 0.296649C4.90764 0.215946 5.47095 0.225303 6.02259 0.275011C6.53404 0.370334 7.05003 0.476768 7.51935 0.690222C8.46901 1.099 9.27735 1.76158 9.81603 2.57738C10.2627 3.3312 10.5699 4.17682 10.5239 5.04058C10.5369 6.8137 9.29161 8.5032 7.52778 9.25701C6.3843 9.74766 5.05413 9.81492 3.83222 9.54591C3.00573 9.31666 2.20841 8.9459 1.6062 8.3763C1.03252 7.89617 0.5995 7.28447 0.32465 6.62598C-0.0338208 5.81603 -0.0662323 4.91543 0.0861017 4.0622C0.364841 2.79493 1.23282 1.63293 2.46122 0.959231C3.03295 0.61946 3.69026 0.417703 4.35858 0.296649ZM3.62436 2.57231C3.21079 2.61032 2.75898 2.74131 2.53015 3.07816C2.27735 3.4008 2.25098 3.80435 2.22592 4.18773L2.21965 4.28169C2.21449 4.37839 2.20493 4.47497 2.19535 4.57157L2.19535 4.57157C2.17604 4.76647 2.15672 4.96144 2.17363 5.15772C2.18622 5.29026 2.19512 5.42323 2.20401 5.55621L2.20401 5.55625C2.22623 5.88858 2.24846 6.22103 2.32855 6.54722C2.42773 6.95833 2.83806 7.27705 3.29053 7.35191C4.13379 7.48906 4.99283 7.47701 5.84672 7.46503L6.08116 7.46185C6.43055 7.44431 6.77995 7.41214 7.12545 7.36243C7.64274 7.30161 8.09974 6.92149 8.18466 6.45365C8.33311 5.87996 8.35968 5.28813 8.3156 4.70275C8.23263 4.3273 7.93833 3.9887 7.53838 3.85127C7.35818 3.77272 7.15831 3.77321 6.96226 3.77368H6.96225C6.92768 3.77376 6.89323 3.77384 6.85903 3.77349C6.47338 3.77392 6.08773 3.77372 5.70211 3.77353C5.02731 3.77319 4.35261 3.77286 3.67817 3.77583C3.60063 3.77711 3.52827 3.75319 3.45655 3.72949L3.45655 3.72949C3.42993 3.72069 3.40341 3.71192 3.37674 3.70449C3.3748 3.57349 3.37998 3.37758 3.5751 3.37407C4.08315 3.36372 4.59168 3.36677 5.10017 3.36982H5.1002H5.10021C5.76992 3.37384 6.43956 3.37786 7.10795 3.35126C7.03535 3.04717 6.82986 2.72962 6.47593 2.64541C6.15635 2.56821 5.82575 2.52903 5.4971 2.50154C5.40337 2.50049 5.3095 2.49887 5.21555 2.49725L5.21551 2.49725C4.68311 2.48807 4.14835 2.47886 3.62436 2.57231ZM7.24424 5.12614C7.07375 5.08462 6.86956 5.14544 6.80992 5.30392C6.77249 5.48636 6.83247 5.66214 6.89205 5.83675C6.91707 5.91009 6.94203 5.98322 6.95967 6.05656C6.97911 6.0668 7.00828 6.082 7.03745 6.09721C7.06662 6.11241 7.09579 6.12762 7.11524 6.13785C7.18201 6.10276 7.25007 6.07118 7.32073 6.0437C7.32836 5.88937 7.36958 5.74093 7.41079 5.59255C7.42907 5.52671 7.44735 5.46089 7.46269 5.39457C7.43093 5.28521 7.3512 5.18521 7.24424 5.12614Z" fill="#01ACD7"/>
<path fill-rule="evenodd" clip-rule="evenodd" d="M17.1839 1.7536C16.6841 1.57699 16.1292 1.59687 15.6055 1.65535C14.4724 1.81325 13.478 2.59338 13.1422 3.58228C12.9899 3.9741 12.9931 4.39691 13.0333 4.80569C13.1688 5.85132 14.0407 6.76946 15.1472 7.08935C15.9315 7.30339 16.8365 7.31041 17.5605 6.92736C17.6551 6.88017 17.741 6.82187 17.8269 6.76355L17.8269 6.76355C17.9071 6.70912 17.9873 6.65468 18.0746 6.60923L18.0759 6.66356C18.0867 7.09459 18.0988 7.58206 17.7362 7.90749C17.4931 8.17533 17.1256 8.31627 16.7541 8.36773C15.951 8.50048 15.1018 8.25311 14.5048 7.7572C14.3721 7.87916 14.233 7.99566 14.094 8.11214L14.094 8.11215C13.869 8.30062 13.6441 8.48905 13.4462 8.70049C14.0711 9.23383 14.8626 9.61863 15.7209 9.72097C16.5597 9.81629 17.462 9.77009 18.2094 9.3812C18.8434 9.06365 19.3425 8.52154 19.5383 7.88936C19.6598 7.57434 19.6581 7.23783 19.6565 6.90862L19.6563 6.85309C19.6556 5.10979 19.6556 3.36707 19.6563 1.62377C19.3525 1.62038 19.0488 1.62053 18.745 1.62069C18.5256 1.6208 18.3063 1.62091 18.0869 1.61968L18.0876 1.76334V1.76338C18.0886 1.919 18.0896 2.07461 18.0856 2.23022C17.8153 2.0308 17.5165 1.85477 17.1839 1.7536ZM15.1939 3.27276C15.4538 3.06457 15.7987 2.98504 16.1351 2.94001C16.8047 2.8482 17.558 3.12481 17.9009 3.66575C18.0391 3.88493 18.0334 4.13266 18.0277 4.37805C18.0257 4.46396 18.0237 4.54959 18.0279 4.6336C18.0843 5.1494 17.639 5.60438 17.1288 5.77982C16.5124 5.98918 15.752 6.00321 15.214 5.61666C14.4076 5.07103 14.3914 3.82599 15.1939 3.27276ZM30.9549 1.62066C30.2846 1.61656 29.5858 1.79727 29.1029 2.23353C29.0986 2.17775 29.0946 2.12205 29.0905 2.06642C29.0836 1.97043 29.0767 1.87466 29.0685 1.77914C28.5408 1.77329 28.0132 1.77154 27.4855 1.77914C27.4863 3.22243 27.4862 4.66573 27.4861 6.10903V6.11764C27.486 7.19724 27.4859 8.27684 27.4862 9.35644C27.8569 9.378 28.2286 9.37612 28.6002 9.37424H28.6002H28.6002H28.6002H28.6003H28.6003C28.7731 9.37337 28.9458 9.3725 29.1184 9.37399C29.1305 8.70541 29.1278 8.0365 29.1251 7.36751V7.36747V7.36742V7.36738V7.36707C29.1242 7.13857 29.1233 6.91006 29.123 6.68155C30.2872 7.51606 32.1405 7.42425 33.1874 6.46693C34.3269 5.43592 34.3924 3.59846 33.295 2.52242C32.7174 1.92359 31.8306 1.59259 30.9549 1.62066ZM29.201 3.79182C29.3714 3.32924 29.8926 3.05321 30.3989 2.96257C30.9207 2.86725 31.5041 2.98596 31.9073 3.30643C32.5906 3.86668 32.5957 4.9433 31.9514 5.52986C31.3051 6.09419 30.1616 6.08367 29.5192 5.51933C29.2457 5.3012 29.1024 4.95968 29.1264 4.63335C29.1318 4.54732 29.1292 4.46001 29.1267 4.37263V4.37261C29.1209 4.1749 29.1151 3.97675 29.201 3.79182ZM22.7528 1.6937C23.6739 1.52645 24.6819 1.62704 25.4838 2.08962C26.0937 2.42179 26.5579 2.96039 26.7653 3.57502C27.0499 4.38263 26.9222 5.30662 26.3893 6.00956C25.8597 6.71775 24.9555 7.15168 24.022 7.23297C23.447 7.26805 22.8526 7.25051 22.3087 7.06162C21.4077 6.78852 20.6519 6.11775 20.3861 5.28908C20.1009 4.51246 20.2331 3.62356 20.7219 2.93583C21.1743 2.29254 21.9328 1.85336 22.7528 1.6937ZM23.1382 2.97124C22.9087 3.0303 22.6941 3.13323 22.5062 3.26481C21.8553 3.72739 21.6965 4.64202 22.16 5.26133C22.6896 6.04906 24.0561 6.20462 24.773 5.54496C25.1237 5.25431 25.2903 4.82039 25.2436 4.39524C25.2832 3.45253 24.1241 2.69287 23.1382 2.97124ZM38.1857 1.65582C37.2425 1.54412 36.2209 1.66283 35.4385 2.18272C34.9867 2.50671 34.6003 2.95233 34.5238 3.48216C34.7491 3.51696 34.9725 3.56091 35.1959 3.60487C35.4869 3.66212 35.7779 3.71938 36.0731 3.75643C36.2008 3.29385 36.6455 2.92601 37.1673 2.84999C37.505 2.79735 37.8564 2.81314 38.185 2.9032C38.4722 2.98741 38.6907 3.27104 38.5649 3.54122C38.3306 3.73391 38.012 3.79217 37.7084 3.84767L37.7083 3.84769C37.6692 3.85485 37.6303 3.86196 37.5919 3.8693L37.4339 3.88954C36.6633 3.98774 35.8622 4.08983 35.2064 4.49153C34.3955 5.00323 34.3922 6.20734 35.1422 6.76642C35.7613 7.24654 36.6332 7.30151 37.4098 7.20853C37.9471 7.11788 38.4884 6.90794 38.8313 6.50852C38.8333 6.60706 38.8333 6.7056 38.8333 6.80421C38.8333 6.90282 38.8333 7.00151 38.8352 7.10034C38.9535 7.1002 39.0719 7.09986 39.1903 7.09952C39.5655 7.09843 39.9411 7.09735 40.3171 7.10268C40.3185 6.44203 40.3183 5.78158 40.3181 5.12121C40.318 4.6259 40.3178 4.13064 40.3184 3.63538C40.3242 3.23362 40.1615 2.84238 39.9165 2.51138C39.5184 2.00728 38.843 1.75289 38.1857 1.65582ZM36.1448 5.6585C36.0592 5.47546 36.2245 5.29476 36.3898 5.2047C36.7232 5.03894 37.0984 4.9771 37.473 4.91537C37.9243 4.841 38.3746 4.76679 38.7494 4.51112C38.7458 4.59143 38.7487 4.6755 38.7516 4.76074C38.7613 5.04851 38.7715 5.34959 38.5374 5.56435C38.0849 5.97137 37.3959 6.04623 36.7872 6.01114C36.5344 5.99769 36.2018 5.91874 36.1448 5.6585ZM40.9696 1.77615C40.7954 1.77643 40.6211 1.77672 40.4468 1.77672C40.9067 2.64355 41.3767 3.50603 41.8468 4.36856C42.2878 5.17783 42.7289 5.98716 43.1616 6.80018C42.9489 7.22208 42.7176 7.63623 42.4864 8.05037C42.242 8.48813 41.9975 8.92588 41.775 9.37274C41.9623 9.37201 42.1497 9.37331 42.3371 9.37461C42.7537 9.37751 43.1706 9.3804 43.5868 9.36104C44.9526 6.83586 46.3172 4.31067 47.6804 1.78432C47.0678 1.77029 46.4559 1.77263 45.844 1.78198C45.2567 2.94516 44.6622 4.10599 44.0646 5.26449C43.8883 4.92121 43.7103 4.57869 43.5322 4.23619C43.2412 3.67664 42.9503 3.11715 42.6676 2.55451C42.6224 2.4629 42.5725 2.37312 42.5226 2.28336C42.4311 2.11869 42.3397 1.95409 42.2768 1.77847C41.8411 1.77471 41.4053 1.77543 40.9696 1.77615Z" fill="#010101"/>
</svg>
