<svg width="35" height="12" viewBox="0 0 35 12" fill="none" xmlns="http://www.w3.org/2000/svg">
<path fill-rule="evenodd" clip-rule="evenodd" d="M0.0360902 8.02893C0.0360902 7.49092 0.0270677 7.03941 0 6.63684H0.939068L0.983098 7.32848H1.00944C1.22229 6.96299 1.61152 6.53076 2.33756 6.53076C2.90427 6.53076 3.34692 6.87727 3.53251 7.39561H3.55074C3.7015 7.13639 3.87799 6.94449 4.08144 6.80955C4.32072 6.62734 4.59528 6.53076 4.94941 6.53076C5.66635 6.53076 6.39185 7.05879 6.39185 8.55696V11.3125H5.32962V8.73006C5.32962 7.95241 5.08214 7.49092 4.56009 7.49092C4.18764 7.49092 3.9129 7.77949 3.79859 8.11573C3.7717 8.23061 3.74517 8.37475 3.74517 8.50822V11.3125H2.68259V8.60481C2.68259 7.9524 2.44394 7.49092 1.93922 7.49092C1.53194 7.49092 1.25783 7.83713 1.16021 8.16289C1.11564 8.27885 1.09777 8.41291 1.09777 8.54707V11.3125H0.0360902V8.02893Z" fill="#113950"/>
<path fill-rule="evenodd" clip-rule="evenodd" d="M10.5304 10.1897C10.5304 10.6119 10.548 11.0241 10.5923 11.313H9.60934L9.53878 10.7946H9.5119C9.24645 11.1598 8.79496 11.4186 8.23728 11.4186C7.36949 11.4186 6.88281 10.7375 6.88281 10.0265C6.88281 8.84514 7.84741 8.25037 9.44107 8.25986V8.18275C9.44107 7.87539 9.32585 7.36684 8.56462 7.36684C8.13947 7.36684 7.69665 7.51098 7.40468 7.71227L7.19193 6.94479C7.51123 6.73313 8.06946 6.53125 8.75057 6.53125C10.1322 6.53125 10.5304 7.4824 10.5304 8.49971V10.1897ZM9.46759 9.02803C8.69752 9.00865 7.9629 9.19106 7.9629 9.90168C7.9629 10.3621 8.23728 10.5738 8.58266 10.5738C9.01593 10.5738 9.33514 10.2664 9.43223 9.93045C9.45857 9.84405 9.46759 9.74766 9.46759 9.67114V9.02803Z" fill="#113950"/>
<path fill-rule="evenodd" clip-rule="evenodd" d="M11.2836 8.02893C11.2836 7.49092 11.2739 7.03941 11.248 6.63684H12.2034L12.2568 7.33768H12.2829C12.4691 6.97326 12.9382 6.53076 13.6552 6.53076C14.4079 6.53076 15.1869 7.05879 15.1869 8.53778V11.3125H14.0982V8.67252C14.0982 7.99996 13.868 7.49092 13.2748 7.49092C12.841 7.49092 12.5401 7.82705 12.4247 8.18246C12.3899 8.28834 12.3806 8.43268 12.3806 8.56615V11.3125H11.2836V8.02893Z" fill="#113950"/>
<path fill-rule="evenodd" clip-rule="evenodd" d="M19.9077 4.7583V9.99699C19.9077 10.477 19.9251 10.9964 19.9429 11.3128H18.969L18.9254 10.5737H18.9074C18.6505 11.0924 18.1274 11.4185 17.4995 11.4185C16.473 11.4185 15.6583 10.4682 15.6583 9.02793C15.6492 7.46273 16.5522 6.53115 17.5879 6.53115C18.1809 6.53115 18.6062 6.80035 18.8006 7.14627H18.8186V4.7583H19.9077ZM18.8186 8.58552C18.8186 8.4905 18.8095 8.37474 18.7924 8.27904C18.6949 7.81814 18.3494 7.44345 17.8536 7.44345C17.1543 7.44345 16.7647 8.11591 16.7647 8.98967C16.7647 9.84394 17.1543 10.4682 17.8448 10.4682C18.2873 10.4682 18.677 10.1418 18.7831 9.63306C18.8095 9.52699 18.8186 9.41191 18.8186 9.28666V8.58552Z" fill="#113950"/>
<path fill-rule="evenodd" clip-rule="evenodd" d="M20.6768 11.3125H21.7756V6.63721H20.6768V11.3125Z" fill="#113950"/>
<path fill-rule="evenodd" clip-rule="evenodd" d="M22.5454 8.14404C22.5454 7.51062 22.5362 7.05872 22.5098 6.63667H23.4572L23.4919 7.52931H23.5286C23.7407 6.86683 24.2454 6.63667 24.7056 6.63667C24.8116 6.63667 24.8735 6.617 24.9623 6.63667V7.67394C24.8735 7.65476 24.7763 7.63558 24.6435 7.63558C24.1213 7.63558 23.7669 8.00009 23.6696 8.52782C23.6524 8.63351 23.6345 8.75886 23.6345 8.8939V11.3126H22.5454V8.14404Z" fill="#113950"/>
<path fill-rule="evenodd" clip-rule="evenodd" d="M25.4668 11.3125H26.564V6.63721H25.4668V11.3125Z" fill="#113950"/>
<path fill-rule="evenodd" clip-rule="evenodd" d="M25.207 0.984316C24.5479 1.39824 22.9933 2.36525 22.413 2.72536C22.0593 2.92078 21.2401 3.00611 20.7768 2.32855C20.7685 2.31632 20.1606 1.49248 20.1358 1.46146C20.1184 1.43954 19.7253 0.807295 18.8496 0.787529C18.7202 0.784201 18.0769 0.780483 17.4492 1.1674C16.6149 1.68437 14.6745 2.8875 14.6745 2.8875C14.674 2.8875 14.674 2.88858 14.673 2.88858C13.8754 3.38353 13.2539 3.76889 13.2539 3.76889L13.9882 4.74695C14.3317 5.20952 15.1062 5.56737 15.778 5.14914C15.778 5.14914 18.26 3.5903 18.2691 3.5858C19.3425 2.94729 20.1708 2.94729 20.7205 3.18489C21.214 3.41103 21.6433 3.97448 21.6433 3.97448C21.6433 3.97448 22.2043 4.72856 22.3033 4.86047C22.6225 5.28662 23.1508 5.11919 23.1508 5.11919C23.1508 5.11919 23.3466 5.09512 23.6418 4.90509C23.6418 4.90509 26.0459 3.39322 26.0474 3.39273C26.8108 2.90698 27.511 2.81627 27.8688 2.85198C28.9896 2.96246 29.3378 3.81165 29.8237 4.40407C30.1099 4.75253 30.3682 4.95039 30.7631 4.94041C31.0226 4.93444 31.3157 4.76378 31.3589 4.73296L34.2378 2.93105C34.2378 2.93105 33.9424 2.44853 33.3375 1.69778C32.796 1.02796 32.2209 1.33102 31.7624 1.57732C31.5698 1.68065 30.8718 2.18422 30.1803 2.53552C29.6876 2.78574 28.9799 2.71048 28.592 2.19068C28.5688 2.15907 27.9413 1.33513 27.8753 1.23375C27.6221 0.88969 27.1279 0.581543 26.4946 0.581543C26.1095 0.581543 25.6726 0.695447 25.207 0.984316Z" fill="url(#paint0_linear_97_5688)"/>
<defs>
<linearGradient id="paint0_linear_97_5688" x1="13.2539" y1="5.33435" x2="34.2378" y2="5.33435" gradientUnits="userSpaceOnUse">
<stop stop-color="#FFCA06"/>
<stop offset="0.330844" stop-color="#FBAA18"/>
<stop offset="0.694742" stop-color="#FFC907"/>
<stop offset="1" stop-color="#FAA619"/>
</linearGradient>
</defs>
</svg>
