<svg width="44" height="14" viewBox="0 0 44 14" fill="none" xmlns="http://www.w3.org/2000/svg">
<path fill-rule="evenodd" clip-rule="evenodd" d="M41.5556 2.08119C40.1074 0.934274 38.1159 0.398271 36.2004 0.562117C35.7218 0.601266 35.2469 0.67763 34.7861 0.799911C33.098 1.23538 31.6175 2.27259 30.7336 3.63266C29.5451 5.42626 29.4029 7.72832 30.3202 9.64082C31.0014 11.0816 32.3036 12.2773 33.9 12.9115C35.7131 13.6316 37.8588 13.6534 39.688 12.9666C40.6205 12.6147 41.4661 12.0772 42.1441 11.404C43.3822 10.1913 44.0408 8.53643 43.9987 6.89797C43.988 5.08069 43.0987 3.2692 41.5556 2.08119ZM33.2608 4.35631C33.9416 3.44622 35.0642 2.81162 36.2796 2.67629C37.2433 2.55884 38.2539 2.7309 39.0887 3.18378C39.8907 3.61055 40.5176 4.27995 40.8921 5.04311C41.6321 6.56557 41.4661 8.45246 40.3489 9.79512C39.819 10.4312 39.0753 10.9271 38.2307 11.1716C37.17 11.4814 35.9756 11.4147 34.971 10.9783C34.1787 10.6366 33.5163 10.0701 33.0771 9.38865C32.095 7.85846 32.1516 5.82174 33.2608 4.35631ZM10.4299 1.23216C9.1229 0.624626 7.60192 0.421631 6.14778 0.59466C4.74591 0.756572 3.39848 1.30176 2.35288 2.15724C1.28032 3.01755 0.527381 4.18477 0.201842 5.43995C-0.191068 6.93003 -0.0099736 8.54384 0.741892 9.92179C1.43231 11.2089 2.63207 12.2707 4.07813 12.8705C5.51017 13.4679 7.16104 13.611 8.7025 13.3205C10.1836 13.044 11.5515 12.3152 12.5373 11.2867C13.4773 10.3152 14.0626 9.08129 14.227 7.80581C14.386 6.61636 14.1892 5.38824 13.6486 4.29158C13.0078 2.98227 11.8539 1.87788 10.4299 1.23216ZM4.6163 3.36217C5.193 2.98856 5.87695 2.75367 6.58139 2.67247C7.42488 2.57484 8.30286 2.6947 9.06551 3.03641C9.96344 3.42935 10.684 4.11712 11.1082 4.92523C11.5901 5.82614 11.721 6.8648 11.5394 7.8469C11.3718 8.74298 10.9153 9.60764 10.1855 10.2456C9.55813 10.8135 8.7238 11.192 7.84366 11.3142C6.76572 11.4665 5.62148 11.2572 4.71816 10.7024C3.7852 10.1441 3.13035 9.25337 2.84739 8.28624C2.56821 7.3312 2.60324 6.29883 2.96812 5.36602C3.27857 4.57144 3.8488 3.85226 4.6163 3.36217ZM14.8781 0.882746L14.8774 0.882746C14.877 1.34414 14.8772 1.80575 14.8773 2.26743C14.8773 2.49829 14.8774 2.72918 14.8774 2.96006C15.2266 2.96078 15.5756 2.96069 15.9247 2.9606C16.041 2.96057 16.1574 2.96054 16.2739 2.96054C17.1373 4.74177 17.9997 6.52348 18.862 8.30511C19.4886 9.59956 20.1151 10.894 20.742 12.1881C21.0335 12.7884 21.6463 13.2567 22.3594 13.4051C22.6188 13.4659 22.8864 13.4635 23.1531 13.4611C23.236 13.4603 23.3188 13.4595 23.4012 13.4607C24.2195 11.7324 25.0404 10.005 25.8613 8.27775C26.84 6.21858 27.8186 4.15947 28.7926 2.09878C28.8174 1.84806 28.8136 1.59491 28.8098 1.34176C28.8075 1.18841 28.8052 1.03506 28.8093 0.882263H24.283V0.885192C24.2825 1.5773 24.2819 2.26892 24.283 2.96054C24.48 2.96075 24.6771 2.96069 24.8741 2.96063C25.1368 2.96055 25.3995 2.96047 25.6622 2.96103C25.3019 3.75258 24.9425 4.54446 24.5831 5.33634C23.886 6.87214 23.1889 8.40791 22.4855 9.94115C21.9377 8.77792 21.39 7.61468 20.8424 6.45145C20.2946 5.28798 19.7468 4.1245 19.1989 2.96103C19.4306 2.9603 19.6625 2.96042 19.8945 2.96054C20.1264 2.96066 20.3585 2.96079 20.5905 2.96006V0.882746C18.6865 0.881779 16.7826 0.882263 14.8781 0.882746Z" fill="#4C3494"/>
</svg>
