<svg width="24" height="24" viewBox="0 0 24 24" fill="none" xmlns="http://www.w3.org/2000/svg">
<g clip-path="url(#clip0_223_6781)">
<path d="M0.00439453 11.0413C0.11002 10.7882 0.0925195 10.5144 0.13252 10.2513C0.856895 5.49319 4.26439 1.65382 8.95377 0.441317C15.7231 -1.30993 22.1481 2.95007 23.6219 9.24757C25.0394 15.3057 21.7156 21.3219 15.8506 23.3569C14.9275 23.6769 13.9781 23.8738 13.0038 23.9488C12.9663 23.9519 12.9244 23.9438 12.9119 23.9957C12.2725 23.9957 11.6338 23.9957 10.9944 23.9957C10.9738 23.9351 10.92 23.9519 10.8769 23.9476C10.3963 23.8994 9.92065 23.8263 9.44752 23.7269C4.62752 22.7157 0.825645 18.6688 0.13502 13.8188C0.0962695 13.5476 0.113145 13.2657 0.00439453 13.0057C0.00439453 12.3507 0.00439453 11.6963 0.00439453 11.0413ZM2.66564 6.12069C2.6419 6.15069 2.61502 6.17882 2.59502 6.21132C1.13502 8.61007 0.63377 11.1957 1.12064 13.9601C1.62877 16.8463 3.08564 19.1713 5.43502 20.8994C8.14377 22.8913 11.18 23.4813 14.4619 22.7732C15.6869 22.5088 16.8331 22.0344 17.8794 21.3344C17.9788 21.2744 18.0806 21.2182 18.1769 21.1532C19 20.5944 19.7394 19.9394 20.3756 19.1751C22.6338 16.4588 23.4419 13.3476 22.7988 9.88694C22.3338 7.38382 21.0919 5.29132 19.1475 3.64694C16.4431 1.35882 13.3169 0.564442 9.84627 1.19819C7.67814 1.59444 5.81065 2.61257 4.23814 4.16069C3.63814 4.75194 3.09252 5.38944 2.66564 6.12069Z" fill="#5C5C5E"/>
<path d="M15.6076 21.1356C14.9489 21.3713 14.2826 21.5856 13.5895 21.69C11.5008 22.0063 9.48888 21.7525 7.60263 20.7781C4.78138 19.3206 3.02075 17.025 2.37075 13.9169C1.98762 12.0863 2.16012 10.2806 2.8245 8.52752C2.84075 8.48439 2.85137 8.43939 2.86512 8.39502C3.28513 7.42752 3.80075 6.51752 4.492 5.71502C6.1045 3.84377 8.12138 2.68564 10.5733 2.33814C15.3958 1.65377 19.997 4.54689 21.3358 9.18189C22.4076 12.8919 21.542 16.1788 18.8708 18.9688C17.9726 19.9069 16.8864 20.59 15.6883 21.0925C15.6601 21.1038 15.6345 21.1206 15.6076 21.1356ZM3.32012 10.1888C3.31262 10.2075 3.30512 10.2269 3.29762 10.2456C3.28887 10.3219 3.28012 10.3988 3.27137 10.475C3.2595 10.5025 3.24075 10.5294 3.23637 10.5581C3.00075 12.085 3.12325 13.5763 3.64512 15.0369C4.88888 18.5181 8.32075 20.9263 12.0008 20.88C12.512 20.8738 13.0258 20.8675 13.5251 20.7294C13.5858 20.7231 13.6464 20.7169 13.707 20.7106C13.7476 20.7206 13.7826 20.7119 13.8108 20.68C14.1826 20.6319 14.5345 20.51 14.8876 20.3925C18.1108 19.3206 20.5689 16.1631 20.8076 12.785C20.972 10.4613 20.3958 8.34064 18.9132 6.53627C16.6414 3.77189 13.6908 2.69252 10.1808 3.36064C7.69888 3.83314 5.79388 5.23814 4.44263 7.37439C3.89388 8.24002 3.50762 9.17627 3.32012 10.1888Z" fill="#5C5C5E"/>
<path d="M15.7026 21.3024C15.0308 21.5431 14.3515 21.7621 13.6447 21.8687C11.5147 22.1917 9.46322 21.9325 7.53979 20.9373C4.66293 19.4485 2.8676 17.1037 2.20479 13.929C1.81411 12.0591 1.99001 10.2148 2.66748 8.42405C2.68405 8.38 2.69489 8.33404 2.70891 8.28871C3.13718 7.30047 3.66297 6.37096 4.36785 5.55126C6.01213 3.6399 8.06876 2.45695 10.569 2.102C15.4865 1.40295 20.1785 4.3581 21.5436 9.09245C22.6366 12.882 21.7539 16.2393 19.03 19.0891C18.1142 20.0473 17.0065 20.7451 15.7848 21.2584C15.7561 21.2699 15.73 21.2871 15.7026 21.3024ZM3.17287 10.1209C3.16523 10.1401 3.15758 10.1599 3.14993 10.179C3.14101 10.2569 3.13209 10.3354 3.12316 10.4133C3.11105 10.4414 3.09193 10.4688 3.08747 10.4982C2.8472 12.0578 2.97212 13.581 3.50428 15.073C4.77255 18.6288 8.27207 21.0886 12.0246 21.0413C12.5459 21.035 13.0698 21.0286 13.579 20.8875C13.6408 20.8811 13.7027 20.8747 13.7645 20.8683C13.8059 20.8785 13.8416 20.8696 13.8703 20.837C14.2495 20.7879 14.6083 20.6634 14.9684 20.5434C18.255 19.4485 20.7616 16.2234 21.0051 12.7728C21.1727 10.3993 20.5851 8.23317 19.0734 6.39012C16.7567 3.56648 13.7479 2.46397 10.1687 3.14642C7.63793 3.62905 5.69538 5.06416 4.3175 7.24621C3.75793 8.13039 3.36407 9.08671 3.17287 10.1209Z" fill="#5C5C5E"/>
<path d="M13.7063 20.7101C13.7338 20.6751 13.77 20.6701 13.81 20.6794C13.7819 20.7113 13.7469 20.7201 13.7063 20.7101Z" fill="#5C5C5E"/>
<path d="M3.32011 10.1887C3.31261 10.2075 3.30511 10.2268 3.29761 10.2456C3.30511 10.2268 3.31261 10.2081 3.32011 10.1887Z" fill="#5C5C5E"/>
<path d="M6.22681 12.0001C6.22681 11.4545 6.22618 10.9095 6.22743 10.3639C6.22806 10.0764 6.24743 10.0564 6.53056 10.0564C7.58243 10.0558 8.63431 10.0564 9.68556 10.0558C9.98056 10.0558 10.0099 10.027 10.0099 9.73764C10.0106 8.67827 10.0149 7.61827 10.0062 6.55889C10.0043 6.34452 10.0762 6.26952 10.2887 6.27077C11.4181 6.27702 12.5481 6.27639 13.6774 6.27139C13.8787 6.27077 13.9487 6.34514 13.9474 6.54764C13.9399 7.60702 13.9437 8.66639 13.9443 9.72639C13.9443 10.0326 13.9687 10.0558 14.2806 10.0564C15.3324 10.057 16.3843 10.0626 17.4356 10.052C17.6687 10.0495 17.7312 10.137 17.7299 10.3533C17.7237 11.467 17.7237 12.5814 17.7299 13.6951C17.7312 13.9114 17.6681 13.9983 17.4356 13.9958C16.3837 13.9851 15.3324 13.9908 14.2806 13.9914C13.9687 13.9914 13.9449 14.0151 13.9443 14.3214C13.9437 15.3733 13.9381 16.4251 13.9487 17.4764C13.9512 17.7033 13.8768 17.7783 13.6543 17.777C12.5324 17.7701 11.4106 17.7708 10.2887 17.7764C10.0762 17.7776 10.0049 17.7014 10.0068 17.4876C10.0156 16.4283 10.0112 15.3689 10.0106 14.3089C10.0106 14.0195 9.98118 13.9914 9.68618 13.9908C8.63431 13.9901 7.58243 13.9908 6.53118 13.9901C6.24868 13.9901 6.22931 13.9701 6.22868 13.682C6.22556 13.122 6.22681 12.5614 6.22681 12.0001Z" fill="#5C5C5E"/>
</g>
<defs>
<clipPath id="clip0_223_6781">
<rect width="24" height="24" fill="white"/>
</clipPath>
</defs>
</svg>
