<svg width="24" height="24" viewBox="0 0 24 24" fill="none" xmlns="http://www.w3.org/2000/svg">
<path d="M13.2037 2.86559C12.8733 2.56875 12.4448 2.40454 12.0007 2.40454C11.5565 2.40454 11.1281 2.56875 10.7977 2.86559L4.1977 8.79599C4.00983 8.96463 3.85953 9.17091 3.75658 9.40142C3.65362 9.63194 3.60031 9.88153 3.6001 10.134V18.6C3.6001 19.0774 3.78974 19.5352 4.12731 19.8728C4.46487 20.2103 4.92271 20.4 5.4001 20.4H7.8001C8.27749 20.4 8.73532 20.2103 9.07289 19.8728C9.41046 19.5352 9.6001 19.0774 9.6001 18.6V13.8C9.6001 13.6409 9.66331 13.4882 9.77583 13.3757C9.88835 13.2632 10.041 13.2 10.2001 13.2H13.8001C13.9592 13.2 14.1118 13.2632 14.2244 13.3757C14.3369 13.4882 14.4001 13.6409 14.4001 13.8V18.6C14.4001 19.0774 14.5897 19.5352 14.9273 19.8728C15.2649 20.2103 15.7227 20.4 16.2001 20.4H18.6001C19.0775 20.4 19.5353 20.2103 19.8729 19.8728C20.2105 19.5352 20.4001 19.0774 20.4001 18.6V10.134C20.4 9.88162 20.3469 9.63208 20.2442 9.40157C20.1414 9.17107 19.9913 8.96474 19.8037 8.79599L13.2037 2.86559Z" fill="#3147EB"/>
</svg>
